<svg xmlns="http://www.w3.org/2000/svg" xmlns:xlink="http://www.w3.org/1999/xlink" width="886.6" height="503.141" viewBox="0 0 886.6 503.141">
  <defs>
    <linearGradient id="linear-gradient" x1="0.5" y1="1" x2="0.5" gradientUnits="objectBoundingBox">
      <stop offset="0" stop-color="#9a9a9a"/>
      <stop offset="0.09" stop-color="#a2a2a2"/>
      <stop offset="0.24" stop-color="#b8b8b8"/>
      <stop offset="0.42" stop-color="#dbdbdb"/>
      <stop offset="0.45" stop-color="#e2e2e2"/>
      <stop offset="1" stop-color="#c5c5c5"/>
    </linearGradient>
    <linearGradient id="linear-gradient-2" x1="0.5" y1="1.001" x2="0.5" gradientUnits="objectBoundingBox">
      <stop offset="0" stop-color="#3e3e3e"/>
      <stop offset="0.28" stop-color="#414141"/>
      <stop offset="0.45" stop-color="#494949"/>
      <stop offset="0.58" stop-color="#575757"/>
      <stop offset="0.71" stop-color="#6b6b6b"/>
      <stop offset="0.82" stop-color="#868686"/>
      <stop offset="0.92" stop-color="#a5a5a5"/>
      <stop offset="1" stop-color="#c5c5c5"/>
    </linearGradient>
    <linearGradient id="linear-gradient-3" y1="0.5" x2="1" y2="0.5" gradientUnits="objectBoundingBox">
      <stop offset="0" stop-color="#929292"/>
      <stop offset="0.01" stop-color="#c1c1c1"/>
      <stop offset="0.03" stop-color="#b2b2b2"/>
      <stop offset="0.05" stop-color="#9c9c9c"/>
      <stop offset="0.07" stop-color="#a4a4a4"/>
      <stop offset="0.09" stop-color="#b0b0b0"/>
      <stop offset="1" stop-color="#cfcfcf"/>
    </linearGradient>
    <linearGradient id="linear-gradient-4" y1="0.493" x2="1" y2="0.493" gradientUnits="objectBoundingBox">
      <stop offset="0.01" stop-color="#f7f7f7"/>
      <stop offset="0.06" stop-color="#d0d0d0"/>
      <stop offset="0.5" stop-color="#f7f7f7"/>
      <stop offset="0.87" stop-color="#d0d0d0"/>
      <stop offset="0.87" stop-color="#d2d2d2"/>
      <stop offset="0.95" stop-color="#e8e8e8"/>
      <stop offset="1" stop-color="#f0f0f0"/>
    </linearGradient>
    <linearGradient id="linear-gradient-5" y1="0.5" x2="1" y2="0.5" gradientUnits="objectBoundingBox">
      <stop offset="0" stop-color="#cfcfcf"/>
      <stop offset="0.91" stop-color="#b0b0b0"/>
      <stop offset="0.93" stop-color="#a4a4a4"/>
      <stop offset="0.95" stop-color="#9c9c9c"/>
      <stop offset="0.97" stop-color="#b2b2b2"/>
      <stop offset="0.99" stop-color="#c1c1c1"/>
      <stop offset="1" stop-color="#929292"/>
    </linearGradient>
    <linearGradient id="linear-gradient-6" y1="0.5" x2="1" y2="0.5" gradientUnits="objectBoundingBox">
      <stop offset="0" stop-color="#666"/>
      <stop offset="0.01" stop-color="#d5d5d5"/>
      <stop offset="0.02" stop-color="#bebebe"/>
      <stop offset="0.04" stop-color="#878787"/>
      <stop offset="0.05" stop-color="#717171"/>
      <stop offset="0.06" stop-color="#797979"/>
      <stop offset="0.07" stop-color="#8f8f8f"/>
      <stop offset="0.09" stop-color="#b3b3b3"/>
      <stop offset="0.09" stop-color="#bcbcbc"/>
      <stop offset="1" stop-color="#f0f0f0"/>
    </linearGradient>
    <linearGradient id="linear-gradient-7" y1="0.5" x2="1" y2="0.5" gradientUnits="objectBoundingBox">
      <stop offset="0" stop-color="#f0f0f0"/>
      <stop offset="0.91" stop-color="#bcbcbc"/>
      <stop offset="0.91" stop-color="#b3b3b3"/>
      <stop offset="0.93" stop-color="#8f8f8f"/>
      <stop offset="0.94" stop-color="#797979"/>
      <stop offset="0.95" stop-color="#717171"/>
      <stop offset="0.96" stop-color="#878787"/>
      <stop offset="0.98" stop-color="#bebebe"/>
      <stop offset="0.99" stop-color="#d5d5d5"/>
      <stop offset="1" stop-color="#666"/>
    </linearGradient>
    <linearGradient id="linear-gradient-8" y1="0.5" x2="1" y2="0.5" gradientUnits="objectBoundingBox">
      <stop offset="0" stop-color="#9f9f9f"/>
      <stop offset="0.04" stop-color="#adadad"/>
      <stop offset="0.51" stop-color="#e5e5e5"/>
      <stop offset="0.96" stop-color="#adadad"/>
      <stop offset="1" stop-color="#9f9f9f"/>
    </linearGradient>
    <linearGradient id="linear-gradient-9" y1="0.5" x2="1" y2="0.5" gradientUnits="objectBoundingBox">
      <stop offset="0" stop-color="#f6f6f6"/>
      <stop offset="0.52" stop-color="#f7f7f7"/>
      <stop offset="1" stop-color="#f6f6f6"/>
    </linearGradient>
    <linearGradient id="linear-gradient-10" x1="0.5" y1="1" x2="0.5" gradientUnits="objectBoundingBox">
      <stop offset="0" stop-color="#565656"/>
      <stop offset="0.74" stop-color="#b9b9b9"/>
      <stop offset="0.85" stop-color="#b6b6b6"/>
      <stop offset="0.94" stop-color="#acacac"/>
      <stop offset="1" stop-color="#9f9f9f"/>
    </linearGradient>
  </defs>
  <g id="infografia1" transform="translate(-176.7 -90.93)">
    <g id="Grupo_87632" data-name="Grupo 87632">
      <g id="Grupo_87617" data-name="Grupo 87617">
        <g id="Grupo_87616" data-name="Grupo 87616">
          <g id="Grupo_87610" data-name="Grupo 87610">
            <path id="Trazado_159994" data-name="Trazado 159994" d="M961.05,94H286.23a21.75,21.75,0,0,0-21.9,21.6V567h3.13V112.52a18.448,18.448,0,0,1,.22-2.8,4.69,4.69,0,0,1,.16-.91c.06-.3.13-.6.21-.89s.16-.59.25-.88a18.39,18.39,0,0,1,3.73-6.59c.2-.23.4-.44.61-.66a4.213,4.213,0,0,1,.31-.31A18.671,18.671,0,0,1,276.1,97c.38-.24.77-.46,1.17-.68s.8-.41,1.21-.59h0l.83-.34h0a19,19,0,0,1,6.85-1.28H961a18.83,18.83,0,0,1,8.91,2.23c.4.22.79.44,1.17.68s1,.67,1.47,1h0l.69.57h0c.34.29.66.59,1,.91l.32.31c.2.22.41.43.6.66a18.21,18.21,0,0,1,4.57,12.07V567h3.17V114.26A21.77,21.77,0,0,0,961.05,94Z" fill="url(#linear-gradient)"/>
            <path id="Trazado_159995" data-name="Trazado 159995" d="M264.29,112.53a21.75,21.75,0,0,1,21.89-21.6H961a21.75,21.75,0,0,1,21.89,21.6v1.73A21.77,21.77,0,0,0,961.05,94H286.23a21.75,21.75,0,0,0-21.9,21.6Z" fill="url(#linear-gradient-2)"/>
            <g id="Grupo_87609" data-name="Grupo 87609">
              <rect id="Rectángulo_37345" data-name="Rectángulo 37345" width="712.27" height="12.64" transform="translate(267.46 554.37)"/>
              <path id="Trazado_159996" data-name="Trazado 159996" d="M979.73,112.63V554.37H267.46V112.63a18.67,18.67,0,0,1,18.72-18.57H961A18.67,18.67,0,0,1,979.73,112.63Z"/>
              <path id="Trazado_159997" data-name="Trazado 159997" d="M982.9,567v1.16h-3.17v-.01H267.46v.01h-3.13V567Z"/>
            </g>
          </g>
          <g id="Grupo_87615" data-name="Grupo 87615">
            <g id="Grupo_87614" data-name="Grupo 87614">
              <g id="Grupo_87611" data-name="Grupo 87611">
                <rect id="Rectángulo_37346" data-name="Rectángulo 37346" width="443.3" height="13.42" transform="translate(176.7 568.83)" fill="url(#linear-gradient-3)"/>
                <rect id="Rectángulo_37347" data-name="Rectángulo 37347" width="886.6" height="0.67" transform="translate(176.7 568.16)" fill="url(#linear-gradient-4)"/>
                <rect id="Rectángulo_37348" data-name="Rectángulo 37348" width="443.3" height="13.42" transform="translate(620 568.83)" fill="url(#linear-gradient-5)"/>
              </g>
              <g id="Grupo_87612" data-name="Grupo 87612">
                <rect id="Rectángulo_37349" data-name="Rectángulo 37349" width="443.3" height="12.63" transform="translate(176.7 568.83)" fill="url(#linear-gradient-6)"/>
                <rect id="Rectángulo_37350" data-name="Rectángulo 37350" width="443.3" height="12.63" transform="translate(620 568.83)" fill="url(#linear-gradient-7)"/>
              </g>
              <path id="Trazado_159998" data-name="Trazado 159998" d="M683.1,568.16a10.28,10.28,0,0,1-10.28,10.28H567.17a10.28,10.28,0,0,1-10.27-10.28Z" fill="url(#linear-gradient-8)"/>
              <g id="Grupo_87613" data-name="Grupo 87613">
                <path id="Trazado_159999" data-name="Trazado 159999" d="M683.1,568.16a10.28,10.28,0,0,1-10.27,10.28H567.17a10.27,10.27,0,0,1-10.26-10.28h-.5v.77a10.26,10.26,0,0,0,10.27,10.26H673.32a10.26,10.26,0,0,0,10.27-10.26v-.77Z" fill="url(#linear-gradient-9)"/>
              </g>
            </g>
            <path id="Trazado_160000" data-name="Trazado 160000" d="M176.7,582.25A396,396,0,0,0,273,594.07H967a396,396,0,0,0,96.29-11.82Z" fill="url(#linear-gradient-10)"/>
          </g>
        </g>
        <rect id="Rectángulo_37351" data-name="Rectángulo 37351" width="682.8" height="422.47" transform="translate(282.19 120.97)" fill="#051930"/>
      </g>
      <g id="Grupo_87619" data-name="Grupo 87619">
        <rect id="Rectángulo_37352" data-name="Rectángulo 37352" width="24.97" height="9.12" transform="translate(303.04 178.38)" fill="#1565b2" opacity="0.5"/>
        <rect id="Rectángulo_37353" data-name="Rectángulo 37353" width="99.26" height="9.12" transform="translate(537.57 178.38)" fill="#1565b2" opacity="0.5"/>
        <rect id="Rectángulo_37354" data-name="Rectángulo 37354" width="47.43" height="9.12" transform="translate(652.17 178.38)" fill="#6de0d4" opacity="0.5"/>
        <rect id="Rectángulo_37355" data-name="Rectángulo 37355" width="47.43" height="9.12" transform="translate(728.07 300.42)" fill="#1565b2" opacity="0.5"/>
        <rect id="Rectángulo_37356" data-name="Rectángulo 37356" width="159.89" height="9.12" transform="translate(709.9 178.38)" fill="#8b8b8b" opacity="0.5"/>
        <rect id="Rectángulo_37357" data-name="Rectángulo 37357" width="24.97" height="9.12" transform="translate(328.01 202.78)" fill="#1565b2" opacity="0.5"/>
        <rect id="Rectángulo_37358" data-name="Rectángulo 37358" width="187.96" height="9.12" transform="translate(370.55 202.78)" fill="#8b8b8b" opacity="0.5"/>
        <rect id="Rectángulo_37359" data-name="Rectángulo 37359" width="71.1" height="9.12" transform="translate(645.7 300.42)" fill="#8b8b8b" opacity="0.5"/>
        <rect id="Rectángulo_37360" data-name="Rectángulo 37360" width="179.53" height="9.12" transform="translate(346.21 276.01)" fill="#8b8b8b" opacity="0.5"/>
        <rect id="Rectángulo_37361" data-name="Rectángulo 37361" width="219.97" height="9.12" transform="translate(370.55 227.19)" fill="#6de0d4" opacity="0.5"/>
        <rect id="Rectángulo_37362" data-name="Rectángulo 37362" width="125.95" height="9.12" transform="translate(683.88 251.6)" fill="#8b8b8b" opacity="0.5"/>
        <rect id="Rectángulo_37363" data-name="Rectángulo 37363" width="45.19" height="9.12" transform="translate(751.78 227.19)" fill="#8b8b8b" opacity="0.5"/>
        <rect id="Rectángulo_37364" data-name="Rectángulo 37364" width="102.91" height="9.12" transform="translate(526.54 300.42)" fill="#6de0d4" opacity="0.5"/>
        <rect id="Rectángulo_37365" data-name="Rectángulo 37365" width="208.02" height="9.12" transform="translate(704.62 202.78)" fill="#6de0d4" opacity="0.5"/>
        <rect id="Rectángulo_37366" data-name="Rectángulo 37366" width="124" height="9.12" transform="translate(570.31 202.78)" fill="#1565b2" opacity="0.5"/>
        <rect id="Rectángulo_37367" data-name="Rectángulo 37367" width="80.83" height="9.12" transform="translate(803.17 227.19)" fill="#1565b2" opacity="0.5"/>
        <rect id="Rectángulo_37368" data-name="Rectángulo 37368" width="24.97" height="9.12" transform="translate(328.01 227.19)" fill="#1565b2" opacity="0.5"/>
        <rect id="Rectángulo_37369" data-name="Rectángulo 37369" width="24.97" height="9.12" transform="translate(303.04 251.6)" fill="#8b8b8b" opacity="0.5"/>
        <rect id="Rectángulo_37370" data-name="Rectángulo 37370" width="147.56" height="9.12" transform="translate(346.21 251.6)" fill="#1565b2" opacity="0.5"/>
        <rect id="Rectángulo_37371" data-name="Rectángulo 37371" width="147.56" height="9.12" transform="translate(370.55 324.83)" fill="#1565b2" opacity="0.5"/>
        <rect id="Rectángulo_37372" data-name="Rectángulo 37372" width="190.09" height="9.12" transform="translate(649.91 349.24)" fill="#6de0d4" opacity="0.5"/>
        <rect id="Rectángulo_37373" data-name="Rectángulo 37373" width="152.19" height="9.12" transform="translate(530.09 324.83)" fill="#6de0d4" opacity="0.5"/>
        <rect id="Rectángulo_37374" data-name="Rectángulo 37374" width="133.02" height="9.12" transform="translate(503.99 349.24)" fill="#1565b2" opacity="0.5"/>
        <rect id="Rectángulo_37375" data-name="Rectángulo 37375" width="42.73" height="9.12" transform="translate(370.55 349.24)" fill="#8b8b8b" opacity="0.5"/>
        <rect id="Rectángulo_37376" data-name="Rectángulo 37376" width="163.7" height="9.12" transform="translate(535.9 276.01)" fill="#1565b2" opacity="0.5"/>
        <rect id="Rectángulo_37377" data-name="Rectángulo 37377" width="179.38" height="9.12" transform="translate(709.9 276.01)" fill="#6de0d4" opacity="0.5"/>
        <rect id="Rectángulo_37378" data-name="Rectángulo 37378" width="163.51" height="9.12" transform="translate(508.77 251.6)" fill="#1565b2" opacity="0.5"/>
        <rect id="Rectángulo_37379" data-name="Rectángulo 37379" width="24.97" height="9.12" transform="translate(303.04 276.01)" fill="#1565b2" opacity="0.5"/>
        <rect id="Rectángulo_37380" data-name="Rectángulo 37380" width="24.97" height="9.12" transform="translate(303.04 300.42)" fill="#1565b2" opacity="0.5"/>
        <rect id="Rectángulo_37381" data-name="Rectángulo 37381" width="24.97" height="9.12" transform="translate(328.01 324.83)" fill="#8b8b8b" opacity="0.5"/>
        <rect id="Rectángulo_37382" data-name="Rectángulo 37382" width="24.97" height="9.12" transform="translate(328.01 349.24)" fill="#1565b2" opacity="0.5"/>
        <rect id="Rectángulo_37383" data-name="Rectángulo 37383" width="24.97" height="9.12" transform="translate(303.04 369.68)" fill="#1565b2" opacity="0.5"/>
        <rect id="Rectángulo_37384" data-name="Rectángulo 37384" width="292.77" height="9.12" transform="translate(346.21 369.68)" fill="#1565b2" opacity="0.5"/>
        <rect id="Rectángulo_37385" data-name="Rectángulo 37385" width="24.97" height="9.12" transform="translate(328.01 394.09)" fill="#1565b2" opacity="0.5"/>
        <rect id="Rectángulo_37386" data-name="Rectángulo 37386" width="179.53" height="9.12" transform="translate(346.21 467.31)" fill="#8b8b8b" opacity="0.5"/>
        <rect id="Rectángulo_37387" data-name="Rectángulo 37387" width="125.95" height="9.12" transform="translate(370.55 418.5)" fill="#6de0d4" opacity="0.5"/>
        <rect id="Rectángulo_37388" data-name="Rectángulo 37388" width="205.34" height="9.12" transform="translate(510.47 418.5)" fill="#8b8b8b" opacity="0.5"/>
        <rect id="Rectángulo_37389" data-name="Rectángulo 37389" width="283.24" height="9.12" transform="translate(346.21 491.72)" fill="#6de0d4" opacity="0.5"/>
        <rect id="Rectángulo_37390" data-name="Rectángulo 37390" width="208.02" height="9.12" transform="translate(704.62 394.09)" fill="#6de0d4" opacity="0.5"/>
        <rect id="Rectángulo_37391" data-name="Rectángulo 37391" width="124" height="9.12" transform="translate(570.31 394.09)" fill="#1565b2" opacity="0.5"/>
        <rect id="Rectángulo_37392" data-name="Rectángulo 37392" width="80.83" height="9.12" transform="translate(803.17 418.5)" fill="#1565b2" opacity="0.5"/>
        <rect id="Rectángulo_37393" data-name="Rectángulo 37393" width="24.97" height="9.12" transform="translate(328.01 418.5)" fill="#1565b2" opacity="0.5"/>
        <rect id="Rectángulo_37394" data-name="Rectángulo 37394" width="24.97" height="9.12" transform="translate(303.04 442.9)" fill="#8b8b8b" opacity="0.5"/>
        <rect id="Rectángulo_37395" data-name="Rectángulo 37395" width="238.14" height="9.12" transform="translate(346.21 442.9)" fill="#1565b2" opacity="0.5"/>
        <rect id="Rectángulo_37396" data-name="Rectángulo 37396" width="163.7" height="9.12" transform="translate(535.9 467.31)" fill="#1565b2" opacity="0.5"/>
        <rect id="Rectángulo_37397" data-name="Rectángulo 37397" width="24.97" height="9.12" transform="translate(303.04 467.31)" fill="#1565b2" opacity="0.5"/>
        <g id="Grupo_87618" data-name="Grupo 87618">
          <path id="Trazado_160001" data-name="Trazado 160001" d="M318.47,154.36a2.18,2.18,0,0,1,0,3.08,2.21,2.21,0,0,1-1.51.62,2.32,2.32,0,0,1-1.58-.62l-9.63-9.77c-.1,0-.13-.1-.17-.2a.3.3,0,0,0-.1-.07.74.74,0,0,1-.1-.27.19.19,0,0,1-.11-.14c0-.07,0-.17-.07-.21a.184.184,0,0,1-.07-.17v-.85c0-.07.07-.11.07-.14a2.858,2.858,0,0,0,.07-.28v-.06a.715.715,0,0,1,.18-.31.07.07,0,0,1,.07-.07.61.61,0,0,1,.2-.24l9.63-9.77a2.25,2.25,0,0,1,3.09,0,2.19,2.19,0,0,1,0,3.09l-8.12,8.19Z" fill="#ffa726"/>
          <path id="Trazado_160002" data-name="Trazado 160002" d="M327.2,155.45l8.39-20a1.9,1.9,0,0,1,2.5-1,1.85,1.85,0,0,1,1,2.43l-8.39,20a1.91,1.91,0,0,1-1.75,1.13,1.7,1.7,0,0,1-.69-.14,1.85,1.85,0,0,1-1.06-2.42Z" fill="#ffa726"/>
          <path id="Trazado_160003" data-name="Trazado 160003" d="M355.63,147.4a1.81,1.81,0,0,1-.24.24l-9.63,9.77a2.23,2.23,0,0,1-1.55.62,2.16,2.16,0,0,1-1.53-3.7l8.11-8.19L342.65,138a2.17,2.17,0,0,1,0-3.09,2.24,2.24,0,0,1,3.08,0l9.63,9.77a1.811,1.811,0,0,1,.24.24s0,.07,0,.07a2.682,2.682,0,0,1,.18.31s0,0,0,.06a1.219,1.219,0,0,0,.1.31v1.02a2.069,2.069,0,0,0-.1.31s0,0,0,.1S355.7,147.26,355.63,147.4Z" fill="#ffa726"/>
        </g>
      </g>
      <g id="Grupo_87620" data-name="Grupo 87620" transform="translate(-1.65 3.67)">
        <path id="Trazado_160407" data-name="Trazado 160407" d="M1.65,0V-14.219H5.664a6.461,6.461,0,0,1,3.281.82,5.548,5.548,0,0,1,2.2,2.334,7.6,7.6,0,0,1,.786,3.477v.908a7.624,7.624,0,0,1-.776,3.525A5.461,5.461,0,0,1,8.94-.83,6.873,6.873,0,0,1,5.586,0ZM3.525-12.686V-1.533H5.5A4.292,4.292,0,0,0,8.872-2.882a5.573,5.573,0,0,0,1.206-3.841v-.831A5.661,5.661,0,0,0,8.94-11.322a4.049,4.049,0,0,0-3.228-1.364ZM19.59-8.945a5.414,5.414,0,0,0-.889-.068A2.381,2.381,0,0,0,16.289-7.5V0H14.482V-10.566H16.24l.029,1.221a2.813,2.813,0,0,1,2.52-1.416,1.846,1.846,0,0,1,.8.137ZM23.213,0H21.406V-10.566h1.807ZM21.26-13.369a1.078,1.078,0,0,1,.269-.742,1.008,1.008,0,0,1,.8-.3,1.024,1.024,0,0,1,.8.3,1.067,1.067,0,0,1,.273.742,1.032,1.032,0,0,1-.273.732,1.043,1.043,0,0,1-.8.293,1.026,1.026,0,0,1-.8-.293A1.043,1.043,0,0,1,21.26-13.369ZM29.59-2.451l2.617-8.115h1.846L30.264,0H28.887L25.059-10.566H26.9ZM40.176.2a4.617,4.617,0,0,1-3.5-1.411A5.237,5.237,0,0,1,35.332-4.99v-.332a6.341,6.341,0,0,1,.6-2.808,4.685,4.685,0,0,1,1.68-1.934,4.223,4.223,0,0,1,2.339-.7,3.957,3.957,0,0,1,3.2,1.357A5.877,5.877,0,0,1,44.3-5.518v.752H37.139a3.756,3.756,0,0,0,.913,2.524,2.87,2.87,0,0,0,2.222.962,3.147,3.147,0,0,0,1.621-.391,4.073,4.073,0,0,0,1.162-1.035l1.1.859A4.437,4.437,0,0,1,40.176.2Zm-.225-9.473a2.41,2.41,0,0,0-1.836.8A3.868,3.868,0,0,0,37.2-6.25H42.49v-.137a3.441,3.441,0,0,0-.742-2.134A2.269,2.269,0,0,0,39.951-9.277Zm11.543.332a5.414,5.414,0,0,0-.889-.068A2.381,2.381,0,0,0,48.193-7.5V0H46.387V-10.566h1.758l.029,1.221a2.813,2.813,0,0,1,2.52-1.416,1.846,1.846,0,0,1,.8.137Zm4.365-5.273,4.648,11.6,4.648-11.6h2.432V0H65.713V-5.537l.176-5.977L61.221,0H59.785L55.127-11.484l.186,5.947V0H53.438V-14.219ZM77.139,0a3.8,3.8,0,0,1-.254-1.113A4.031,4.031,0,0,1,73.877.2a3.73,3.73,0,0,1-2.563-.884,2.859,2.859,0,0,1-1-2.241,2.987,2.987,0,0,1,1.255-2.563,5.916,5.916,0,0,1,3.53-.913h1.758v-.83a2.029,2.029,0,0,0-.566-1.509,2.276,2.276,0,0,0-1.67-.562A2.634,2.634,0,0,0,73-8.818a1.439,1.439,0,0,0-.654,1.182H70.527a2.493,2.493,0,0,1,.562-1.528,3.832,3.832,0,0,1,1.523-1.167,5.125,5.125,0,0,1,2.114-.43,4.177,4.177,0,0,1,2.861.913,3.294,3.294,0,0,1,1.074,2.515v4.863a5.946,5.946,0,0,0,.371,2.314V0Zm-3-1.377a3.175,3.175,0,0,0,1.611-.439,2.658,2.658,0,0,0,1.1-1.143V-5.127H75.439q-3.32,0-3.32,1.943a1.645,1.645,0,0,0,.566,1.328A2.177,2.177,0,0,0,74.141-1.377ZM83.2-10.566l.059,1.328a3.85,3.85,0,0,1,3.164-1.523q3.35,0,3.379,3.779V0H88V-6.992a2.432,2.432,0,0,0-.522-1.689,2.094,2.094,0,0,0-1.6-.547,2.607,2.607,0,0,0-1.543.469A3.183,3.183,0,0,0,83.3-7.529V0H81.494V-10.566ZM99.053,0A3.8,3.8,0,0,1,98.8-1.113,4.031,4.031,0,0,1,95.791.2a3.73,3.73,0,0,1-2.563-.884,2.859,2.859,0,0,1-1-2.241,2.987,2.987,0,0,1,1.255-2.563,5.916,5.916,0,0,1,3.53-.913H98.77v-.83A2.029,2.029,0,0,0,98.2-8.745a2.276,2.276,0,0,0-1.67-.562,2.634,2.634,0,0,0-1.621.488,1.439,1.439,0,0,0-.654,1.182H92.441A2.493,2.493,0,0,1,93-9.165a3.832,3.832,0,0,1,1.523-1.167,5.125,5.125,0,0,1,2.114-.43,4.177,4.177,0,0,1,2.861.913,3.294,3.294,0,0,1,1.074,2.515v4.863a5.946,5.946,0,0,0,.371,2.314V0Zm-3-1.377a3.175,3.175,0,0,0,1.611-.439,2.658,2.658,0,0,0,1.1-1.143V-5.127H97.354q-3.32,0-3.32,1.943A1.645,1.645,0,0,0,94.6-1.855,2.177,2.177,0,0,0,96.055-1.377Zm6.924-3.994A6.21,6.21,0,0,1,104.121-9.3a3.654,3.654,0,0,1,3.027-1.46,3.635,3.635,0,0,1,3.018,1.367l.088-1.172h1.65V-.254a4.3,4.3,0,0,1-1.216,3.232,4.487,4.487,0,0,1-3.267,1.182,5.435,5.435,0,0,1-2.236-.488,3.85,3.85,0,0,1-1.67-1.338l.938-1.084a3.533,3.533,0,0,0,2.842,1.436,2.768,2.768,0,0,0,2.056-.742,2.837,2.837,0,0,0,.737-2.09v-.908A3.713,3.713,0,0,1,107.129.2a3.609,3.609,0,0,1-3-1.494A6.529,6.529,0,0,1,102.979-5.371Zm1.816.205a4.738,4.738,0,0,0,.732,2.808,2.38,2.38,0,0,0,2.051,1.021,2.646,2.646,0,0,0,2.51-1.553V-7.715a2.677,2.677,0,0,0-2.49-1.514A2.4,2.4,0,0,0,105.537-8.2,5.16,5.16,0,0,0,104.795-5.166ZM119.014.2a4.617,4.617,0,0,1-3.5-1.411A5.237,5.237,0,0,1,114.17-4.99v-.332a6.341,6.341,0,0,1,.6-2.808,4.685,4.685,0,0,1,1.68-1.934,4.223,4.223,0,0,1,2.339-.7,3.957,3.957,0,0,1,3.2,1.357,5.877,5.877,0,0,1,1.143,3.887v.752h-7.158a3.756,3.756,0,0,0,.913,2.524,2.87,2.87,0,0,0,2.222.962,3.147,3.147,0,0,0,1.621-.391,4.073,4.073,0,0,0,1.162-1.035l1.1.859A4.437,4.437,0,0,1,119.014.2Zm-.225-9.473a2.41,2.41,0,0,0-1.836.8,3.869,3.869,0,0,0-.918,2.231h5.293v-.137a3.441,3.441,0,0,0-.742-2.134A2.269,2.269,0,0,0,118.789-9.277Zm11.543.332a5.414,5.414,0,0,0-.889-.068A2.381,2.381,0,0,0,127.031-7.5V0h-1.807V-10.566h1.758l.029,1.221a2.813,2.813,0,0,1,2.52-1.416,1.846,1.846,0,0,1,.8.137Z" transform="translate(399.75 187.27)" fill="#ffa726"/>
      </g>
      <path id="Trazado_160409" data-name="Trazado 160409" d="M12.109-4.512A5.231,5.231,0,0,1,10.444-1.03,5.457,5.457,0,0,1,6.719.2,5.01,5.01,0,0,1,2.681-1.611,7.268,7.268,0,0,1,1.162-6.445V-7.812A8.1,8.1,0,0,1,1.87-11.3a5.288,5.288,0,0,1,2.007-2.31,5.588,5.588,0,0,1,3.008-.806,5.138,5.138,0,0,1,3.633,1.265,5.294,5.294,0,0,1,1.592,3.5H10.225a4.085,4.085,0,0,0-1.06-2.468,3.206,3.206,0,0,0-2.28-.764,3.355,3.355,0,0,0-2.817,1.329A6.1,6.1,0,0,0,3.047-7.769v1.378a6.273,6.273,0,0,0,.967,3.685A3.124,3.124,0,0,0,6.719-1.338a3.608,3.608,0,0,0,2.4-.708,3.929,3.929,0,0,0,1.108-2.466Zm1.8-.869a6.241,6.241,0,0,1,.61-2.793,4.553,4.553,0,0,1,1.7-1.914,4.626,4.626,0,0,1,2.485-.674,4.456,4.456,0,0,1,3.491,1.494,5.748,5.748,0,0,1,1.333,3.975v.127A6.3,6.3,0,0,1,22.935-2.4,4.486,4.486,0,0,1,21.245-.488,4.679,4.679,0,0,1,18.721.2,4.445,4.445,0,0,1,15.239-1.3a5.719,5.719,0,0,1-1.333-3.955Zm1.816.215a4.52,4.52,0,0,0,.815,2.822,2.61,2.61,0,0,0,2.183,1.064,2.594,2.594,0,0,0,2.188-1.079,4.943,4.943,0,0,0,.811-3.022A4.513,4.513,0,0,0,20.894-8.2,2.623,2.623,0,0,0,18.7-9.277a2.594,2.594,0,0,0-2.158,1.064A4.906,4.906,0,0,0,15.723-5.166Zm11.777-5.4.059,1.328a3.85,3.85,0,0,1,3.164-1.523q3.35,0,3.379,3.779V0H32.295V-6.992a2.432,2.432,0,0,0-.522-1.689,2.094,2.094,0,0,0-1.6-.547,2.607,2.607,0,0,0-1.543.469A3.183,3.183,0,0,0,27.6-7.529V0H25.791V-10.566Zm11.035,0,.059,1.328a3.851,3.851,0,0,1,3.164-1.523q3.35,0,3.379,3.779V0H43.33V-6.992a2.432,2.432,0,0,0-.522-1.689,2.094,2.094,0,0,0-1.6-.547,2.607,2.607,0,0,0-1.543.469,3.183,3.183,0,0,0-1.035,1.23V0H36.826V-10.566ZM52.246.2a4.617,4.617,0,0,1-3.5-1.411A5.237,5.237,0,0,1,47.4-4.99v-.332A6.341,6.341,0,0,1,48-8.13a4.685,4.685,0,0,1,1.68-1.934,4.223,4.223,0,0,1,2.339-.7,3.957,3.957,0,0,1,3.2,1.357,5.877,5.877,0,0,1,1.143,3.887v.752H49.209a3.756,3.756,0,0,0,.913,2.524,2.87,2.87,0,0,0,2.222.962,3.147,3.147,0,0,0,1.621-.391,4.073,4.073,0,0,0,1.162-1.035l1.1.859A4.437,4.437,0,0,1,52.246.2Zm-.225-9.473a2.41,2.41,0,0,0-1.836.8,3.868,3.868,0,0,0-.918,2.231h5.293v-.137a3.441,3.441,0,0,0-.742-2.134A2.269,2.269,0,0,0,52.021-9.277Zm10.674,8a2.6,2.6,0,0,0,1.689-.586,2.061,2.061,0,0,0,.8-1.465h1.709A3.276,3.276,0,0,1,66.27-1.6,4.116,4.116,0,0,1,64.731-.293,4.438,4.438,0,0,1,62.7.2a4.353,4.353,0,0,1-3.433-1.44,5.737,5.737,0,0,1-1.274-3.94v-.3a6.361,6.361,0,0,1,.566-2.744A4.314,4.314,0,0,1,60.181-10.1a4.619,4.619,0,0,1,2.5-.664A4.238,4.238,0,0,1,65.64-9.7a3.8,3.8,0,0,1,1.255,2.764H65.186a2.49,2.49,0,0,0-.776-1.685,2.415,2.415,0,0,0-1.724-.659,2.529,2.529,0,0,0-2.134.991,4.655,4.655,0,0,0-.757,2.866v.342a4.562,4.562,0,0,0,.752,2.813A2.541,2.541,0,0,0,62.7-1.279Zm8.682-11.846v2.559H73.35v1.4H71.377v6.561a1.467,1.467,0,0,0,.264.953,1.11,1.11,0,0,0,.9.318,4.374,4.374,0,0,0,.859-.117V0A5.268,5.268,0,0,1,72.012.2a2.25,2.25,0,0,1-1.826-.732,3.147,3.147,0,0,1-.615-2.08V-9.17H67.646v-1.4H69.57v-2.559ZM77.422,0H75.615V-10.566h1.807ZM75.469-13.369a1.078,1.078,0,0,1,.269-.742,1.008,1.008,0,0,1,.8-.3,1.024,1.024,0,0,1,.8.3,1.067,1.067,0,0,1,.273.742,1.032,1.032,0,0,1-.273.732,1.043,1.043,0,0,1-.8.293,1.026,1.026,0,0,1-.8-.293A1.043,1.043,0,0,1,75.469-13.369Zm4.365,7.988a6.241,6.241,0,0,1,.61-2.793,4.553,4.553,0,0,1,1.7-1.914,4.626,4.626,0,0,1,2.485-.674A4.456,4.456,0,0,1,88.12-9.268a5.748,5.748,0,0,1,1.333,3.975v.127A6.3,6.3,0,0,1,88.862-2.4,4.486,4.486,0,0,1,87.173-.488,4.679,4.679,0,0,1,84.648.2,4.445,4.445,0,0,1,81.167-1.3a5.719,5.719,0,0,1-1.333-3.955Zm1.816.215a4.52,4.52,0,0,0,.815,2.822,2.61,2.61,0,0,0,2.183,1.064,2.594,2.594,0,0,0,2.188-1.079,4.943,4.943,0,0,0,.811-3.022A4.513,4.513,0,0,0,86.821-8.2a2.623,2.623,0,0,0-2.192-1.079,2.594,2.594,0,0,0-2.158,1.064A4.906,4.906,0,0,0,81.65-5.166Zm11.777-5.4.059,1.328a3.85,3.85,0,0,1,3.164-1.523q3.35,0,3.379,3.779V0H98.223V-6.992A2.432,2.432,0,0,0,97.7-8.682a2.094,2.094,0,0,0-1.6-.547,2.607,2.607,0,0,0-1.543.469,3.183,3.183,0,0,0-1.035,1.23V0H91.719V-10.566Z" transform="translate(403 311.04)" fill="#ffa726"/>
      <path id="Trazado_160408" data-name="Trazado 160408" d="M6.865-5.752H3.525V0H1.641V-14.219H6.348a5.571,5.571,0,0,1,3.7,1.094,3.935,3.935,0,0,1,1.294,3.184,3.828,3.828,0,0,1-.718,2.314,4.285,4.285,0,0,1-2,1.475l3.34,6.035V0H9.951ZM3.525-7.285H6.406a3.249,3.249,0,0,0,2.222-.724,2.448,2.448,0,0,0,.825-1.937,2.578,2.578,0,0,0-.786-2.025A3.329,3.329,0,0,0,6.4-12.686H3.525ZM18.066.2a4.617,4.617,0,0,1-3.5-1.411A5.237,5.237,0,0,1,13.223-4.99v-.332a6.341,6.341,0,0,1,.6-2.808,4.685,4.685,0,0,1,1.68-1.934,4.223,4.223,0,0,1,2.339-.7,3.957,3.957,0,0,1,3.2,1.357,5.877,5.877,0,0,1,1.143,3.887v.752H15.029a3.756,3.756,0,0,0,.913,2.524,2.87,2.87,0,0,0,2.222.962,3.147,3.147,0,0,0,1.621-.391,4.073,4.073,0,0,0,1.162-1.035l1.1.859A4.437,4.437,0,0,1,18.066.2Zm-.225-9.473a2.41,2.41,0,0,0-1.836.8,3.868,3.868,0,0,0-.918,2.231h5.293v-.137a3.441,3.441,0,0,0-.742-2.134A2.269,2.269,0,0,0,17.842-9.277ZM30.43-2.8a1.33,1.33,0,0,0-.552-1.138,5.311,5.311,0,0,0-1.924-.7,9.1,9.1,0,0,1-2.178-.7,3.1,3.1,0,0,1-1.191-.977A2.336,2.336,0,0,1,24.2-7.666a2.741,2.741,0,0,1,1.1-2.2,4.291,4.291,0,0,1,2.808-.9,4.415,4.415,0,0,1,2.915.928,2.947,2.947,0,0,1,1.118,2.373H30.322a1.631,1.631,0,0,0-.63-1.279,2.36,2.36,0,0,0-1.587-.537,2.47,2.47,0,0,0-1.543.43,1.353,1.353,0,0,0-.557,1.123,1.1,1.1,0,0,0,.518.986,6.368,6.368,0,0,0,1.87.635,9.744,9.744,0,0,1,2.192.723A3.2,3.2,0,0,1,31.831-4.37a2.485,2.485,0,0,1,.405,1.44A2.7,2.7,0,0,1,31.1-.659,4.752,4.752,0,0,1,28.164.2a5.321,5.321,0,0,1-2.246-.449A3.653,3.653,0,0,1,24.39-1.509a3.025,3.025,0,0,1-.552-1.743h1.807a1.87,1.87,0,0,0,.728,1.44,2.822,2.822,0,0,0,1.792.532,2.913,2.913,0,0,0,1.646-.415A1.275,1.275,0,0,0,30.43-2.8ZM41.113-1.045A3.837,3.837,0,0,1,38.018.2a3.285,3.285,0,0,1-2.573-.981,4.248,4.248,0,0,1-.894-2.905v-6.875h1.807V-3.74q0,2.4,1.953,2.4a2.7,2.7,0,0,0,2.754-1.543v-7.686h1.807V0H41.152ZM47.578,0H45.771V-15h1.807ZM52.92-13.125v2.559h1.973v1.4H52.92v6.561a1.467,1.467,0,0,0,.264.953,1.11,1.11,0,0,0,.9.318,4.374,4.374,0,0,0,.859-.117V0A5.268,5.268,0,0,1,53.555.2a2.25,2.25,0,0,1-1.826-.732,3.147,3.147,0,0,1-.615-2.08V-9.17H49.189v-1.4h1.924v-2.559Zm8.555,6.787a8.817,8.817,0,0,1-3.511-1.7,3.256,3.256,0,0,1-1.1-2.5,3.439,3.439,0,0,1,1.343-2.778,5.337,5.337,0,0,1,3.491-1.1,5.825,5.825,0,0,1,2.612.566,4.3,4.3,0,0,1,1.777,1.563,4,4,0,0,1,.63,2.178H64.834a2.6,2.6,0,0,0-.82-2.034,3.336,3.336,0,0,0-2.314-.74,3.415,3.415,0,0,0-2.163.611,2.04,2.04,0,0,0-.776,1.7A1.835,1.835,0,0,0,59.5-9.1,7.232,7.232,0,0,0,62.007-8,11.645,11.645,0,0,1,64.78-6.9a4.209,4.209,0,0,1,1.484,1.4,3.577,3.577,0,0,1,.483,1.885A3.322,3.322,0,0,1,65.4-.845,5.746,5.746,0,0,1,61.8.2a6.683,6.683,0,0,1-2.734-.562A4.6,4.6,0,0,1,57.1-1.9a3.754,3.754,0,0,1-.688-2.217H58.3a2.449,2.449,0,0,0,.952,2.036,4.009,4.009,0,0,0,2.544.747,3.685,3.685,0,0,0,2.275-.605,1.967,1.967,0,0,0,.791-1.65,1.931,1.931,0,0,0-.732-1.616A8.444,8.444,0,0,0,61.475-6.338ZM73.252.2a4.617,4.617,0,0,1-3.5-1.411A5.237,5.237,0,0,1,68.408-4.99v-.332a6.341,6.341,0,0,1,.6-2.808,4.685,4.685,0,0,1,1.68-1.934,4.223,4.223,0,0,1,2.339-.7A3.957,3.957,0,0,1,76.23-9.4a5.877,5.877,0,0,1,1.143,3.887v.752H70.215a3.756,3.756,0,0,0,.913,2.524,2.87,2.87,0,0,0,2.222.962,3.147,3.147,0,0,0,1.621-.391,4.073,4.073,0,0,0,1.162-1.035l1.1.859A4.437,4.437,0,0,1,73.252.2Zm-.225-9.473a2.41,2.41,0,0,0-1.836.8,3.869,3.869,0,0,0-.918,2.231h5.293v-.137a3.441,3.441,0,0,0-.742-2.134A2.269,2.269,0,0,0,73.027-9.277Zm8.887-3.848v2.559h1.973v1.4H81.914v6.561a1.467,1.467,0,0,0,.264.953,1.11,1.11,0,0,0,.9.318,4.374,4.374,0,0,0,.859-.117V0A5.268,5.268,0,0,1,82.549.2a2.25,2.25,0,0,1-1.826-.732,3.147,3.147,0,0,1-.615-2.08V-9.17H78.184v-1.4h1.924v-2.559Z" transform="translate(655.35 238.4)" fill="#ffa726"/>
      <path id="Trazado_160410" data-name="Trazado 160410" d="M5.84-6.338a8.817,8.817,0,0,1-3.511-1.7,3.256,3.256,0,0,1-1.1-2.5,3.439,3.439,0,0,1,1.343-2.778,5.337,5.337,0,0,1,3.491-1.1,5.825,5.825,0,0,1,2.612.566,4.3,4.3,0,0,1,1.777,1.563,4,4,0,0,1,.63,2.178H9.2a2.6,2.6,0,0,0-.82-2.034,3.336,3.336,0,0,0-2.314-.74,3.415,3.415,0,0,0-2.163.611,2.04,2.04,0,0,0-.776,1.7A1.835,1.835,0,0,0,3.862-9.1,7.232,7.232,0,0,0,6.372-8,11.645,11.645,0,0,1,9.146-6.9,4.209,4.209,0,0,1,10.63-5.5a3.577,3.577,0,0,1,.483,1.885A3.322,3.322,0,0,1,9.766-.845,5.746,5.746,0,0,1,6.162.2,6.683,6.683,0,0,1,3.428-.366,4.6,4.6,0,0,1,1.47-1.9,3.754,3.754,0,0,1,.781-4.121H2.666a2.449,2.449,0,0,0,.952,2.036,4.009,4.009,0,0,0,2.544.747,3.685,3.685,0,0,0,2.275-.605,1.967,1.967,0,0,0,.791-1.65A1.931,1.931,0,0,0,8.5-5.21,8.444,8.444,0,0,0,5.84-6.338Zm9.844-6.787v2.559h1.973v1.4H15.684v6.561a1.467,1.467,0,0,0,.264.953,1.11,1.11,0,0,0,.9.318,4.374,4.374,0,0,0,.859-.117V0A5.268,5.268,0,0,1,16.318.2a2.25,2.25,0,0,1-1.826-.732,3.147,3.147,0,0,1-.615-2.08V-9.17H11.953v-1.4h1.924v-2.559ZM26.289,0a3.8,3.8,0,0,1-.254-1.113A4.031,4.031,0,0,1,23.027.2a3.73,3.73,0,0,1-2.563-.884,2.859,2.859,0,0,1-1-2.241,2.987,2.987,0,0,1,1.255-2.563,5.916,5.916,0,0,1,3.53-.913h1.758v-.83a2.029,2.029,0,0,0-.566-1.509,2.276,2.276,0,0,0-1.67-.562,2.634,2.634,0,0,0-1.621.488,1.439,1.439,0,0,0-.654,1.182H19.678a2.493,2.493,0,0,1,.562-1.528,3.832,3.832,0,0,1,1.523-1.167,5.125,5.125,0,0,1,2.114-.43,4.177,4.177,0,0,1,2.861.913,3.294,3.294,0,0,1,1.074,2.515v4.863a5.946,5.946,0,0,0,.371,2.314V0Zm-3-1.377A3.175,3.175,0,0,0,24.9-1.816a2.658,2.658,0,0,0,1.1-1.143V-5.127H24.59q-3.32,0-3.32,1.943a1.645,1.645,0,0,0,.566,1.328A2.177,2.177,0,0,0,23.291-1.377Zm9.8-11.748v2.559h1.973v1.4H33.1v6.561a1.467,1.467,0,0,0,.264.953,1.11,1.11,0,0,0,.9.318,4.374,4.374,0,0,0,.859-.117V0A5.268,5.268,0,0,1,33.73.2,2.25,2.25,0,0,1,31.9-.537a3.147,3.147,0,0,1-.615-2.08V-9.17H29.365v-1.4h1.924v-2.559ZM41.563.2a4.617,4.617,0,0,1-3.5-1.411A5.237,5.237,0,0,1,36.719-4.99v-.332a6.341,6.341,0,0,1,.6-2.808A4.685,4.685,0,0,1,39-10.063a4.223,4.223,0,0,1,2.339-.7,3.957,3.957,0,0,1,3.2,1.357,5.877,5.877,0,0,1,1.143,3.887v.752H38.525a3.756,3.756,0,0,0,.913,2.524,2.87,2.87,0,0,0,2.222.962,3.147,3.147,0,0,0,1.621-.391,4.073,4.073,0,0,0,1.162-1.035l1.1.859A4.437,4.437,0,0,1,41.563.2Zm-.225-9.473a2.41,2.41,0,0,0-1.836.8,3.868,3.868,0,0,0-.918,2.231h5.293v-.137a3.441,3.441,0,0,0-.742-2.134A2.269,2.269,0,0,0,41.338-9.277Zm8.135-1.289.049,1.172a3.9,3.9,0,0,1,3.135-1.367,3.021,3.021,0,0,1,3.018,1.7,4,4,0,0,1,1.372-1.23,4.052,4.052,0,0,1,2-.469q3.477,0,3.535,3.682V0H60.771V-6.973a2.426,2.426,0,0,0-.518-1.694,2.279,2.279,0,0,0-1.738-.562,2.4,2.4,0,0,0-1.67.6,2.436,2.436,0,0,0-.771,1.616V0H54.258V-6.924A2.016,2.016,0,0,0,52-9.229,2.417,2.417,0,0,0,49.57-7.715V0H47.764V-10.566ZM69.688.2a4.617,4.617,0,0,1-3.5-1.411A5.237,5.237,0,0,1,64.844-4.99v-.332a6.341,6.341,0,0,1,.6-2.808,4.685,4.685,0,0,1,1.68-1.934,4.223,4.223,0,0,1,2.339-.7,3.957,3.957,0,0,1,3.2,1.357,5.877,5.877,0,0,1,1.143,3.887v.752H66.65a3.756,3.756,0,0,0,.913,2.524,2.87,2.87,0,0,0,2.222.962,3.147,3.147,0,0,0,1.621-.391,4.073,4.073,0,0,0,1.162-1.035l1.1.859A4.437,4.437,0,0,1,69.688.2Zm-.225-9.473a2.41,2.41,0,0,0-1.836.8,3.869,3.869,0,0,0-.918,2.231H72v-.137a3.441,3.441,0,0,0-.742-2.134A2.269,2.269,0,0,0,69.463-9.277Zm8.145-1.289.059,1.328a3.85,3.85,0,0,1,3.164-1.523q3.35,0,3.379,3.779V0H82.4V-6.992a2.432,2.432,0,0,0-.522-1.689,2.094,2.094,0,0,0-1.6-.547,2.607,2.607,0,0,0-1.543.469,3.183,3.183,0,0,0-1.035,1.23V0H75.9V-10.566Zm11.777-2.559v2.559h1.973v1.4H89.385v6.561a1.467,1.467,0,0,0,.264.953,1.11,1.11,0,0,0,.9.318,4.374,4.374,0,0,0,.859-.117V0A5.268,5.268,0,0,1,90.02.2a2.25,2.25,0,0,1-1.826-.732,3.147,3.147,0,0,1-.615-2.08V-9.17H85.654v-1.4h1.924v-2.559Z" transform="translate(403 404.82)" fill="#ffa726"/>
      <g id="Grupo_87622" data-name="Grupo 87622">
        <g id="Grupo_87621" data-name="Grupo 87621" opacity="0.47">
          <circle id="Elipse_7265" data-name="Elipse 7265" cx="20.58" cy="20.58" r="20.58" transform="translate(352.98 162.36)" fill="#36dac9"/>
        </g>
        <circle id="Elipse_7266" data-name="Elipse 7266" cx="16" cy="16" r="16" transform="translate(357.56 166.94)" fill="#36dac9"/>
      </g>
      <g id="Grupo_87624" data-name="Grupo 87624">
        <g id="Grupo_87623" data-name="Grupo 87623" opacity="0.47">
          <circle id="Elipse_7267" data-name="Elipse 7267" cx="20.58" cy="20.58" r="20.58" transform="translate(356.94 284.4)" fill="#36dac9"/>
        </g>
        <circle id="Elipse_7268" data-name="Elipse 7268" cx="16" cy="16" r="16" transform="translate(361.52 288.98)" fill="#36dac9"/>
      </g>
      <g id="Grupo_87626" data-name="Grupo 87626">
        <g id="Grupo_87625" data-name="Grupo 87625" opacity="0.47">
          <circle id="Elipse_7269" data-name="Elipse 7269" cx="20.58" cy="20.58" r="20.58" transform="translate(356.94 378.07)" fill="#36dac9"/>
        </g>
        <circle id="Elipse_7270" data-name="Elipse 7270" cx="16" cy="16" r="16" transform="translate(361.52 382.65)" fill="#36dac9"/>
      </g>
      <g id="Grupo_87628" data-name="Grupo 87628">
        <g id="Grupo_87627" data-name="Grupo 87627" opacity="0.47">
          <circle id="Elipse_7271" data-name="Elipse 7271" cx="20.58" cy="20.58" r="20.58" transform="translate(600.95 212.33)" fill="#36dac9"/>
        </g>
        <circle id="Elipse_7272" data-name="Elipse 7272" cx="16" cy="16" r="16" transform="translate(605.53 216.91)" fill="#36dac9"/>
      </g>
      <g id="Grupo_87629" data-name="Grupo 87629">
        <path id="Trazado_160411" data-name="Trazado 160411" d="M9.688-6.572H3.525v5.039h7.158V0H1.65V-14.219h8.936v1.533H3.525v4.58H9.688ZM14.7,0H12.891V-15H14.7Zm9.541-10.566.049,1.172a3.9,3.9,0,0,1,3.135-1.367,3.021,3.021,0,0,1,3.018,1.7,4,4,0,0,1,1.372-1.23,4.052,4.052,0,0,1,2-.469q3.477,0,3.535,3.682V0H35.537V-6.973a2.426,2.426,0,0,0-.518-1.694,2.279,2.279,0,0,0-1.738-.562,2.4,2.4,0,0,0-1.67.6,2.436,2.436,0,0,0-.771,1.616V0H29.023V-6.924a2.016,2.016,0,0,0-2.256-2.3,2.417,2.417,0,0,0-2.432,1.514V0H22.529V-10.566ZM44.453.2a4.617,4.617,0,0,1-3.5-1.411A5.237,5.237,0,0,1,39.609-4.99v-.332a6.341,6.341,0,0,1,.6-2.808,4.685,4.685,0,0,1,1.68-1.934,4.223,4.223,0,0,1,2.339-.7,3.957,3.957,0,0,1,3.2,1.357,5.877,5.877,0,0,1,1.143,3.887v.752H41.416a3.756,3.756,0,0,0,.913,2.524,2.87,2.87,0,0,0,2.222.962,3.147,3.147,0,0,0,1.621-.391,4.073,4.073,0,0,0,1.162-1.035l1.1.859A4.437,4.437,0,0,1,44.453.2Zm-.225-9.473a2.41,2.41,0,0,0-1.836.8,3.868,3.868,0,0,0-.918,2.231h5.293v-.137a3.441,3.441,0,0,0-.742-2.134A2.269,2.269,0,0,0,44.229-9.277ZM45.107-15h2.188l-2.617,2.871-1.455,0Zm8.008,1.875v2.559h1.973v1.4H53.115v6.561a1.467,1.467,0,0,0,.264.953,1.11,1.11,0,0,0,.9.318,4.374,4.374,0,0,0,.859-.117V0A5.268,5.268,0,0,1,53.75.2a2.25,2.25,0,0,1-1.826-.732,3.147,3.147,0,0,1-.615-2.08V-9.17H49.385v-1.4h1.924v-2.559Zm3.208,7.744a6.241,6.241,0,0,1,.61-2.793,4.553,4.553,0,0,1,1.7-1.914,4.626,4.626,0,0,1,2.485-.674A4.456,4.456,0,0,1,64.61-9.268a5.748,5.748,0,0,1,1.333,3.975v.127A6.3,6.3,0,0,1,65.352-2.4,4.486,4.486,0,0,1,63.662-.488,4.679,4.679,0,0,1,61.138.2,4.445,4.445,0,0,1,57.656-1.3a5.719,5.719,0,0,1-1.333-3.955Zm1.816.215a4.52,4.52,0,0,0,.815,2.822,2.61,2.61,0,0,0,2.183,1.064,2.594,2.594,0,0,0,2.188-1.079,4.943,4.943,0,0,0,.811-3.022A4.513,4.513,0,0,0,63.311-8.2a2.623,2.623,0,0,0-2.192-1.079A2.594,2.594,0,0,0,58.96-8.213,4.906,4.906,0,0,0,58.14-5.166Zm9.629-.205a6.19,6.19,0,0,1,1.152-3.911,3.644,3.644,0,0,1,3.018-1.479,3.665,3.665,0,0,1,2.939,1.27V-15h1.807V0h-1.66l-.088-1.133A3.679,3.679,0,0,1,71.919.2a3.609,3.609,0,0,1-2.993-1.5,6.26,6.26,0,0,1-1.157-3.926Zm1.807.205a4.687,4.687,0,0,0,.742,2.813,2.4,2.4,0,0,0,2.051,1.016,2.636,2.636,0,0,0,2.51-1.543V-7.734a2.656,2.656,0,0,0-2.49-1.494A2.411,2.411,0,0,0,70.318-8.2,5.16,5.16,0,0,0,69.575-5.166Zm9.434-.215a6.241,6.241,0,0,1,.61-2.793,4.553,4.553,0,0,1,1.7-1.914,4.626,4.626,0,0,1,2.485-.674A4.456,4.456,0,0,1,87.3-9.268a5.748,5.748,0,0,1,1.333,3.975v.127A6.3,6.3,0,0,1,88.037-2.4,4.486,4.486,0,0,1,86.348-.488,4.679,4.679,0,0,1,83.823.2,4.445,4.445,0,0,1,80.342-1.3a5.719,5.719,0,0,1-1.333-3.955Zm1.816.215a4.52,4.52,0,0,0,.815,2.822,2.61,2.61,0,0,0,2.183,1.064,2.594,2.594,0,0,0,2.188-1.079,4.943,4.943,0,0,0,.811-3.022A4.513,4.513,0,0,0,86-8.2,2.623,2.623,0,0,0,83.8-9.277a2.594,2.594,0,0,0-2.158,1.064A4.906,4.906,0,0,0,80.825-5.166Zm16.729-5.4.059,1.328a3.85,3.85,0,0,1,3.164-1.523q3.35,0,3.379,3.779V0h-1.807V-6.992a2.432,2.432,0,0,0-.522-1.689,2.094,2.094,0,0,0-1.6-.547,2.607,2.607,0,0,0-1.543.469,3.183,3.183,0,0,0-1.035,1.23V0H95.845V-10.566ZM111.265.2a4.617,4.617,0,0,1-3.5-1.411,5.237,5.237,0,0,1-1.348-3.774v-.332a6.341,6.341,0,0,1,.6-2.808,4.685,4.685,0,0,1,1.68-1.934,4.223,4.223,0,0,1,2.339-.7,3.957,3.957,0,0,1,3.2,1.357,5.877,5.877,0,0,1,1.143,3.887v.752h-7.158a3.756,3.756,0,0,0,.913,2.524,2.87,2.87,0,0,0,2.222.962,3.147,3.147,0,0,0,1.621-.391,4.073,4.073,0,0,0,1.162-1.035l1.1.859A4.437,4.437,0,0,1,111.265.2Zm-.225-9.473a2.41,2.41,0,0,0-1.836.8,3.869,3.869,0,0,0-.918,2.231h5.293v-.137a3.441,3.441,0,0,0-.742-2.134A2.269,2.269,0,0,0,111.04-9.277Zm9.98,2.568,2.344-3.857h2.109l-3.457,5.225L125.581,0h-2.09L121.05-3.955,118.609,0h-2.1l3.564-5.342-3.457-5.225h2.09Zm8.818-6.416v2.559h1.973v1.4h-1.973v6.561a1.467,1.467,0,0,0,.264.953,1.11,1.11,0,0,0,.9.318,4.374,4.374,0,0,0,.859-.117V0A5.268,5.268,0,0,1,130.474.2a2.25,2.25,0,0,1-1.826-.732,3.147,3.147,0,0,1-.615-2.08V-9.17h-1.924v-1.4h1.924v-2.559Zm4.014,7.354a15.1,15.1,0,0,1,.591-4.238,12.312,12.312,0,0,1,1.763-3.691,7.5,7.5,0,0,1,2.432-2.344l.371,1.191a7.778,7.778,0,0,0-2.339,3.34,14.479,14.479,0,0,0-1,5.029l-.01.83A14.554,14.554,0,0,0,137.036.889a7.815,7.815,0,0,0,1.973,2.6l-.371,1.1a7.74,7.74,0,0,1-2.48-2.422A13.574,13.574,0,0,1,133.853-5.771Zm11.074.1a15.106,15.106,0,0,1-.571,4.175,12.345,12.345,0,0,1-1.748,3.687,7.659,7.659,0,0,1-2.466,2.4l-.381-1.1a7.851,7.851,0,0,0,2.417-3.579,15.484,15.484,0,0,0,.933-5.386v-.312a16.077,16.077,0,0,0-.43-3.813,12.87,12.87,0,0,0-1.2-3.159,7.3,7.3,0,0,0-1.724-2.178l.381-1.1a7.629,7.629,0,0,1,2.456,2.383,12.371,12.371,0,0,1,1.748,3.682A15.454,15.454,0,0,1,144.927-5.674Z" transform="translate(651.8 452.95)" fill="#ffa726"/>
      </g>
      <g id="Grupo_87631" data-name="Grupo 87631">
        <g id="Grupo_87630" data-name="Grupo 87630" opacity="0.47">
          <circle id="Elipse_7273" data-name="Elipse 7273" cx="20.58" cy="20.58" r="20.58" transform="translate(597.4 426.88)" fill="#36dac9"/>
        </g>
        <circle id="Elipse_7274" data-name="Elipse 7274" cx="16" cy="16" r="16" transform="translate(601.98 431.46)" fill="#36dac9"/>
      </g>
    </g>
  </g>
</svg>
