<svg xmlns="http://www.w3.org/2000/svg" xmlns:xlink="http://www.w3.org/1999/xlink" width="520.657" height="533.647" viewBox="0 0 520.657 533.647">
  <defs>
    <clipPath id="clip-path">
      <path id="Trazado_160415" data-name="Trazado 160415" d="M340.09,486.4l-49.23,6.728,42.822,55,60.075-15.537Z" transform="translate(-290.86 -486.4)" fill="none"/>
    </clipPath>
    <linearGradient id="linear-gradient" x1="0.5" y1="1.193" x2="0.5" y2="0.125" gradientUnits="objectBoundingBox">
      <stop offset="0" stop-color="#b0d8ff"/>
      <stop offset="0.05" stop-color="#b6dbff"/>
      <stop offset="0.47" stop-color="#ddeefe"/>
      <stop offset="0.8" stop-color="#f5fafe"/>
      <stop offset="1" stop-color="#fefefe"/>
    </linearGradient>
    <clipPath id="clip-path-2">
      <path id="Trazado_160424" data-name="Trazado 160424" d="M475.064,572.635s8.006,4.911,9.293,8.544-3.743,5.55-5.477,5.769-39.089,9.822-40.266,10.142-6.81-1.4-8.316-5.824,2.127-22.694,8.745-24.83,35.994,6.2,35.994,6.2" transform="translate(-429.96 -566.086)" fill="none"/>
    </clipPath>
    <linearGradient id="linear-gradient-2" x1="0.5" y1="0.99" x2="0.5" y2="0.159" gradientUnits="objectBoundingBox">
      <stop offset="0" stop-color="#1e9ef9"/>
      <stop offset="1" stop-color="#bae5ff"/>
    </linearGradient>
    <clipPath id="clip-path-3">
      <path id="Trazado_160431" data-name="Trazado 160431" d="M426.655,492.542c-5.276,3.7-47.469,7.568-47.715,12.251-.11,2.136,35.026,23.068,38.34,25.094s9.5,3.524,14.734,1.707,38.87-14.551,40.85-17.344-2.081-9.329-2.081-9.329l-29.257-12.78Z" transform="translate(-378.94 -492.14)" fill="none"/>
    </clipPath>
    <linearGradient id="linear-gradient-3" x1="0.487" y1="0.857" x2="0.524" y2="-0.156" xlink:href="#linear-gradient"/>
    <clipPath id="clip-path-4">
      <path id="Trazado_160432" data-name="Trazado 160432" d="M504.459,485.954l-5.3,24.592s-.694,6.134-4.7,7.467a8.817,8.817,0,0,1-7.476-1.278L341.094,448.271s-1.707-.648-1.388-3.314c.073-.63,1.625-7.823,3.962-18.467Z" transform="translate(-339.666 -426.49)" fill="none"/>
    </clipPath>
    <linearGradient id="linear-gradient-4" x1="0.468" y1="0.924" x2="0.528" y2="0.137" xlink:href="#linear-gradient"/>
    <clipPath id="clip-path-5">
      <path id="Trazado_160433" data-name="Trazado 160433" d="M529.4,300.72,495.654,457.074,349.98,407.953l22.429-96.763Z" transform="translate(-349.98 -300.72)" fill="none"/>
    </clipPath>
    <linearGradient id="linear-gradient-5" x1="0.467" y1="0.85" x2="0.542" y2="0.046" gradientUnits="objectBoundingBox">
      <stop offset="0" stop-color="#243c82"/>
      <stop offset="1" stop-color="#1bc3f2"/>
    </linearGradient>
  </defs>
  <g id="img11" transform="translate(0 -21.84)">
    <g id="Grupo_87825" data-name="Grupo 87825" transform="translate(64.958 21.84)">
      <path id="Trazado_160396" data-name="Trazado 160396" d="M532.483,305.987C523.7,417.356,430.243,505.236,316.72,505.236V450.547c89.2,0,161.749-72.563,161.749-161.749,0,0-2.437-28.226-4.135-36.724l53.859-10.124h0C530.137,251.608,533.259,296.165,532.483,305.987Z" transform="translate(-92.558 -41.021)" fill="#12263f"/>
      <g id="Grupo_87821" data-name="Grupo 87821" transform="translate(223.687 34.588)">
        <path id="Trazado_160397" data-name="Trazado 160397" d="M452.59,235.385,560.1,205.9l-34.789,83.91Z" transform="translate(-328.085 -72.468)" fill="#4480bf"/>
        <path id="Trazado_160398" data-name="Trazado 160398" d="M468.1,220.575c-22.721-61.883-82.239-106.156-151.9-106.156V59.73c93.577,0,173.443,59.692,203.613,143Z" transform="translate(-316.2 -59.73)" fill="#4480bf"/>
      </g>
      <g id="Grupo_87822" data-name="Grupo 87822" transform="translate(53.453)">
        <path id="Trazado_160399" data-name="Trazado 160399" d="M280.574,151.228l71.221-77.912L260.92,21.84Z" transform="translate(-141.148 -21.84)" fill="#6de0d4"/>
        <path id="Trazado_160400" data-name="Trazado 160400" d="M170.871,166.2A161.859,161.859,0,0,1,292.7,110.859V56.17a216.491,216.491,0,0,0-162.986,74.017Z" transform="translate(-129.715 -24.832)" fill="#6de0d4"/>
      </g>
      <g id="Grupo_87823" data-name="Grupo 87823" transform="translate(0 88.848)">
        <path id="Trazado_160401" data-name="Trazado 160401" d="M95.661,381.371l49.523-23.2c-10.087-21.525-19.334-52.535-19.334-76.507A159.979,159.979,0,0,1,143.193,208.7c2-3.944,9.238-17.07,11.219-20.357l-46.784-28.3c-2.876,4.756-10.79,19.17-13.218,23.953a214.22,214.22,0,0,0-23.25,97.676C71.16,313.72,82.151,352.543,95.661,381.371Z" transform="translate(-71.159 -122.732)" fill="#039be5"/>
        <path id="Trazado_160402" data-name="Trazado 160402" d="M174.57,209.716,81.44,148.445l85.991-29.275Z" transform="translate(-72.055 -119.17)" fill="#039be5"/>
      </g>
      <g id="Grupo_87824" data-name="Grupo 87824" transform="translate(22.704 303.425)">
        <path id="Trazado_160403" data-name="Trazado 160403" d="M291.837,519.077h174.52V464.388H291.837A160.709,160.709,0,0,1,163.252,400.78L119.8,434A215,215,0,0,0,291.837,519.077Z" transform="translate(-98.101 -358.286)" fill="#024e73"/>
        <path id="Trazado_160404" data-name="Trazado 160404" d="M188.822,383.049,96.03,444.822l6.655-90.592Z" transform="translate(-96.03 -354.23)" fill="#024e73"/>
      </g>
    </g>
    <path id="Trazado_160405" data-name="Trazado 160405" d="M476.009,444.105C445.83,429.5,404.13,420.5,358.058,420.5s-87.78,9.019-117.959,23.606-48.692,34.6-48.692,56.716S210.011,543,240.1,557.546s71.888,23.606,117.959,23.606,87.771-9.028,117.95-23.606,48.7-34.6,48.7-56.725-18.613-42.174-48.7-56.716M358.058,419.65c46.2,0,88.045,9.056,118.334,23.734s49.185,35.008,49.185,57.51-18.8,42.795-49.185,57.51-72.116,23.734-118.334,23.734-88.045-9.056-118.343-23.734S190.54,523.4,190.54,500.894s18.8-42.795,49.176-57.51S311.85,419.65,358.058,419.65Z" transform="translate(-16.604 -34.666)" fill="#fff"/>
    <path id="Trazado_160406" data-name="Trazado 160406" d="M372.575,453.15c66.511,0,120.415,26.053,120.415,58.195s-53.9,58.195-120.415,58.195S252.16,543.486,252.16,511.345s53.913-58.195,120.415-58.195" transform="translate(-21.974 -37.585)" fill="#32c4b4" fill-rule="evenodd"/>
    <path id="Trazado_160407" data-name="Trazado 160407" d="M219.085,238.114a60.085,60.085,0,0,1,.21,13.885c-.639,7.686-1.068,13.246-.639,15.382s-2.83,6.463-3.651,8.006a6.317,6.317,0,0,0-.429,3.651l6.253,18.531a3.173,3.173,0,0,1-2.081,3.259,21.151,21.151,0,0,1-4.811,1.013c-.475-.055-3.578.046-3.578.046s1.232,7.7.749,8.5-2.739,1.168-4.427,2.027a3.752,3.752,0,0,0-2.036,2.136c4.026,7.778-.173,19.563-11.018,23.935-2.656,1.077-19.444-3.825-24.118-4.564,0,0-19.435,16.66-20.6,19.754a8.426,8.426,0,0,0-.329,5.477s6.2,13.456,5.769,16.87-7.3,4.92-7.3,4.92l-33.429-31.4L87.88,317.9s14.734-2.675,18.905-10.151,6.938-14.953,6.509-32.251,2.355-46.355,22.648-58.742c26.473-16.185,77.465-18.531,83.143,21.361" transform="translate(-7.658 -16.029)" fill="#fba2b4" fill-rule="evenodd"/>
    <path id="Trazado_160408" data-name="Trazado 160408" d="M228.163,239.447a33.291,33.291,0,0,1,.447,5.048c-9.466-.913-12.506-7.54-19.334-13.437-9.494-8.216-17.226.7-17.226.7l.119-3.049s12.652-7.5,14.058-7.622c1-.082,11.283,2.939,17.618,4.966a39.043,39.043,0,0,1,4.318,13.392" transform="translate(-16.736 -17.363)" fill="#f7839a" fill-rule="evenodd"/>
    <path id="Trazado_160409" data-name="Trazado 160409" d="M170.685,338.579l-1.214-.694s-19.407,16.66-20.6,19.754a8.426,8.426,0,0,0-.329,5.477s6.2,13.456,5.769,16.87-7.3,4.92-7.3,4.92l-33.429-31.4-25.7-31.64s14.734-2.675,18.905-10.151,6.938-14.953,6.509-32.251c-.064-2.656-.055-5.587.082-8.69l24.93-19.462s-2.163,11.128.721,18.257c1.15,2.839,10.544,20.786,15.92,15.272,2.081-2.136,2.556-2.611,1.762-5.176s2.739,2.456,2.027,4.856-2.264,8.1-2.793,8.636,15.017,41.562,15.017,41.562Z" transform="translate(-7.658 -19.997)" fill="#f7839a" fill-rule="evenodd"/>
    <path id="Trazado_160410" data-name="Trazado 160410" d="M176.13,345.9l-1.214-.694s-19.407,16.66-20.6,19.754a22.018,22.018,0,0,0-3.542,7.7c-1.826-7.759,2.83-16.632,7.367-22.821,2.885-3.953,6.682-13.2,6.682-13.2l7.2-1.324,2.465,1.7,1.917,5.085Z" transform="translate(-13.103 -27.317)" fill="#e8617c" fill-rule="evenodd"/>
    <path id="Trazado_160411" data-name="Trazado 160411" d="M227.615,275.533c-.584,1.114-1.762,3.2-2.337,4.108a5.02,5.02,0,0,0-1.415.21c-1.287.283-1.771,6.846-1.771,6.846l-1.333-2.666c-.5,6.3-4.674,11.283,1.214,15.172,0,0-1.168-.292-3.788.913s-2.127,4.281-2.127,4.281c-4.108-5.039,1.059-11.164.986-17.344-.091-8.462-11.146-13.693-20.284-17.025.557-.228,7.148.529,7.75.374,6.983-1.826,17.344.676,23.1,5.066" transform="translate(-17.146 -21.608)" fill="#f26d88" fill-rule="evenodd"/>
    <path id="Trazado_160412" data-name="Trazado 160412" d="M211.764,299.363c-9.01,1.187-21.963,2.218-30.645-9.585-12.835-17.463-8.636-41.864,4.117-48.117,1.57-.767,4.9-1.1,3.843-3.524-3.3-7.558-.055-12.78,4.172-13.83,14.031-3.432,21.041,14.451,28.4,12.214,3.816-1.159,9.941-4.363,12.552-11.064,2.154-5.477,1.7-14.378-2.419-17.91-3.7-3.186-12.953-5.231-17.709-10.124-9.868-10.142-18.257-17.682-33.776-20.083-19.572-3.049-40.248,1.388-54.726,13.693-32.762,27.915-17.965,52.946-16.066,94.609.484,10.425,19.06,1.561,21.909-4.692,2.638-5.751,3.551-12.835,4.729-19.909,1.5-8.973,3.843-21.1,10.954-21.735,23.734-2.118,21.041,37.135,5.021,52.544l3.423,3.095-3.2,2.036c-7.823,22.128,32.343,48.664,47.03,42.74,10.845-4.373,10.708-19.909,6.682-27.687a11.293,11.293,0,0,1,2.565-1.671c1.707-.849,3.423-1.7,3.9-2.492s-.749-8.5-.749-8.5" transform="translate(-9.11 -13.47)" fill="#12263f" fill-rule="evenodd"/>
    <path id="Trazado_160413" data-name="Trazado 160413" d="M161.118,266.419s-2.666,2.739-2.556,4.436,2.027,3.095,2.127,3.414a12.44,12.44,0,0,1-.849,2.62s-1.278-4.436-4.491-4.7c-3.651-.3-6.8-3.861-4.564-7.1,1.981-2.83,6.308-4.108,6.308-4.108a6.162,6.162,0,0,0,1.972-2.246c1.278-3.277-1.47-5.24-5.048-4.884-8.407.84-7.914,9.065-5.477,15.519a30.965,30.965,0,0,0,3.2,5.979s-6.682-5.66-6.463-14.149,4.747-11.429,6.883-11.867,6.837-.475,8.49,2.885,2.036,5.66.593,7.531-8.654,7.641-8.654,7.641-.429,1.433.484,1.543c1.6.192,3.2-2.93,8.006-2.456" transform="translate(-12.66 -19.806)" fill="#f2778f" fill-rule="evenodd"/>
    <path id="Trazado_160414" data-name="Trazado 160414" d="M290.835,493.77l-.265,1.388,43.2,56.1L386.2,537.8c.657,2.4,7.924,4.856,7.531-4.564Z" transform="translate(-25.321 -41.125)" fill="#369" fill-rule="evenodd"/>
    <g id="Grupo_87826" data-name="Grupo 87826" transform="translate(265.514 445.917)" clip-path="url(#clip-path)">
      <rect id="Rectángulo_37419" data-name="Rectángulo 37419" width="102.906" height="61.727" fill="url(#linear-gradient)"/>
    </g>
    <path id="Trazado_160416" data-name="Trazado 160416" d="M202.109,474.87s44.493,12.1,58.377,10.708,30.864-6.938,30.864-6.938l19.553-1.716c1.424-.119,2.821-.456,4.035.566,4.391,3.706,14.049,13.565,11.228,15.674a4.647,4.647,0,0,1-1.543.8s2.985,5.066,3.314,6.883-1.022,3.578-1.771,3.478-1.232,1.7-5.231-3.049-8.544-9.932-8.544-9.932c-2.383.146-17.143.4-18.367,1.981-.749.958-5.285,5.924-5.285,5.924l12.78,2.4s7.951.055,9.348,1.232,4.8,3.651,3.25,5.231-1.762,3.843-5.66,4.163-21.251-1.543-21.251-1.543c-10.753,3.907-15.519,1.378-24.994-4.217-21.324,0-44.337,2.739-65.726,4.227,0,0-4.208-.6-6.125-2.465s-4.007-13.09-.055-21.845a22.712,22.712,0,0,1,11.867-11.566" transform="translate(-16.388 -39.478)" fill="#fba2b4" fill-rule="evenodd"/>
    <path id="Trazado_160417" data-name="Trazado 160417" d="M312.9,511.69a5.158,5.158,0,0,1-4.464,2.574c-3.9.32-21.251-1.543-21.251-1.543-10.753,3.907-15.519,1.378-24.994-4.217-21.324,0-44.337,2.739-65.726,4.227,0,0-4.208-.6-6.125-2.465-1.251-1.214-2.556-6.39-2.255-12.2a28.183,28.183,0,0,1,9.786.858c10.47,2.456,18.047,1.5,26.473,2.739s32.032-.8,35.182-.584a26.353,26.353,0,0,1,6.682,1.6l4.856,2.136-.913-2.739s13.775,5.021,16.6,5.66,11.529.958,15.062,1.652,4.272-2.081,4.272-2.081a6.39,6.39,0,0,0,1.333,2.994c1.168,1.5,4.692,1.223,5.285,1.123Z" transform="translate(-16.386 -41.49)" fill="#f7839a" fill-rule="evenodd"/>
    <path id="Trazado_160418" data-name="Trazado 160418" d="M336.442,504.016c-.383.913-1.05,1.525-1.506,1.461-.739-.11-1.223,1.707-5.231-3.049s-8.544-9.932-8.544-9.932c-2.383.146-17.143.4-18.367,1.981-.749.958-5.285,5.924-5.285,5.924s-.475-.119-1.826-.411-6.992-2.063-6.992-2.063l4.911-4.053s5.715-4.564,12.5-5.185,15.327-.639,15.327-.639,10.79,13,11.557,14.314c.648,1.086,2.538,1.515,3.423,1.652" transform="translate(-25.157 -40.627)" fill="#f7839a" fill-rule="evenodd"/>
    <path id="Trazado_160419" data-name="Trazado 160419" d="M176.287,455.552s13.465,11.429,18.476,13.885a48.575,48.575,0,0,0,7.558,2.958c1.707.5,1.625,1.89,1.588,1.88a13.491,13.491,0,0,0-1.908-.447c-7.3,5.769-14.971,23.734-7.768,35.446,0,0-11.484.11-19.973-2.246s-9.028-4.053-9.028-4.053-11.055-29.056-2.739-39.947,13.775-7.476,13.775-7.476" transform="translate(-13.89 -37.751)" fill="#024e73" fill-rule="evenodd"/>
    <path id="Trazado_160420" data-name="Trazado 160420" d="M82.458,326.628a18.385,18.385,0,0,1,13.456,4.9c3.3,2.967,45.971,65.963,49.02,53.612.812-3.3-3.5-14.277-3.5-14.277a7.056,7.056,0,0,1-.858-3.734c.246-1.762.365-3.076,1.826-4.683s3.651-3.843,3.651-3.843,20.886,25.916,20.037,62.868-8.973,73.029-8.973,73.029l-20.932,87.424H0V405.663c0-24.017,45.278-71.869,82.458-79.035" transform="translate(0 -26.558)" fill="#02749e" fill-rule="evenodd"/>
    <path id="Trazado_160421" data-name="Trazado 160421" d="M170.637,467.212c-2.538,18.613-5.477,31.822-5.477,31.822l-4.309,17.992-18.038-3.341L91.41,378.373s10.954-2.456,23.177,7.047,16.431,36.952,16.87,40.166,3.651,6.618,6.39,10.89,7.476,22.538,7.8,28.408,12.3,14.451,16.587,17.728,8.325-14.989,8.417-15.4" transform="translate(-7.966 -31.044)" fill="#024e73" fill-rule="evenodd"/>
    <path id="Trazado_160422" data-name="Trazado 160422" d="M77.12,371.919c-20.722-1.068-51.476.219-57.035,37.382s10.68,102.34,32.9,136.116,32.47,40.531,32.47,40.531H223.479s1.068-30.17-.749-31.138-28.189-2.456-28.189-2.456l-6.518,1.707s.539-4.482-1.278-6.3-6.39-2.565-6.39-2.565,2.027-3.651-.539-9.074-5.231-6.2-5.231-6.2,3.122-3.414.237-8.115-6.536-4.911-6.536-4.911.42.429-1.388-3.314a10.169,10.169,0,0,0-5.559-4.911s-8.152-16.2-12.661-18.942-5.559-4.911-5.559-4.911-9.822-17.91-11.748-27.349,1.716-11.958-3.651-20.293-5.769-14.734-5.769-14.734c-2.556-24.282-18.4-49.157-44.858-50.527" transform="translate(-1.655 -30.487)" fill="#02749e" fill-rule="evenodd"/>
    <path id="Trazado_160423" data-name="Trazado 160423" d="M22.331,402.31a58.925,58.925,0,0,0-2.246,9.658c-5.55,37.172,10.68,102.34,32.9,136.116s32.47,40.531,32.47,40.531H223.479s.091-2.51.173-6.107c-11.046-.52-43.981-2.3-65.233-5.815-25.843-4.272-29.257-14.095-29.257-14.095l5.76-9.831-22.046,4.446,3.843-12.4C84.98,539,69.252,505.636,56.472,479.456L80.4,473.7c-30.252-12.652-54.872-36-58.085-71.385" transform="translate(-1.655 -33.155)" fill="#024e73" fill-rule="evenodd"/>
    <g id="Grupo_87827" data-name="Grupo 87827" transform="translate(392.492 518.659)" clip-path="url(#clip-path-2)">
      <rect id="Rectángulo_37420" data-name="Rectángulo 37420" width="56.816" height="33.109" transform="translate(-1.141 -1.786)" fill="url(#linear-gradient-2)"/>
    </g>
    <path id="Trazado_160425" data-name="Trazado 160425" d="M240.988,571.372s60.449,4.564,104.878-5.66,57.245-20.5,57.245-20.5,2.036-3.095,9.083-3.743,26.911-1.917,26.911-1.917l5.13,3.095,1.488,1.707,15.893,9.722a8.955,8.955,0,0,1,2.739,5.285c.694,3.651,1.826,9.129,1.826,9.129s-.639,3.651-2.4,3.9a7.568,7.568,0,0,1-3.953-.968,9.341,9.341,0,0,1-1.543,6.253c-2.027,2.6-5.66,7.8-5.66,7.8s-5.669-.749-6.2-4.437a8.562,8.562,0,0,1,2.027-6.463l-2.666-3.469-12.068.539-3.651,4.373,9.831-.21a6.335,6.335,0,0,1,3.149,5.285c.265,3.9.21,8.389.21,8.389s-4.007,5.66-4.327,5.87-3.651,1.278-3.651,1.278-3.651-2.291-3.578-3.651a19.166,19.166,0,0,0-.21-3.095,16.523,16.523,0,0,0-6.563,1.278c-18.558,7.02-21.836,6.929-41.763,7.084-3.4,0-9.987,2.364-14.095,2.364H237.62Z" transform="translate(-20.707 -45.115)" fill="#fba2b4" fill-rule="evenodd"/>
    <path id="Trazado_160426" data-name="Trazado 160426" d="M446.993,599.62c-.319.219-3.651,1.278-3.651,1.278s-3.651-2.291-3.578-3.651a19.166,19.166,0,0,0-.21-3.095,16.522,16.522,0,0,0-6.563,1.278c-18.558,7.02-21.836,6.929-41.763,7.084-3.4,0-9.987,2.364-14.095,2.364H329.39s20.083-6.792,26.811-8.4,27.44-4.8,27.44-4.8l-1.168-2.036s7.9-.849,12.5.539,11.739,5.021,15.692,5.021,21.909-4.564,28.947-5.559,6.837-.639,7.8,2.246-.411,7.759-.411,7.759" transform="translate(-28.704 -49.436)" fill="#f7839a" fill-rule="evenodd"/>
    <path id="Trazado_160427" data-name="Trazado 160427" d="M484.02,569.61s-.639,3.651-2.4,3.9a7.22,7.22,0,0,1-3.816-.913c-.374-.511-.584-.758-.584-.758a94.024,94.024,0,0,0-7.586-9.667c-3.469-3.651-5.824-4.482-6.992-4.7s-2.355,0-7.431,1.342-14.04,3.359-14.04,3.359l1.068-1.6s11.21-6.39,17.089-7.476c6.061-1.159,13.2,5.322,18.257,8.435,2.611,4.729,2.273,10.37,6.39,8.061" transform="translate(-38.445 -46.283)" fill="#f7839a" fill-rule="evenodd"/>
    <path id="Trazado_160428" data-name="Trazado 160428" d="M473.652,582.335c-1.826,2.529-3.852,5.4-3.852,5.4s-5.669-.749-6.2-4.436a8.563,8.563,0,0,1,2.027-6.463l-2.666-3.469-12.068.539-3.651,4.373-13.693-.913,3.651-3.1,10.151-5.714,15.519-2.4s10.79,7.851,11.484,10.1-.657,6.125-.657,6.125" transform="translate(-37.781 -47.433)" fill="#f7839a" fill-rule="evenodd"/>
    <path id="Trazado_160429" data-name="Trazado 160429" d="M538.134,284.566c8.5-.785,4.82,9.01,4.172,13.565L499.155,498.174s-.694,6.134-4.7,7.467a8.817,8.817,0,0,1-7.476-1.278L341.094,435.9s-1.707-.648-1.388-3.314,27.55-124.9,27.55-124.9c2.127-5.879,6.636-6.271,12.2-6.536Z" transform="translate(-29.599 -22.891)" fill="#104c82" fill-rule="evenodd"/>
    <path id="Trazado_160430" data-name="Trazado 160430" d="M426.943,494.393c-5.139,3.6-45.789,6.481-48.108,11a1.242,1.242,0,0,0-.046,1.1,6.664,6.664,0,0,0,1.141,1.287c5.413,4.856,34.643,22.118,37.637,23.953,3.3,2.027,9.5,3.524,14.734,1.707s38.869-14.606,40.85-17.344-2.081-9.32-2.081-9.32L441.813,494Z" transform="translate(-32.999 -41.145)" fill="#369" fill-rule="evenodd"/>
    <g id="Grupo_87828" data-name="Grupo 87828" transform="translate(345.918 451.157)" clip-path="url(#clip-path-3)">
      <rect id="Rectángulo_37421" data-name="Rectángulo 37421" width="96.014" height="41.334" transform="translate(-0.109 -0.064)" fill="url(#linear-gradient-3)"/>
    </g>
    <g id="Grupo_87829" data-name="Grupo 87829" transform="translate(310.067 391.228)" clip-path="url(#clip-path-4)">
      <rect id="Rectángulo_37422" data-name="Rectángulo 37422" width="165.072" height="92.856" transform="translate(-0.28 0.009)" fill="url(#linear-gradient-4)"/>
    </g>
    <g id="Grupo_87830" data-name="Grupo 87830" transform="translate(319.482 276.418)" clip-path="url(#clip-path-5)">
      <rect id="Rectángulo_37423" data-name="Rectángulo 37423" width="179.422" height="156.354" fill="url(#linear-gradient-5)"/>
    </g>
    <path id="Trazado_160434" data-name="Trazado 160434" d="M367.111,366.33,357.07,408.842l82.23,28.2,11.968-57.893Z" transform="translate(-31.116 -30.02)" fill="#1bbeee" fill-rule="evenodd"/>
    <path id="Trazado_160435" data-name="Trazado 160435" d="M369.64,332.975l17.2.548,136.783,4.354,1.47-6.81L370.617,328.73Z" transform="translate(-32.211 -26.743)" fill="#369" fill-rule="evenodd"/>
    <path id="Trazado_160436" data-name="Trazado 160436" d="M455.93,415.06l-7.33,33.21,53.475,18.038,8.325-37.363Z" transform="translate(-39.092 -34.266)" fill="#1bbeee" fill-rule="evenodd"/>
    <path id="Trazado_160437" data-name="Trazado 160437" d="M369.729,359.37,368.77,363l60.659,8.709.749-4.911Z" transform="translate(-32.136 -29.413)" fill="#9ff" fill-rule="evenodd"/>
    <path id="Trazado_160438" data-name="Trazado 160438" d="M424.306,323.045l-.666,4.217,30.444.475.712-4.747Z" transform="translate(-36.917 -26.243)" fill="#9ff" fill-rule="evenodd"/>
    <path id="Trazado_160439" data-name="Trazado 160439" d="M478.923,423.37l-1.013,4.592,30.015,8.17,1.333-5.176Z" transform="translate(-41.646 -34.99)" fill="#369" fill-rule="evenodd"/>
    <path id="Trazado_160440" data-name="Trazado 160440" d="M477.4,430.68l-1.013,4.592,29.96,8.371,1.333-5.176Z" transform="translate(-41.514 -35.627)" fill="#369" fill-rule="evenodd"/>
    <path id="Trazado_160441" data-name="Trazado 160441" d="M475.883,438l-1.013,4.592,29.85,8.754,1.333-5.185Z" transform="translate(-41.381 -36.265)" fill="#369" fill-rule="evenodd"/>
    <path id="Trazado_160442" data-name="Trazado 160442" d="M474.363,445.31,473.35,449.9l29.741,8.809,1.333-5.176Z" transform="translate(-41.249 -36.902)" fill="#369" fill-rule="evenodd"/>
    <path id="Trazado_160443" data-name="Trazado 160443" d="M506.786,309.072l-.666,4.217,30.444-1.223.721-4.756Z" transform="translate(-44.105 -24.877)" fill="#9ff" fill-rule="evenodd"/>
    <path id="Trazado_160444" data-name="Trazado 160444" d="M466.523,361.83l-1.013,4.592,55.748,5.924.958-5.212Z" transform="translate(-40.566 -29.628)" fill="#1bbeee" fill-rule="evenodd"/>
    <path id="Trazado_160445" data-name="Trazado 160445" d="M470.613,340.54l-1.013,4.592,56.232,3.177.958-5.313Z" transform="translate(-40.922 -27.772)" fill="#1bbeee" fill-rule="evenodd"/>
    <path id="Trazado_160446" data-name="Trazado 160446" d="M412.773,421.83l-1.013,4.592,29.841,8.937,1.333-5.176Z" transform="translate(-35.882 -34.856)" fill="#369" fill-rule="evenodd"/>
    <path id="Trazado_160447" data-name="Trazado 160447" d="M394.579,323.517l-.529,3.35,24.172.383.566-3.77Z" transform="translate(-34.339 -26.286)" fill="#9ff" fill-rule="evenodd"/>
    <path id="Trazado_160448" data-name="Trazado 160448" d="M463.647,381.22l-5.587,27.212,53.293,12.953,6.992-32.516Z" transform="translate(-39.917 -31.317)" fill="#1bbeee" fill-rule="evenodd"/>
    <path id="Trazado_160449" data-name="Trazado 160449" d="M228.3,271.985,216.7,296.212a.977.977,0,0,1-1.442-.913c-.447-4.7,6.162-17.034,1.826-18.2-1.305-.356-39.472-14.268-39.472-14.268s-5.194-3.3-5.194-4.163,2.163-.767,2.163-.767l46.693,16.066s1.771-.739,3.314-1.5a6.691,6.691,0,0,1,3.067-.849,2.255,2.255,0,0,1,.639.338" transform="translate(-15.025 -20.571)" fill="#104c82" fill-rule="evenodd"/>
  </g>
</svg>
