<svg xmlns="http://www.w3.org/2000/svg" width="822.5" height="316.714" viewBox="0 0 822.5 316.714">
  <g id="img20" transform="translate(-203.6 -92.536)">
    <g id="Capa_1" data-name="Capa 1">
      <g id="Grupo_87024" data-name="Grupo 87024">
        <g id="Grupo_87014" data-name="Grupo 87014">
          <line id="Línea_523" data-name="Línea 523" x2="109.89" transform="translate(339.85 156.92)" fill="none" stroke="#024e73" stroke-miterlimit="10" stroke-width="32"/>
          <path id="Trazado_158220" data-name="Trazado 158220" d="M439.47,192.03l60.79-35.1-60.79-35.11Z" fill="#024e73"/>
        </g>
        <g id="Grupo_87015" data-name="Grupo 87015">
          <line id="Línea_524" data-name="Línea 524" x2="58.12" transform="translate(726.59 156.92)" fill="none" stroke="#024e73" stroke-miterlimit="10" stroke-width="32"/>
          <path id="Trazado_158221" data-name="Trazado 158221" d="M736.86,192.03l-60.79-35.1,60.79-35.11Z" fill="#024e73"/>
          <path id="Trazado_158222" data-name="Trazado 158222" d="M774.43,192.03l60.79-35.1-60.79-35.11Z" fill="#024e73"/>
        </g>
        <g id="Grupo_87016" data-name="Grupo 87016">
          <line id="Línea_525" data-name="Línea 525" x1="109.9" transform="translate(390.36 374.15)" fill="none" stroke="#024e73" stroke-miterlimit="10" stroke-width="32"/>
          <path id="Trazado_158223" data-name="Trazado 158223" d="M400.63,339.05l-60.78,35.09,60.78,35.11Z" fill="#024e73"/>
        </g>
        <g id="Grupo_87017" data-name="Grupo 87017">
          <line id="Línea_526" data-name="Línea 526" y2="69.24" transform="translate(586.87 203.53)" fill="none" stroke="#024e73" stroke-miterlimit="10" stroke-width="32"/>
          <path id="Trazado_158224" data-name="Trazado 158224" d="M551.76,262.5l35.1,60.79,35.11-60.79Z" fill="#024e73"/>
        </g>
        <rect id="Rectángulo_37155" data-name="Rectángulo 37155" width="118.12" height="55.6" rx="7.47" transform="translate(203.6 225.46)" fill="#36dac9"/>
        <path id="Trazado_160526" data-name="Trazado 160526" d="M10.907-.562A7.881,7.881,0,0,1,7.2.225,5.984,5.984,0,0,1,2.6-1.621,6.811,6.811,0,0,1,.881-6.465a7.139,7.139,0,0,1,1.94-5.21A6.583,6.583,0,0,1,7.74-13.662a7.887,7.887,0,0,1,3.167.553v1.677a6.423,6.423,0,0,0-3.186-.806,4.889,4.889,0,0,0-3.753,1.546A5.824,5.824,0,0,0,2.53-6.559,5.542,5.542,0,0,0,3.875-2.647,4.575,4.575,0,0,0,7.4-1.19a6.618,6.618,0,0,0,3.5-.9ZM14.973,0H13.437V-14.205h1.537Zm3.9-12.031a.974.974,0,0,1-.7-.281.949.949,0,0,1-.29-.712.964.964,0,0,1,.29-.717.965.965,0,0,1,.7-.286.992.992,0,0,1,.717.286.956.956,0,0,1,.3.717.95.95,0,0,1-.3.7A.984.984,0,0,1,18.871-12.031ZM19.621,0H18.084V-9.6h1.537ZM30.444-4.413H23.669a3.589,3.589,0,0,0,.862,2.474,2.972,2.972,0,0,0,2.268.871,4.714,4.714,0,0,0,2.98-1.068V-.693a5.569,5.569,0,0,1-3.345.918,4.055,4.055,0,0,1-3.2-1.307A5.35,5.35,0,0,1,22.076-4.76a5.247,5.247,0,0,1,1.27-3.65A4.071,4.071,0,0,1,26.5-9.82,3.607,3.607,0,0,1,29.413-8.6a5.079,5.079,0,0,1,1.031,3.383Zm-1.574-1.3a3.127,3.127,0,0,0-.642-2.071,2.187,2.187,0,0,0-1.757-.74,2.482,2.482,0,0,0-1.846.778,3.529,3.529,0,0,0-.937,2.033ZM40.732,0H39.2V-5.472q0-3.055-2.23-3.055a2.419,2.419,0,0,0-1.907.867A3.213,3.213,0,0,0,34.3-5.472V0H32.767V-9.6H34.3V-8h.037A3.463,3.463,0,0,1,37.49-9.82,2.935,2.935,0,0,1,39.9-8.8a4.529,4.529,0,0,1,.834,2.938Zm7.346-.094a2.963,2.963,0,0,1-1.434.3q-2.521,0-2.521-2.811V-8.283H42.475V-9.6h1.649v-2.343l1.537-.5V-9.6h2.417v1.312H45.661v5.407A2.241,2.241,0,0,0,45.989-1.5a1.309,1.309,0,0,0,1.087.412,1.616,1.616,0,0,0,1-.319Zm9.574-4.32H50.877a3.589,3.589,0,0,0,.862,2.474,2.972,2.972,0,0,0,2.268.871,4.714,4.714,0,0,0,2.98-1.068V-.693a5.569,5.569,0,0,1-3.345.918,4.055,4.055,0,0,1-3.2-1.307A5.35,5.35,0,0,1,49.284-4.76a5.247,5.247,0,0,1,1.27-3.65,4.071,4.071,0,0,1,3.153-1.41A3.607,3.607,0,0,1,56.621-8.6a5.079,5.079,0,0,1,1.031,3.383Zm-1.574-1.3a3.127,3.127,0,0,0-.642-2.071,2.187,2.187,0,0,0-1.757-.74,2.482,2.482,0,0,0-1.846.778A3.529,3.529,0,0,0,50.9-5.716Z" transform="translate(234.56 256.92)" fill="#12263f"/>
        <path id="Trazado_160527" data-name="Trazado 160527" d="M13.063,0H10.914L8.336-4.318a9.4,9.4,0,0,0-.687-1.026,3.919,3.919,0,0,0-.682-.693,2.363,2.363,0,0,0-.752-.392,3.092,3.092,0,0,0-.908-.124H3.824V0H2.02V-15.4h4.6a6.552,6.552,0,0,1,1.864.252,4.17,4.17,0,0,1,1.482.768,3.569,3.569,0,0,1,.983,1.284,4.257,4.257,0,0,1,.354,1.8,4.333,4.333,0,0,1-.242,1.477,3.858,3.858,0,0,1-.687,1.2,4.167,4.167,0,0,1-1.074.9,5.484,5.484,0,0,1-1.413.575v.043a3.249,3.249,0,0,1,.671.392A3.7,3.7,0,0,1,9.1-6.2a6.9,6.9,0,0,1,.51.682q.252.381.564.886ZM3.824-13.771v5.586H6.273a3.715,3.715,0,0,0,1.251-.2,2.9,2.9,0,0,0,.994-.585,2.655,2.655,0,0,0,.655-.935A3.129,3.129,0,0,0,9.41-11.15a2.415,2.415,0,0,0-.8-1.928,3.438,3.438,0,0,0-2.315-.693ZM23.139-5.06H15.372a4.114,4.114,0,0,0,.988,2.836,3.407,3.407,0,0,0,2.6,1,5.4,5.4,0,0,0,3.416-1.225V-.795A6.384,6.384,0,0,1,18.541.258a4.649,4.649,0,0,1-3.663-1.5,6.134,6.134,0,0,1-1.332-4.216A6.015,6.015,0,0,1,15-9.641a4.667,4.667,0,0,1,3.615-1.617,4.136,4.136,0,0,1,3.341,1.4,5.822,5.822,0,0,1,1.182,3.878Zm-1.8-1.493A3.584,3.584,0,0,0,20.6-8.927a2.507,2.507,0,0,0-2.014-.849,2.846,2.846,0,0,0-2.116.892,4.046,4.046,0,0,0-1.074,2.331ZM35.191,5.06H33.43v-6.95h-.043A3.942,3.942,0,0,1,29.627.258,4.14,4.14,0,0,1,26.3-1.219a6.024,6.024,0,0,1-1.251-4.023A6.588,6.588,0,0,1,26.426-9.62a4.576,4.576,0,0,1,3.7-1.638,3.469,3.469,0,0,1,3.266,1.783h.043V-11h1.762ZM33.43-4.952v-1.6a3.2,3.2,0,0,0-.886-2.288,2.967,2.967,0,0,0-2.25-.935A3.025,3.025,0,0,0,27.779-8.6a5.251,5.251,0,0,0-.924,3.314A4.548,4.548,0,0,0,27.747-2.3a2.845,2.845,0,0,0,2.3,1.08,3.1,3.1,0,0,0,2.465-1.058A3.926,3.926,0,0,0,33.43-4.952ZM47.652,0H45.891V-1.74h-.043a3.618,3.618,0,0,1-3.395,2q-3.932,0-3.932-4.684V-11h1.751v6.295q0,3.48,2.664,3.48a2.7,2.7,0,0,0,2.122-.951,3.638,3.638,0,0,0,.833-2.487V-11h1.762Zm12.4-5.06H52.282a4.114,4.114,0,0,0,.988,2.836,3.407,3.407,0,0,0,2.6,1,5.4,5.4,0,0,0,3.416-1.225V-.795A6.384,6.384,0,0,1,55.451.258a4.649,4.649,0,0,1-3.663-1.5,6.134,6.134,0,0,1-1.332-4.216,6.015,6.015,0,0,1,1.456-4.184,4.667,4.667,0,0,1,3.615-1.617,4.136,4.136,0,0,1,3.341,1.4,5.822,5.822,0,0,1,1.182,3.878Zm-1.8-1.493a3.584,3.584,0,0,0-.736-2.374,2.507,2.507,0,0,0-2.014-.849,2.846,2.846,0,0,0-2.116.892A4.046,4.046,0,0,0,52.3-6.553ZM62.047-.4V-2.288a5.214,5.214,0,0,0,3.169,1.063q2.32,0,2.32-1.547a1.342,1.342,0,0,0-.2-.747,1.981,1.981,0,0,0-.537-.542,4.134,4.134,0,0,0-.795-.424q-.457-.188-.983-.392a12.659,12.659,0,0,1-1.284-.585,3.878,3.878,0,0,1-.924-.666,2.478,2.478,0,0,1-.559-.843,2.983,2.983,0,0,1-.188-1.106,2.628,2.628,0,0,1,.354-1.37,3.143,3.143,0,0,1,.945-1,4.408,4.408,0,0,1,1.348-.607,5.98,5.98,0,0,1,1.563-.2,6.311,6.311,0,0,1,2.557.494V-8.98a4.983,4.983,0,0,0-2.793-.795,3.265,3.265,0,0,0-.892.113,2.183,2.183,0,0,0-.682.317,1.464,1.464,0,0,0-.44.489,1.288,1.288,0,0,0-.156.628,1.507,1.507,0,0,0,.156.72,1.584,1.584,0,0,0,.457.516,3.49,3.49,0,0,0,.73.408q.43.183.978.4a13.605,13.605,0,0,1,1.311.575,4.5,4.5,0,0,1,.988.666,2.6,2.6,0,0,1,.628.854,2.754,2.754,0,0,1,.22,1.149,2.71,2.71,0,0,1-.36,1.418,3.084,3.084,0,0,1-.961,1,4.4,4.4,0,0,1-1.386.591A6.842,6.842,0,0,1,64.99.258,6.241,6.241,0,0,1,62.047-.4Zm15.1.29a3.4,3.4,0,0,1-1.644.344q-2.89,0-2.89-3.223V-9.5H70.727V-11h1.891v-2.686l1.762-.569V-11H77.15v1.5H74.379v6.2a2.57,2.57,0,0,0,.376,1.579A1.5,1.5,0,0,0,76-1.246a1.852,1.852,0,0,0,1.149-.365Z" transform="translate(370.78 107.94)" fill="#12263f"/>
        <rect id="Rectángulo_37156" data-name="Rectángulo 37156" width="137.14" height="73.2" rx="7.47" transform="translate(512.65 124.25)" fill="#1565b2"/>
        <g id="Grupo">
          <path id="Trazado_160520" data-name="Trazado 160520" d="M10.907-.562A7.881,7.881,0,0,1,7.2.225,5.984,5.984,0,0,1,2.6-1.621,6.811,6.811,0,0,1,.881-6.465a7.139,7.139,0,0,1,1.94-5.21A6.583,6.583,0,0,1,7.74-13.662a7.887,7.887,0,0,1,3.167.553v1.677a6.423,6.423,0,0,0-3.186-.806,4.889,4.889,0,0,0-3.753,1.546A5.824,5.824,0,0,0,2.53-6.559,5.542,5.542,0,0,0,3.875-2.647,4.575,4.575,0,0,0,7.4-1.19a6.618,6.618,0,0,0,3.5-.9Z" transform="translate(532.39 155.6)" fill="#fff"/>
          <path id="Trazado_160519" data-name="Trazado 160519" d="M5.566.225a4.451,4.451,0,0,1-3.4-1.345A4.98,4.98,0,0,1,.9-4.685,5.188,5.188,0,0,1,2.221-8.461,4.75,4.75,0,0,1,5.791-9.82,4.3,4.3,0,0,1,9.141-8.5a5.239,5.239,0,0,1,1.2,3.664,5.155,5.155,0,0,1-1.3,3.678A4.547,4.547,0,0,1,5.566.225Zm.112-8.752A2.923,2.923,0,0,0,3.336-7.52a4.137,4.137,0,0,0-.862,2.778,3.912,3.912,0,0,0,.871,2.689,2.962,2.962,0,0,0,2.333.984,2.809,2.809,0,0,0,2.291-.965,4.188,4.188,0,0,0,.8-2.745,4.26,4.26,0,0,0-.8-2.774A2.8,2.8,0,0,0,5.678-8.527Z" transform="translate(543.31 155.6)" fill="#fff"/>
          <path id="Trazado_160518" data-name="Trazado 160518" d="M9.52,0H7.983V-5.472q0-3.055-2.23-3.055a2.419,2.419,0,0,0-1.907.867,3.213,3.213,0,0,0-.754,2.188V0H1.555V-9.6H3.092V-8H3.13A3.463,3.463,0,0,1,6.278-9.82,2.935,2.935,0,0,1,8.686-8.8,4.529,4.529,0,0,1,9.52-5.866Z" transform="translate(553.85 155.6)" fill="#fff"/>
          <path id="Trazado_160517" data-name="Trazado 160517" d="M6.006-.094a2.963,2.963,0,0,1-1.434.3Q2.052.206,2.052-2.6V-8.283H.4V-9.6H2.052v-2.343l1.537-.5V-9.6H6.006v1.312H3.589v5.407A2.241,2.241,0,0,0,3.917-1.5,1.309,1.309,0,0,0,5-1.087a1.616,1.616,0,0,0,1-.319Z" transform="translate(564.42 155.6)" fill="#fff"/>
          <path id="Trazado_160516" data-name="Trazado 160516" d="M6.559-8.04A1.879,1.879,0,0,0,5.4-8.349a1.961,1.961,0,0,0-1.644.928,4.289,4.289,0,0,0-.661,2.53V0H1.555V-9.6H3.092v1.977H3.13a3.35,3.35,0,0,1,1-1.579,2.286,2.286,0,0,1,1.509-.567,2.509,2.509,0,0,1,.918.131Z" transform="translate(570.78 155.6)" fill="#fff"/>
          <path id="Trazado_160515" data-name="Trazado 160515" d="M5.566.225a4.451,4.451,0,0,1-3.4-1.345A4.98,4.98,0,0,1,.9-4.685,5.188,5.188,0,0,1,2.221-8.461,4.75,4.75,0,0,1,5.791-9.82,4.3,4.3,0,0,1,9.141-8.5a5.239,5.239,0,0,1,1.2,3.664,5.155,5.155,0,0,1-1.3,3.678A4.547,4.547,0,0,1,5.566.225Zm.112-8.752A2.923,2.923,0,0,0,3.336-7.52a4.137,4.137,0,0,0-.862,2.778,3.912,3.912,0,0,0,.871,2.689,2.962,2.962,0,0,0,2.333.984,2.809,2.809,0,0,0,2.291-.965,4.188,4.188,0,0,0,.8-2.745,4.26,4.26,0,0,0-.8-2.774A2.8,2.8,0,0,0,5.678-8.527ZM14.336,0H12.8V-14.205h1.537Zm9.979,0H22.779V-1.5h-.037A3.217,3.217,0,0,1,19.79.225a3.154,3.154,0,0,1-2.244-.759,2.63,2.63,0,0,1-.811-2.015q0-2.689,3.167-3.13l2.877-.4q0-2.446-1.977-2.446a4.724,4.724,0,0,0-3.13,1.181V-8.92a5.946,5.946,0,0,1,3.261-.9q3.383,0,3.383,3.579ZM22.779-4.854l-2.314.319a3.758,3.758,0,0,0-1.612.529,1.527,1.527,0,0,0-.543,1.345,1.465,1.465,0,0,0,.5,1.148,1.937,1.937,0,0,0,1.335.445,2.466,2.466,0,0,0,1.888-.8A2.862,2.862,0,0,0,22.779-3.9ZM35.4,0H33.864V-1.63h-.037a3.547,3.547,0,0,1-3.3,1.855,3.584,3.584,0,0,1-2.891-1.288,5.285,5.285,0,0,1-1.082-3.509,5.75,5.75,0,0,1,1.2-3.814,3.956,3.956,0,0,1,3.2-1.434,3.076,3.076,0,0,1,2.877,1.555h.037v-5.941H35.4ZM33.864-4.338V-5.753A2.745,2.745,0,0,0,33.1-7.721a2.577,2.577,0,0,0-1.949-.806A2.654,2.654,0,0,0,28.935-7.5a4.517,4.517,0,0,0-.806,2.849A4.062,4.062,0,0,0,28.9-2.029a2.527,2.527,0,0,0,2.075.96A2.625,2.625,0,0,0,33.062-2,3.456,3.456,0,0,0,33.864-4.338ZM42.522.225a4.451,4.451,0,0,1-3.4-1.345,4.98,4.98,0,0,1-1.27-3.565,5.188,5.188,0,0,1,1.321-3.776,4.75,4.75,0,0,1,3.57-1.359A4.3,4.3,0,0,1,46.1-8.5a5.239,5.239,0,0,1,1.2,3.664A5.155,5.155,0,0,1,46-1.157,4.547,4.547,0,0,1,42.522.225Zm.112-8.752A2.923,2.923,0,0,0,40.292-7.52a4.137,4.137,0,0,0-.862,2.778A3.912,3.912,0,0,0,40.3-2.052a2.962,2.962,0,0,0,2.333.984,2.809,2.809,0,0,0,2.291-.965,4.188,4.188,0,0,0,.8-2.745,4.26,4.26,0,0,0-.8-2.774A2.8,2.8,0,0,0,42.634-8.527Zm12.125.487A1.879,1.879,0,0,0,53.6-8.349a1.961,1.961,0,0,0-1.644.928,4.289,4.289,0,0,0-.661,2.53V0H49.755V-9.6h1.537v1.977h.037a3.35,3.35,0,0,1,1-1.579,2.286,2.286,0,0,1,1.509-.567,2.509,2.509,0,0,1,.918.131Z" transform="translate(576.86 155.6)" fill="#fff"/>
          <path id="Trazado_160514" data-name="Trazado 160514" d="M5.585,3.055H4.217a11.974,11.974,0,0,1-2.9-8.18,12.428,12.428,0,0,1,2.9-8.311H5.6A12.628,12.628,0,0,0,2.661-5.144,12.407,12.407,0,0,0,5.585,3.055Zm1.181-3.4V-2a4.548,4.548,0,0,0,2.764.928q2.024,0,2.024-1.349a1.171,1.171,0,0,0-.173-.651,1.728,1.728,0,0,0-.469-.473,3.606,3.606,0,0,0-.693-.37q-.4-.164-.857-.342a11.042,11.042,0,0,1-1.12-.511,3.383,3.383,0,0,1-.806-.581,2.162,2.162,0,0,1-.487-.736,2.6,2.6,0,0,1-.164-.965,2.293,2.293,0,0,1,.309-1.195,2.742,2.742,0,0,1,.825-.871,3.845,3.845,0,0,1,1.176-.529,5.216,5.216,0,0,1,1.363-.178,5.5,5.5,0,0,1,2.23.431v1.555a4.346,4.346,0,0,0-2.436-.693,2.848,2.848,0,0,0-.778.1,1.9,1.9,0,0,0-.6.276,1.277,1.277,0,0,0-.384.426,1.123,1.123,0,0,0-.136.548,1.315,1.315,0,0,0,.136.628,1.382,1.382,0,0,0,.4.45,3.044,3.044,0,0,0,.637.356q.375.159.853.347a11.867,11.867,0,0,1,1.143.5,3.921,3.921,0,0,1,.862.581,2.27,2.27,0,0,1,.548.745,2.4,2.4,0,0,1,.192,1,2.364,2.364,0,0,1-.314,1.237,2.69,2.69,0,0,1-.839.871,3.841,3.841,0,0,1-1.209.515A5.968,5.968,0,0,1,9.333.225,5.444,5.444,0,0,1,6.765-.347ZM23.2-4.413H16.426a3.589,3.589,0,0,0,.862,2.474,2.972,2.972,0,0,0,2.268.871,4.714,4.714,0,0,0,2.98-1.068V-.693A5.569,5.569,0,0,1,19.19.225a4.055,4.055,0,0,1-3.2-1.307A5.35,5.35,0,0,1,14.833-4.76,5.247,5.247,0,0,1,16.1-8.41a4.071,4.071,0,0,1,3.153-1.41A3.607,3.607,0,0,1,22.17-8.6,5.079,5.079,0,0,1,23.2-5.219Zm-1.574-1.3a3.127,3.127,0,0,0-.642-2.071,2.187,2.187,0,0,0-1.757-.74,2.482,2.482,0,0,0-1.846.778,3.529,3.529,0,0,0-.937,2.033Z" transform="translate(548.3 178.63)" fill="#fff"/>
          <path id="Trazado_160512" data-name="Trazado 160512" d="M6.559-8.04A1.879,1.879,0,0,0,5.4-8.349a1.961,1.961,0,0,0-1.644.928,4.289,4.289,0,0,0-.661,2.53V0H1.555V-9.6H3.092v1.977H3.13a3.35,3.35,0,0,1,1-1.579,2.286,2.286,0,0,1,1.509-.567,2.509,2.509,0,0,1,.918.131Z" transform="translate(570.97 178.63)" fill="#fff"/>
          <path id="Trazado_160513" data-name="Trazado 160513" d="M9.1-9.6,5.275,0H3.767L.131-9.6H1.818L4.254-2.624a6.257,6.257,0,0,1,.337,1.34h.037a6.336,6.336,0,0,1,.3-1.3L7.477-9.6ZM12.284,0H10.748V-14.205h1.537ZM23.107-4.413H16.332a3.589,3.589,0,0,0,.862,2.474,2.972,2.972,0,0,0,2.268.871,4.714,4.714,0,0,0,2.98-1.068V-.693A5.569,5.569,0,0,1,19.1.225a4.055,4.055,0,0,1-3.2-1.307A5.35,5.35,0,0,1,14.739-4.76a5.247,5.247,0,0,1,1.27-3.65,4.071,4.071,0,0,1,3.153-1.41A3.607,3.607,0,0,1,22.076-8.6a5.079,5.079,0,0,1,1.031,3.383Zm-1.574-1.3a3.127,3.127,0,0,0-.642-2.071,2.187,2.187,0,0,0-1.757-.74,2.482,2.482,0,0,0-1.846.778,3.529,3.529,0,0,0-.937,2.033ZM29.881-.094a2.963,2.963,0,0,1-1.434.3q-2.521,0-2.521-2.811V-8.283H24.278V-9.6h1.649v-2.343l1.537-.5V-9.6h2.417v1.312H27.464v5.407A2.241,2.241,0,0,0,27.792-1.5a1.309,1.309,0,0,0,1.087.412,1.616,1.616,0,0,0,1-.319Zm2.09,3.148H30.6a12.407,12.407,0,0,0,2.923-8.2,12.628,12.628,0,0,0-2.942-8.293h1.387a12.379,12.379,0,0,1,2.923,8.311A11.928,11.928,0,0,1,31.971,3.055Z" transform="translate(577.72 178.63)" fill="#fff"/>
        </g>
        <path id="Trazado_160505" data-name="Trazado 160505" d="M8.131,0H6.289V-13.915a4.263,4.263,0,0,1-.623.489,10.16,10.16,0,0,1-.921.545q-.511.27-1.078.505a7.835,7.835,0,0,1-1.106.371V-13.87a10.707,10.707,0,0,0,1.286-.455q.679-.286,1.336-.64t1.241-.741a9.852,9.852,0,0,0,1.011-.758h.7Z" transform="translate(398.78 164.04)" fill="#fff"/>
        <path id="Trazado_160507" data-name="Trazado 160507" d="M8.67-11.882a3.33,3.33,0,0,0-.23-1.292,2.558,2.558,0,0,0-.629-.915,2.577,2.577,0,0,0-.938-.545,3.672,3.672,0,0,0-1.168-.18,3.863,3.863,0,0,0-1.056.146,5.132,5.132,0,0,0-1.005.4,6.183,6.183,0,0,0-.943.618,6.814,6.814,0,0,0-.848.8v-1.977a5.507,5.507,0,0,1,1.735-1.151,6.109,6.109,0,0,1,2.342-.4,5.653,5.653,0,0,1,1.831.286,4.2,4.2,0,0,1,1.46.837,3.868,3.868,0,0,1,.971,1.359,4.583,4.583,0,0,1,.354,1.853,6.354,6.354,0,0,1-.219,1.729,5.349,5.349,0,0,1-.663,1.46A7.045,7.045,0,0,1,8.546-7.536a15.828,15.828,0,0,1-1.583,1.28q-1.134.809-1.87,1.381A8.266,8.266,0,0,0,3.925-3.8a3.112,3.112,0,0,0-.606,1,3.494,3.494,0,0,0-.174,1.151h8.019V0H1.224V-.8a6.645,6.645,0,0,1,.225-1.819A4.724,4.724,0,0,1,2.19-4.11,8.289,8.289,0,0,1,3.543-5.525q.837-.708,2.05-1.595a12.957,12.957,0,0,0,1.466-1.2,6.247,6.247,0,0,0,.949-1.146,4.114,4.114,0,0,0,.511-1.162A5.012,5.012,0,0,0,8.67-11.882Z" transform="translate(749.75 164.04)" fill="#fff"/>
        <path id="Trazado_160506" data-name="Trazado 160506" d="M10.7-4.56a4.7,4.7,0,0,1-.41,1.982A4.376,4.376,0,0,1,9.136-1.05a5.339,5.339,0,0,1-1.791.983,7.246,7.246,0,0,1-2.3.348A6.69,6.69,0,0,1,1.381-.6V-2.572A5.867,5.867,0,0,0,5.11-1.292,5.067,5.067,0,0,0,6.632-1.5,3.412,3.412,0,0,0,7.8-2.123,2.744,2.744,0,0,0,8.552-3.1a3.051,3.051,0,0,0,.264-1.292q0-3.156-4.492-3.156H2.987V-9.108H4.256q3.976,0,3.976-2.965,0-2.74-3.032-2.74A5.163,5.163,0,0,0,2-13.667v-1.786a7,7,0,0,1,3.661-.921,5.626,5.626,0,0,1,1.831.281,4.194,4.194,0,0,1,1.4.786,3.484,3.484,0,0,1,.9,1.213,3.744,3.744,0,0,1,.32,1.561A3.931,3.931,0,0,1,6.907-8.445V-8.4A5.081,5.081,0,0,1,8.423-8a4.046,4.046,0,0,1,1.2.8,3.579,3.579,0,0,1,.792,1.162A3.711,3.711,0,0,1,10.7-4.56Z" transform="translate(580.97 247.97)" fill="#fff"/>
        <path id="Trazado_160504" data-name="Trazado 160504" d="M9.546-16.1V-5.469h2.066v1.685H9.546V0H7.727V-3.785H.157V-5.379Q1.213-6.57,2.291-7.923t2.061-2.746q.983-1.393,1.819-2.78A25.4,25.4,0,0,0,7.581-16.1ZM2.235-5.469H7.727v-7.884q-.842,1.471-1.595,2.628T4.7-8.625q-.679.943-1.3,1.707T2.235-5.469Z" transform="translate(437.92 381.8)" fill="#fff"/>
        <rect id="Rectángulo_37157" data-name="Rectángulo 37157" width="137.14" height="73.2" rx="7.47" transform="translate(512.65 335.7)" fill="#ffa726"/>
        <g id="Grupo-2" data-name="Grupo">
          <path id="Trazado_160511" data-name="Trazado 160511" d="M11.75-13.437,6.775,0H5.041L.169-13.437H1.921L5.641-2.783a6.326,6.326,0,0,1,.272,1.19H5.95A5.837,5.837,0,0,1,6.259-2.8l3.795-10.635Z" transform="translate(561.55 367.05)" fill="#fff"/>
          <path id="Trazado_160510" data-name="Trazado 160510" d="M2.343-12.031a.974.974,0,0,1-.7-.281.949.949,0,0,1-.29-.712.964.964,0,0,1,.29-.717.965.965,0,0,1,.7-.286.992.992,0,0,1,.717.286.956.956,0,0,1,.3.717.95.95,0,0,1-.3.7A.984.984,0,0,1,2.343-12.031ZM3.092,0H1.555V-9.6H3.092Zm2.53-.347V-2a4.548,4.548,0,0,0,2.764.928q2.024,0,2.024-1.349a1.171,1.171,0,0,0-.173-.651,1.728,1.728,0,0,0-.469-.473,3.606,3.606,0,0,0-.693-.37q-.4-.164-.857-.342A11.042,11.042,0,0,1,7.1-4.765a3.383,3.383,0,0,1-.806-.581A2.162,2.162,0,0,1,5.8-6.081a2.6,2.6,0,0,1-.164-.965A2.293,2.293,0,0,1,5.95-8.241a2.742,2.742,0,0,1,.825-.871,3.845,3.845,0,0,1,1.176-.529A5.216,5.216,0,0,1,9.314-9.82a5.5,5.5,0,0,1,2.23.431v1.555a4.346,4.346,0,0,0-2.436-.693,2.848,2.848,0,0,0-.778.1,1.9,1.9,0,0,0-.6.276,1.277,1.277,0,0,0-.384.426,1.123,1.123,0,0,0-.136.548,1.315,1.315,0,0,0,.136.628,1.382,1.382,0,0,0,.4.45,3.044,3.044,0,0,0,.637.356q.375.159.853.347a11.867,11.867,0,0,1,1.143.5,3.921,3.921,0,0,1,.862.581,2.27,2.27,0,0,1,.548.745,2.4,2.4,0,0,1,.192,1,2.364,2.364,0,0,1-.314,1.237,2.69,2.69,0,0,1-.839.871A3.841,3.841,0,0,1,9.623.056,5.968,5.968,0,0,1,8.189.225,5.444,5.444,0,0,1,5.622-.347ZM18.8-.094a2.963,2.963,0,0,1-1.434.3q-2.521,0-2.521-2.811V-8.283H13.193V-9.6h1.649v-2.343l1.537-.5V-9.6H18.8v1.312H16.379v5.407A2.241,2.241,0,0,0,16.707-1.5a1.309,1.309,0,0,0,1.087.412,1.616,1.616,0,0,0,1-.319ZM27.717,0H26.18V-1.5h-.037A3.217,3.217,0,0,1,23.191.225a3.154,3.154,0,0,1-2.244-.759,2.63,2.63,0,0,1-.811-2.015q0-2.689,3.167-3.13l2.877-.4q0-2.446-1.977-2.446a4.724,4.724,0,0,0-3.13,1.181V-8.92a5.946,5.946,0,0,1,3.261-.9q3.383,0,3.383,3.579ZM26.18-4.854l-2.314.319a3.758,3.758,0,0,0-1.612.529,1.527,1.527,0,0,0-.543,1.345,1.465,1.465,0,0,0,.5,1.148,1.937,1.937,0,0,0,1.335.445,2.466,2.466,0,0,0,1.888-.8A2.862,2.862,0,0,0,26.18-3.9Z" transform="translate(571.95 367.05)" fill="#fff"/>
          <path id="Trazado_160509" data-name="Trazado 160509" d="M5.585,3.055H4.217a11.974,11.974,0,0,1-2.9-8.18,12.428,12.428,0,0,1,2.9-8.311H5.6A12.628,12.628,0,0,0,2.661-5.144,12.407,12.407,0,0,0,5.585,3.055Z" transform="translate(561.6 390.08)" fill="#fff"/>
          <path id="Trazado_160508" data-name="Trazado 160508" d="M5.2-4.816A6.005,6.005,0,0,1,4.188-1.1,3.234,3.234,0,0,1,1.48.225,3.2,3.2,0,0,1,.187,0V-1.555A2.188,2.188,0,0,0,1.5-1.19q2.127,0,2.127-3.607v-8.639H5.2ZM7.983-.543V-2.4a3.6,3.6,0,0,0,.764.506,6.187,6.187,0,0,0,.937.379,7.459,7.459,0,0,0,.989.239,5.512,5.512,0,0,0,.918.084,3.6,3.6,0,0,0,2.169-.539,1.822,1.822,0,0,0,.717-1.551,1.821,1.821,0,0,0-.239-.946,2.692,2.692,0,0,0-.661-.736,6.555,6.555,0,0,0-1-.637Q12-5.9,11.338-6.24q-.7-.356-1.312-.721a5.684,5.684,0,0,1-1.059-.806,3.361,3.361,0,0,1-.707-1A3.089,3.089,0,0,1,8-10.073a3.074,3.074,0,0,1,.4-1.6,3.456,3.456,0,0,1,1.059-1.12,4.8,4.8,0,0,1,1.495-.656,6.843,6.843,0,0,1,1.71-.216,6.553,6.553,0,0,1,2.9.478v1.771a5.248,5.248,0,0,0-3.055-.825,5.024,5.024,0,0,0-1.031.108,2.911,2.911,0,0,0-.918.351,2.034,2.034,0,0,0-.656.628,1.666,1.666,0,0,0-.253.937,1.929,1.929,0,0,0,.192.89,2.182,2.182,0,0,0,.567.684,5.646,5.646,0,0,0,.914.6q.539.29,1.242.637.721.356,1.368.75a6.253,6.253,0,0,1,1.134.871,3.872,3.872,0,0,1,.773,1.059,2.976,2.976,0,0,1,.286,1.331,3.374,3.374,0,0,1-.389,1.682A3.191,3.191,0,0,1,14.688-.59a4.583,4.583,0,0,1-1.523.623,8.339,8.339,0,0,1-1.818.192A7.408,7.408,0,0,1,10.56.173Q10.092.122,9.6.023A7.8,7.8,0,0,1,8.681-.22,2.872,2.872,0,0,1,7.983-.543Zm12.4-4.535V0H18.806V-13.437H22.5a4.873,4.873,0,0,1,3.34,1.049,3.747,3.747,0,0,1,1.185,2.961A4.072,4.072,0,0,1,25.707-6.3a5.03,5.03,0,0,1-3.556,1.218Zm0-6.934V-6.5h1.649a3.687,3.687,0,0,0,2.488-.745,2.637,2.637,0,0,0,.857-2.1q0-2.661-3.148-2.661Zm9,15.067H28.017a12.407,12.407,0,0,0,2.923-8.2A12.628,12.628,0,0,0,28-13.437h1.387a12.379,12.379,0,0,1,2.923,8.311A11.928,11.928,0,0,1,29.385,3.055Z" transform="translate(567.37 390.08)" fill="#fff"/>
        </g>
        <rect id="Rectángulo_37158" data-name="Rectángulo 37158" width="148.01" height="181.88" rx="7.47" transform="translate(878.09 124.25)" fill="#6de0d4"/>
        <g id="Grupo-3" data-name="Grupo">
          <path id="Trazado_160522" data-name="Trazado 160522" d="M15.461,0H13.9V-9.014q0-1.068.131-2.614H13.99a8.358,8.358,0,0,1-.4,1.3L9,0H8.227L3.645-10.251a8.031,8.031,0,0,1-.4-1.377H3.2Q3.28-10.822,3.28-9V0H1.762V-13.437h2.08l4.123,9.37a12,12,0,0,1,.618,1.612h.056q.4-1.106.647-1.649l4.207-9.333h1.968Z" transform="translate(919.83 256.31)" fill="#12263f"/>
          <path id="Trazado_160521" data-name="Trazado 160521" d="M5.566.225a4.451,4.451,0,0,1-3.4-1.345A4.98,4.98,0,0,1,.9-4.685,5.188,5.188,0,0,1,2.221-8.461,4.75,4.75,0,0,1,5.791-9.82,4.3,4.3,0,0,1,9.141-8.5a5.239,5.239,0,0,1,1.2,3.664,5.155,5.155,0,0,1-1.3,3.678A4.547,4.547,0,0,1,5.566.225Zm.112-8.752A2.923,2.923,0,0,0,3.336-7.52a4.137,4.137,0,0,0-.862,2.778,3.912,3.912,0,0,0,.871,2.689,2.962,2.962,0,0,0,2.333.984,2.809,2.809,0,0,0,2.291-.965,4.188,4.188,0,0,0,.8-2.745,4.26,4.26,0,0,0-.8-2.774A2.8,2.8,0,0,0,5.678-8.527ZM20.989,0H19.452V-1.63h-.037a3.547,3.547,0,0,1-3.3,1.855,3.584,3.584,0,0,1-2.891-1.288,5.285,5.285,0,0,1-1.082-3.509,5.75,5.75,0,0,1,1.2-3.814,3.956,3.956,0,0,1,3.2-1.434,3.076,3.076,0,0,1,2.877,1.555h.037v-5.941h1.537ZM19.452-4.338V-5.753a2.745,2.745,0,0,0-.768-1.968,2.577,2.577,0,0,0-1.949-.806A2.654,2.654,0,0,0,14.524-7.5a4.517,4.517,0,0,0-.806,2.849,4.062,4.062,0,0,0,.773,2.619,2.527,2.527,0,0,0,2.075.96A2.625,2.625,0,0,0,18.651-2,3.456,3.456,0,0,0,19.452-4.338Zm12.359-.075H25.037A3.589,3.589,0,0,0,25.9-1.94a2.972,2.972,0,0,0,2.268.871,4.714,4.714,0,0,0,2.98-1.068V-.693A5.569,5.569,0,0,1,27.8.225a4.055,4.055,0,0,1-3.2-1.307A5.35,5.35,0,0,1,23.444-4.76a5.247,5.247,0,0,1,1.27-3.65,4.071,4.071,0,0,1,3.153-1.41A3.607,3.607,0,0,1,30.781-8.6a5.079,5.079,0,0,1,1.031,3.383Zm-1.574-1.3A3.127,3.127,0,0,0,29.6-7.787a2.187,2.187,0,0,0-1.757-.74,2.482,2.482,0,0,0-1.846.778,3.529,3.529,0,0,0-.937,2.033ZM35.672,0H34.135V-14.205h1.537Zm7.121.225A4.451,4.451,0,0,1,39.4-1.12a4.98,4.98,0,0,1-1.27-3.565,5.188,5.188,0,0,1,1.321-3.776,4.75,4.75,0,0,1,3.57-1.359A4.3,4.3,0,0,1,46.368-8.5a5.239,5.239,0,0,1,1.2,3.664,5.155,5.155,0,0,1-1.3,3.678A4.547,4.547,0,0,1,42.793.225Zm.112-8.752A2.923,2.923,0,0,0,40.563-7.52,4.137,4.137,0,0,0,39.7-4.741a3.912,3.912,0,0,0,.871,2.689,2.962,2.962,0,0,0,2.333.984A2.809,2.809,0,0,0,45.2-2.033,4.188,4.188,0,0,0,46-4.779a4.26,4.26,0,0,0-.8-2.774A2.8,2.8,0,0,0,42.906-8.527Z" transform="translate(935.38 256.31)" fill="#12263f"/>
          <path id="Trazado_160523" data-name="Trazado 160523" d="M5.585,3.055H4.217a11.974,11.974,0,0,1-2.9-8.18,12.428,12.428,0,0,1,2.9-8.311H5.6A12.628,12.628,0,0,0,2.661-5.144,12.407,12.407,0,0,0,5.585,3.055ZM7.552,0V-13.437h3.823a4.179,4.179,0,0,1,2.764.853,2.756,2.756,0,0,1,1.021,2.221,3.268,3.268,0,0,1-.618,1.986,3.335,3.335,0,0,1-1.705,1.2v.037a3.418,3.418,0,0,1,2.174,1.026,3.156,3.156,0,0,1,.815,2.254,3.513,3.513,0,0,1-1.237,2.792A4.6,4.6,0,0,1,11.469,0ZM9.126-12.012v4.338h1.612A3.06,3.06,0,0,0,12.771-8.3a2.17,2.17,0,0,0,.74-1.757q0-1.958-2.577-1.958Zm0,5.753v4.835h2.136a3.2,3.2,0,0,0,2.15-.656,2.247,2.247,0,0,0,.764-1.8q0-2.38-3.242-2.38ZM18.553,0V-13.437h3.823a4.179,4.179,0,0,1,2.764.853,2.756,2.756,0,0,1,1.021,2.221,3.268,3.268,0,0,1-.618,1.986,3.335,3.335,0,0,1-1.705,1.2v.037a3.418,3.418,0,0,1,2.174,1.026,3.156,3.156,0,0,1,.815,2.254A3.513,3.513,0,0,1,25.59-1.068,4.6,4.6,0,0,1,22.47,0Zm1.574-12.012v4.338h1.612A3.06,3.06,0,0,0,23.772-8.3a2.17,2.17,0,0,0,.74-1.757q0-1.958-2.577-1.958Zm0,5.753v4.835h2.136a3.2,3.2,0,0,0,2.15-.656,2.247,2.247,0,0,0,.764-1.8q0-2.38-3.242-2.38ZM29.553,0V-13.437h3.711q7.1,0,7.1,6.55a6.6,6.6,0,0,1-1.972,5A7.317,7.317,0,0,1,33.114,0Zm1.574-12.012V-1.424h2.005a5.691,5.691,0,0,0,4.113-1.415,5.3,5.3,0,0,0,1.471-4.01q0-5.163-5.491-5.163Z" transform="translate(922.06 279.34)" fill="#12263f"/>
          <path id="Trazado_160524" data-name="Trazado 160524" d="M1.762,0V-13.437H5.472q7.1,0,7.1,6.55a6.6,6.6,0,0,1-1.972,5A7.317,7.317,0,0,1,5.322,0ZM3.336-12.012V-1.424H5.341A5.691,5.691,0,0,0,9.454-2.839a5.3,5.3,0,0,0,1.471-4.01q0-5.163-5.491-5.163Z" transform="translate(961.1 279.34)" fill="#12263f"/>
          <path id="Trazado_160525" data-name="Trazado 160525" d="M1.593,3.055H.225a12.407,12.407,0,0,0,2.923-8.2A12.628,12.628,0,0,0,.206-13.437H1.593A12.379,12.379,0,0,1,4.516-5.125,11.928,11.928,0,0,1,1.593,3.055Z" transform="translate(973.74 279.34)" fill="#12263f"/>
        </g>
        <g id="Grupo_87023" data-name="Grupo 87023">
          <g id="Grupo_87022" data-name="Grupo 87022">
            <g id="Grupo_87021" data-name="Grupo 87021">
              <g id="Grupo_87018" data-name="Grupo 87018">
                <path id="Trazado_158225" data-name="Trazado 158225" d="M916.7,223.52c0,3.64,14.79,6.6,33,6.6s33-3,33-6.6V200.31h-66Z" fill="#35afea"/>
                <path id="Trazado_158226" data-name="Trazado 158226" d="M949.74,193.72c-18.25,0-33,2.95-33,6.59s14.79,6.59,33,6.59,33-2.94,33-6.59S968,193.72,949.74,193.72Z" fill="#02749e"/>
              </g>
              <g id="Grupo_87019" data-name="Grupo 87019">
                <path id="Trazado_158227" data-name="Trazado 158227" d="M916.7,195c0,3.64,14.79,6.59,33,6.59s33-2.95,33-6.59V171.82h-66Z" fill="#35afea"/>
                <path id="Trazado_158228" data-name="Trazado 158228" d="M949.74,165.23c-18.25,0-33,3-33,6.59s14.79,6.6,33,6.6,33-2.95,33-6.6S968,165.23,949.74,165.23Z" fill="#02749e"/>
              </g>
              <g id="Grupo_87020" data-name="Grupo 87020">
                <path id="Trazado_158229" data-name="Trazado 158229" d="M916.7,166.55c0,3.64,14.79,6.59,33,6.59s33-2.95,33-6.59V143.34h-66Z" fill="#35afea"/>
                <path id="Trazado_158230" data-name="Trazado 158230" d="M949.74,136.74c-18.25,0-33,3-33,6.6s14.79,6.59,33,6.59,33-3,33-6.59S968,136.74,949.74,136.74Z" fill="#68c3ef"/>
              </g>
            </g>
            <path id="Trazado_158231" data-name="Trazado 158231" d="M916.7,143.34v23.21c0,.94,1,1.83,2.77,2.64-1.77.8-2.77,1.69-2.77,2.63V195c0,.94,1,1.82,2.77,2.63-1.77.81-2.77,1.7-2.77,2.64v23.21c0,3.64,14.79,6.6,33,6.6V136.74C931.49,136.74,916.7,139.7,916.7,143.34Z" fill="#0b3360" opacity="0.22"/>
          </g>
          <path id="Trazado_158232" data-name="Trazado 158232" d="M975.71,148.53a2.72,2.72,0,0,0-2.64,2.79v15.19a2.64,2.64,0,1,0,5.27,0V151.32A2.72,2.72,0,0,0,975.71,148.53Z" fill="#a2bac3"/>
          <path id="Trazado_158233" data-name="Trazado 158233" d="M975.71,177.35a2.72,2.72,0,0,0-2.64,2.79v15.2a2.64,2.64,0,1,0,5.27,0v-15.2A2.72,2.72,0,0,0,975.71,177.35Z" fill="#a2bac3"/>
          <path id="Trazado_158234" data-name="Trazado 158234" d="M975.71,205.84a2.72,2.72,0,0,0-2.64,2.79v15.2a2.64,2.64,0,1,0,5.27,0v-15.2a2.72,2.72,0,0,0-2.63-2.79Z" fill="#a2bac3"/>
        </g>
        <text id="Response" transform="translate(395.42 331.13)" fill="#12263f" font-size="22" font-family="SegoeUI, Segoe UI"><tspan x="0" y="0">Response</tspan></text>
      </g>
    </g>
  </g>
</svg>
