<svg xmlns="http://www.w3.org/2000/svg" width="448.281" height="297.8" viewBox="0 0 448.281 297.8">
  <g id="img2" transform="translate(-47.969 -35.23)">
    <path id="Trazado_160419" data-name="Trazado 160419" d="M7.778-3.357A1.353,1.353,0,0,0,7.251-4.5a6.917,6.917,0,0,0-1.9-.844,13.458,13.458,0,0,1-2.171-.875A3.547,3.547,0,0,1,1-9.4a3.09,3.09,0,0,1,.584-1.85,3.812,3.812,0,0,1,1.679-1.27,6.318,6.318,0,0,1,2.457-.457,5.751,5.751,0,0,1,2.443.5,3.891,3.891,0,0,1,1.666,1.4,3.668,3.668,0,0,1,.593,2.057H7.787a1.726,1.726,0,0,0-.554-1.367,2.276,2.276,0,0,0-1.556-.488,2.432,2.432,0,0,0-1.5.409,1.289,1.289,0,0,0-.536,1.077,1.235,1.235,0,0,0,.628,1.046,7.1,7.1,0,0,0,1.85.791A7.994,7.994,0,0,1,9.4-5.871a3.343,3.343,0,0,1,1.028,2.5A3.08,3.08,0,0,1,9.167-.769,5.5,5.5,0,0,1,5.783.176,6.534,6.534,0,0,1,3.094-.365a4.256,4.256,0,0,1-1.85-1.481,3.793,3.793,0,0,1-.637-2.18H3.252q0,2.118,2.531,2.118A2.462,2.462,0,0,0,7.251-2.29,1.244,1.244,0,0,0,7.778-3.357ZM16.418.176a4.668,4.668,0,0,1-3.406-1.283A4.561,4.561,0,0,1,11.7-4.526v-.246a5.745,5.745,0,0,1,.554-2.562,4.064,4.064,0,0,1,1.569-1.74,4.4,4.4,0,0,1,2.316-.611,3.947,3.947,0,0,1,3.072,1.23,5,5,0,0,1,1.121,3.489v1.037H14.273a2.36,2.36,0,0,0,.743,1.494,2.245,2.245,0,0,0,1.569.563,2.742,2.742,0,0,0,2.294-1.063l1.248,1.4A3.813,3.813,0,0,1,18.58-.277,5.075,5.075,0,0,1,16.418.176Zm-.29-7.813a1.587,1.587,0,0,0-1.226.512,2.651,2.651,0,0,0-.6,1.466h3.533v-.2a1.891,1.891,0,0,0-.457-1.311A1.638,1.638,0,0,0,16.128-7.638Zm10.986.51A6.9,6.9,0,0,0,26.2-7.2a1.86,1.86,0,0,0-1.89.976V0h-2.54V-9.51h2.4l.07,1.134a2.354,2.354,0,0,1,2.118-1.31,2.662,2.662,0,0,1,.791.114ZM32.234-3.1,34-9.51h2.654L33.447,0H31.021L27.813-9.51h2.654ZM40.451,0H37.9V-13.5h2.549ZM46.92.176a4.668,4.668,0,0,1-3.406-1.283A4.561,4.561,0,0,1,42.2-4.526v-.246a5.745,5.745,0,0,1,.554-2.562,4.064,4.064,0,0,1,1.569-1.74,4.4,4.4,0,0,1,2.316-.611,3.947,3.947,0,0,1,3.072,1.23,5,5,0,0,1,1.121,3.489v1.037H44.776a2.36,2.36,0,0,0,.743,1.494,2.245,2.245,0,0,0,1.569.563,2.742,2.742,0,0,0,2.294-1.063l1.248,1.4A3.813,3.813,0,0,1,49.082-.277,5.075,5.075,0,0,1,46.92.176Zm-.29-7.813a1.587,1.587,0,0,0-1.226.512,2.651,2.651,0,0,0-.6,1.466h3.533v-.2a1.891,1.891,0,0,0-.457-1.311A1.638,1.638,0,0,0,46.63-7.638Zm8.684-4.21V-9.51H56.94v1.863H55.314V-2.9a1.133,1.133,0,0,0,.2.756,1.015,1.015,0,0,0,.773.229,4.051,4.051,0,0,0,.747-.062V-.053A5.229,5.229,0,0,1,55.5.176a2.425,2.425,0,0,1-2.725-2.7V-7.646H51.385V-9.51h1.389v-2.338Zm7.172,8.4a2.935,2.935,0,0,1,.5-1.644,6.9,6.9,0,0,1,1.824-1.679,8.954,8.954,0,0,1-.9-1.437,3.182,3.182,0,0,1-.325-1.4,3.271,3.271,0,0,1,.945-2.43,3.457,3.457,0,0,1,2.544-.936,3.319,3.319,0,0,1,2.351.853,2.782,2.782,0,0,1,.918,2.127,3.354,3.354,0,0,1-1.547,2.7l-.984.712,2.206,2.566a4.891,4.891,0,0,0,.519-2.25H72.7a6.6,6.6,0,0,1-1.151,4.043L73.463,0H70.58l-.659-.756a5.779,5.779,0,0,1-3.252.932,4.459,4.459,0,0,1-3.041-1A3.314,3.314,0,0,1,62.486-3.445Zm4.307,1.573a3.225,3.225,0,0,0,1.731-.508L66-5.291l-.185.132a2.006,2.006,0,0,0-.782,1.569,1.66,1.66,0,0,0,.488,1.24A1.738,1.738,0,0,0,66.792-1.872Zm-.932-7.77a3,3,0,0,0,.773,1.661l.677-.448a2.3,2.3,0,0,0,.716-.65,1.4,1.4,0,0,0,.2-.756A1.046,1.046,0,0,0,67.9-10.6a1.13,1.13,0,0,0-.835-.325,1.142,1.142,0,0,0-.875.352A1.307,1.307,0,0,0,65.861-9.642Zm18.6-3.155H87.1v8.859a4.237,4.237,0,0,1-.541,2.158A3.668,3.668,0,0,1,85.03-.334a4.764,4.764,0,0,1-2.224.51A4.528,4.528,0,0,1,79.642-.857a3.752,3.752,0,0,1-1.134-2.922h2.654a2.057,2.057,0,0,0,.4,1.389,1.582,1.582,0,0,0,1.248.448,1.511,1.511,0,0,0,1.2-.519,2.191,2.191,0,0,0,.448-1.477ZM95.99-3.357A1.353,1.353,0,0,0,95.462-4.5a6.917,6.917,0,0,0-1.9-.844,13.458,13.458,0,0,1-2.171-.875A3.547,3.547,0,0,1,89.213-9.4a3.09,3.09,0,0,1,.584-1.85,3.812,3.812,0,0,1,1.679-1.27,6.318,6.318,0,0,1,2.457-.457,5.751,5.751,0,0,1,2.443.5,3.891,3.891,0,0,1,1.666,1.4,3.668,3.668,0,0,1,.593,2.057H96a1.726,1.726,0,0,0-.554-1.367,2.276,2.276,0,0,0-1.556-.488,2.432,2.432,0,0,0-1.5.409,1.289,1.289,0,0,0-.536,1.077,1.235,1.235,0,0,0,.628,1.046,7.1,7.1,0,0,0,1.85.791,7.994,7.994,0,0,1,3.278,1.679,3.343,3.343,0,0,1,1.028,2.5A3.08,3.08,0,0,1,97.378-.769a5.5,5.5,0,0,1-3.384.945,6.534,6.534,0,0,1-2.689-.541,4.256,4.256,0,0,1-1.85-1.481,3.793,3.793,0,0,1-.637-2.18h2.646q0,2.118,2.531,2.118a2.462,2.462,0,0,0,1.468-.382A1.244,1.244,0,0,0,95.99-3.357Zm7.066-1.151V0h-2.637V-12.8h4.992a5.776,5.776,0,0,1,2.536.527,3.886,3.886,0,0,1,1.683,1.5,4.178,4.178,0,0,1,.589,2.21,3.674,3.674,0,0,1-1.288,2.966,5.363,5.363,0,0,1-3.564,1.085Zm0-2.136h2.355a2.316,2.316,0,0,0,1.6-.492,1.79,1.79,0,0,0,.549-1.406A2.111,2.111,0,0,0,107-10.063a2.068,2.068,0,0,0-1.529-.6h-2.417Z" transform="translate(204.65 48.73)" fill="#12263f"/>
    <g id="Grupo_85895" data-name="Grupo 85895">
      <g id="Grupo_85862" data-name="Grupo 85862">
        <rect id="Rectángulo_36822" data-name="Rectángulo 36822" width="55.29" height="70.16" transform="translate(121.63 56.49)" fill="#edffff"/>
        <rect id="Rectángulo_36823" data-name="Rectángulo 36823" width="55.29" height="71.89" transform="translate(121.63 133.08)" fill="#edffff"/>
        <rect id="Rectángulo_36824" data-name="Rectángulo 36824" width="55.29" height="70.16" transform="translate(182.89 56.49)" fill="#edffff"/>
        <rect id="Rectángulo_36825" data-name="Rectángulo 36825" width="55.29" height="71.89" transform="translate(182.89 133.08)" fill="#edffff"/>
      </g>
      <g id="Grupo_85890" data-name="Grupo 85890">
        <g id="Grupo_85866" data-name="Grupo 85866">
          <g id="Grupo_85863" data-name="Grupo 85863">
            <rect id="Rectángulo_36826" data-name="Rectángulo 36826" width="5.8" height="20.49" transform="translate(259.64 268.06)" fill="#fff"/>
            <path id="Trazado_154801" data-name="Trazado 154801" d="M277.72,265.8h-29.9a5.57,5.57,0,0,1-5.57-5.57h0a5.56,5.56,0,0,1,5.57-5.56h29.9a5.56,5.56,0,0,1,5.56,5.56h0a5.56,5.56,0,0,1-5.56,5.57Z" fill="#1c2e34"/>
            <rect id="Rectángulo_36827" data-name="Rectángulo 36827" width="10.61" height="7.28" transform="translate(257.41 263.2)" fill="#1c2e34"/>
            <rect id="Rectángulo_36828" data-name="Rectángulo 36828" width="10.61" height="31.86" transform="translate(257.41 285.23)" fill="#1c2e34"/>
            <rect id="Rectángulo_36829" data-name="Rectángulo 36829" width="59.92" height="4.43" transform="translate(232.14 313.17)" fill="#1c2e34"/>
            <rect id="Rectángulo_36830" data-name="Rectángulo 36830" width="3.51" height="13.78" transform="translate(232.14 313.17)" fill="#1c2e34"/>
            <path id="Trazado_154802" data-name="Trazado 154802" d="M239.12,327a5.5,5.5,0,1,1-1.611-3.9,5.51,5.51,0,0,1,1.611,3.9Z" fill="#1c2e34"/>
            <rect id="Rectángulo_36831" data-name="Rectángulo 36831" width="3.51" height="13.78" transform="translate(288.55 313.17)" fill="#1c2e34"/>
            <path id="Trazado_154803" data-name="Trazado 154803" d="M295.52,327a5.5,5.5,0,1,1-1.607-3.9A5.51,5.51,0,0,1,295.52,327Z" fill="#1c2e34"/>
          </g>
          <g id="Grupo_85865" data-name="Grupo 85865">
            <g id="Grupo_85864" data-name="Grupo 85864">
              <path id="Trazado_154804" data-name="Trazado 154804" d="M299.81,261a41.18,41.18,0,0,1-41.13-41.13v-50.4a5.2,5.2,0,0,1,10.39,0v50.4a30.77,30.77,0,0,0,30.74,30.74,5.2,5.2,0,1,1,0,10.39Z" fill="#ff6e65"/>
              <path id="Trazado_154805" data-name="Trazado 154805" d="M263.88,164.28H208.41l3.37,40.69-1.62,30.61,27.67,17.61,6.52,7.81h55.46l-15.07-9.56L273.5,238.7l-4.5-2.75-3.75-24.73L265,181.49Z" fill="#ff6e65"/>
            </g>
            <path id="Trazado_154806" data-name="Trazado 154806" d="M244.35,261a41.18,41.18,0,0,1-41.13-41.13v-50.4a5.2,5.2,0,0,1,10.39,0v50.4a30.77,30.77,0,0,0,30.74,30.74,5.2,5.2,0,1,1,0,10.39Z" fill="#ff9184"/>
          </g>
        </g>
        <g id="Grupo_85889" data-name="Grupo 85889">
          <g id="Grupo_85875" data-name="Grupo 85875">
            <g id="Grupo_85870" data-name="Grupo 85870">
              <g id="Grupo_85868" data-name="Grupo 85868">
                <path id="Trazado_154807" data-name="Trazado 154807" d="M333.6,320.22l-.43-29.78-15.12-.8.42,31.98,14.57.1Z" fill="#ffb0a0"/>
                <g id="Grupo_85867" data-name="Grupo 85867">
                  <path id="Trazado_154808" data-name="Trazado 154808" d="M316.35,315.37s12.5,5.14,18.37-3L360.46,328l-48-.31Z" fill="#0b181b"/>
                  <rect id="Rectángulo_36832" data-name="Rectángulo 36832" width="4.42" height="47.98" transform="translate(312.453 332.154) rotate(-89.63)" fill="#fff"/>
                  <path id="Trazado_154809" data-name="Trazado 154809" d="M334.41,319.24a.71.71,0,0,0,.35-.27,17.488,17.488,0,0,1,4-3.85A.78.78,0,0,0,339,314a.88.88,0,0,0-1.17-.22,18.331,18.331,0,0,0-4.39,4.25.77.77,0,0,0,.19,1.12.86.86,0,0,0,.78.09Z" fill="#fff"/>
                  <path id="Trazado_154810" data-name="Trazado 154810" d="M338.54,321.31a.85.85,0,0,0,.35-.27,17.74,17.74,0,0,1,4-3.86.78.78,0,0,0,.23-1.11.88.88,0,0,0-1.17-.23,18.608,18.608,0,0,0-4.39,4.25.78.78,0,0,0,.19,1.13A.88.88,0,0,0,338.54,321.31Z" fill="#fff"/>
                  <path id="Trazado_154811" data-name="Trazado 154811" d="M342.67,323.37a.81.81,0,0,0,.35-.26,17.28,17.28,0,0,1,4-3.86.79.79,0,0,0,.24-1.12.89.89,0,0,0-1.18-.22,18.4,18.4,0,0,0-4.38,4.25.78.78,0,0,0,.18,1.12.87.87,0,0,0,.79.09Z" fill="#fff"/>
                </g>
              </g>
              <g id="Grupo_85869" data-name="Grupo 85869">
                <path id="Trazado_154812" data-name="Trazado 154812" d="M278.42,221.24l7.09,5.93c-2.07,12.68-8.9,24.19,3.94,24.19h22.77v52.35l25.55.34,1.43-64.14a18.26,18.26,0,0,0-18.2-18.6Z" fill="#007bde"/>
                <rect id="Rectángulo_36833" data-name="Rectángulo 36833" width="29.39" height="9.91" transform="translate(340 304.06) rotate(180)" fill="#0086ff"/>
              </g>
            </g>
            <g id="Grupo_85874" data-name="Grupo 85874">
              <g id="Grupo_85872" data-name="Grupo 85872">
                <path id="Trazado_154813" data-name="Trazado 154813" d="M292.67,320.22l-.43-29.78-15.12-.8.42,31.98,14.58.1Z" fill="#ffb0a0"/>
                <g id="Grupo_85871" data-name="Grupo 85871">
                  <path id="Trazado_154814" data-name="Trazado 154814" d="M275.43,315.37s12.49,5.14,18.37-3L319.53,328l-48-.31Z" fill="#0b181b"/>
                  <rect id="Rectángulo_36834" data-name="Rectángulo 36834" width="4.42" height="47.98" transform="translate(271.529 332.153) rotate(-89.63)" fill="#fff"/>
                  <path id="Trazado_154815" data-name="Trazado 154815" d="M293.48,319.24a.71.71,0,0,0,.35-.27,17.49,17.49,0,0,1,4-3.85A.78.78,0,0,0,298,314a.88.88,0,0,0-1.17-.22,18.53,18.53,0,0,0-4.39,4.25.77.77,0,0,0,.19,1.12A.86.86,0,0,0,293.48,319.24Z" fill="#fff"/>
                  <path id="Trazado_154816" data-name="Trazado 154816" d="M297.61,321.31A.85.85,0,0,0,298,321a17.74,17.74,0,0,1,4-3.86.78.78,0,0,0,.23-1.11.88.88,0,0,0-1.17-.23,18.829,18.829,0,0,0-4.39,4.25.78.78,0,0,0,.19,1.13.88.88,0,0,0,.75.13Z" fill="#fff"/>
                  <path id="Trazado_154817" data-name="Trazado 154817" d="M301.74,323.37a.81.81,0,0,0,.35-.26,17.19,17.19,0,0,1,4-3.86.79.79,0,0,0,.23-1.12.88.88,0,0,0-1.17-.22,18.12,18.12,0,0,0-4.39,4.25.78.78,0,0,0,.18,1.12A.88.88,0,0,0,301.74,323.37Z" fill="#fff"/>
                </g>
              </g>
              <g id="Grupo_85873" data-name="Grupo 85873">
                <path id="Trazado_154818" data-name="Trazado 154818" d="M246.27,221.24l-1,5.93a20.83,20.83,0,0,0,20.55,24.19H272v52.35l25.55.34L299,239.91a18.25,18.25,0,0,0-18.21-18.6Z" fill="#0086ff"/>
                <rect id="Rectángulo_36835" data-name="Rectángulo 36835" width="29.39" height="9.91" transform="translate(299.78 304.06) rotate(180)" fill="#00b1ff"/>
              </g>
            </g>
          </g>
          <g id="Grupo_85883" data-name="Grupo 85883">
            <g id="Grupo_85878" data-name="Grupo 85878">
              <g id="Grupo_85876" data-name="Grupo 85876">
                <path id="Trazado_154819" data-name="Trazado 154819" d="M309.82,198.71l34.42,7.25,1.86,6.9-45.08.64-3.61-18.72Z" fill="#f9a498"/>
                <path id="Trazado_154820" data-name="Trazado 154820" d="M339,205.55s7-4.27,14-2.49c4.6,1.18,9.16,5.6,8.8,10.33h0l-28-.35Z" fill="#f9a498"/>
              </g>
              <g id="Grupo_85877" data-name="Grupo 85877">
                <path id="Trazado_154821" data-name="Trazado 154821" d="M311.79,173.82l4,29.48s-17.21,9-16.84,8-3.86-37.44-3.86-37.44Z" fill="#f9a498"/>
                <path id="Trazado_154822" data-name="Trazado 154822" d="M296.42,149.44s12.63,2,15.51,12.77c3.75,14,5.18,16.07,5.18,16.07L298,181.06Z" fill="#0b181b"/>
              </g>
            </g>
            <path id="Trazado_154823" data-name="Trazado 154823" d="M272.14,145.86l24.28,3.58a5,5,0,0,1,4.31,4.95l.58,57.59-54.16.16-3.67-50.24,2-6.81A8.64,8.64,0,0,1,252.4,149Z" fill="#0b181b"/>
            <g id="Grupo_85882" data-name="Grupo 85882">
              <g id="Grupo_85879" data-name="Grupo 85879">
                <path id="Trazado_154824" data-name="Trazado 154824" d="M256.25,178.08,246.1,204.29l-15.64-13.61,6.07-18.86Z" fill="#ffb0a0"/>
                <path id="Trazado_154825" data-name="Trazado 154825" d="M266.12,147.9s-18.85-.17-23.54,5.39c-5.9,7-12.9,24.94-12.9,24.94L260.33,185Z" fill="#0b181b"/>
              </g>
              <g id="Grupo_85881" data-name="Grupo 85881">
                <g id="Grupo_85880" data-name="Grupo 85880">
                  <path id="Trazado_154826" data-name="Trazado 154826" d="M247.85,199.92l35.38,7.88-1.46,7.83-41.8.28s-18.69-3.77-9.51-25.23Z" fill="#ffb0a0"/>
                  <path id="Trazado_154827" data-name="Trazado 154827" d="M283.23,207.8s8.31-3.26,15.2-2a9.45,9.45,0,0,1,7.46,10.07h0l-27.79-.25Z" fill="#ffb0a0"/>
                </g>
                <line id="Línea_466" data-name="Línea 466" x1="8.73" y1="1.21" transform="translate(239.12 198.71)" fill="none" stroke="#e98980" stroke-miterlimit="10" stroke-width="0.5"/>
              </g>
            </g>
          </g>
          <g id="Grupo_85888" data-name="Grupo 85888">
            <path id="Trazado_154828" data-name="Trazado 154828" d="M288.35,103s9.63,9,.15,12.32Z" fill="#0b181b"/>
            <path id="Trazado_154829" data-name="Trazado 154829" d="M282.62,119.1a6.58,6.58,0,0,0,6.25,6.85,6.5,6.5,0,0,0,6.62-6.44,6.59,6.59,0,0,0-6.25-6.86,6.51,6.51,0,0,0-6.62,6.45Z" fill="#0077c9"/>
            <path id="Trazado_154830" data-name="Trazado 154830" d="M280.87,133.28l.5,12.83c.19,4.5-2.4,7-6.7,7.13h0c-3.66.11-7.76-1.51-7.76-5.48l.15-20.22Z" fill="#ffb0a0"/>
            <path id="Trazado_154831" data-name="Trazado 154831" d="M281.23,141.81s-10.41,1.29-14.12-10.34c-1.17-3.67,13.73.5,13.73.5Z" fill="#0b181b"/>
            <path id="Trazado_154832" data-name="Trazado 154832" d="M277.16,137.17h0c7.33-.27,13.14-6.47,13.11-12.66l-.13-12.93a14.22,14.22,0,0,0-13.53-14.33h0c-7.68-.24-15.43,6-15.64,13.88l.22,10.08a16.12,16.12,0,0,0,15.97,15.96Z" fill="#ffb0a0"/>
            <g id="Grupo_85884" data-name="Grupo 85884">
              <path id="Trazado_154833" data-name="Trazado 154833" d="M282.57,121.01l.35,2.49-1.81.14" fill="none" stroke="#0b181b" stroke-linecap="round" stroke-linejoin="round" stroke-width="0.53"/>
              <path id="Trazado_154834" data-name="Trazado 154834" d="M274.44,113.45s3-.37,3.07.89c0,0,0,.85-2.58,1.13s-3.3.1-3.57-.69S273,113.52,274.44,113.45Z" fill="#0b181b"/>
              <path id="Trazado_154835" data-name="Trazado 154835" d="M286.54,113s-2.49-.16-2.64,1c0,0-.09.81,2.09.9s2.87-.22,3.05-.87S287.72,113,286.54,113Z" fill="#0b181b"/>
              <path id="Trazado_154836" data-name="Trazado 154836" d="M285,118.36a1.28,1.28,0,1,0,.364-.925,1.29,1.29,0,0,0-.364.925Z" fill="#0b181b"/>
              <path id="Trazado_154837" data-name="Trazado 154837" d="M273.94,118.42a1.26,1.26,0,1,0,2.52,0,1.3,1.3,0,0,0-1.27-1.3A1.28,1.28,0,0,0,273.94,118.42Z" fill="#0b181b"/>
              <line id="Línea_467" data-name="Línea 467" y1="0.47" x2="3.36" transform="translate(279.75 127.54)" fill="none" stroke="#0b181b" stroke-linecap="round" stroke-linejoin="round" stroke-width="0.53"/>
            </g>
            <path id="Trazado_154838" data-name="Trazado 154838" d="M297.83,98.64l-5.56-.79,3.25-2.06a29.649,29.649,0,0,0-8.84-1.3,26.24,26.24,0,0,0-11.91-3c-6.45-.08-12,3.42-14,7.27h0s-5.35-.33-6.09,5.73c-.95,7.86,8.5,20.84,8.5,20.84l1.1-10.33c5.87-.41,6.14-5.59,5.68-9,2.64.23,11.73.83,18.85-.76a8.15,8.15,0,0,0,2.71-.75C294.88,103.38,297.38,101.54,297.83,98.64Z" fill="#0b181b"/>
            <g id="Grupo_85885" data-name="Grupo 85885">
              <path id="Trazado_154839" data-name="Trazado 154839" d="M254.45,121.22a5.16,5.16,0,1,0,5.29-5.16,5.26,5.26,0,0,0-5.29,5.16Z" fill="#ffba99"/>
              <path id="Trazado_154840" data-name="Trazado 154840" d="M261.32,122.71s.11-3.85-3.48-3.36" fill="none" stroke="#312220" stroke-linecap="round" stroke-linejoin="round" stroke-width="0.56"/>
            </g>
            <g id="Grupo_85887" data-name="Grupo 85887">
              <path id="Trazado_154841" data-name="Trazado 154841" d="M279.59,91.25l.16.75s-9.3,1-13.55,6.63c-4.72,6.31-4.8,14.81-4.8,14.81l-2,.17.13-13.48,4-4.21L270,92.08l4.5-1.44Z" fill="#0077c9"/>
              <g id="Grupo_85886" data-name="Grupo 85886">
                <path id="Trazado_154842" data-name="Trazado 154842" d="M267,118.35c1,4.43-1.9,8.81-7.52,10-4,.86-5.91-2.48-6.87-6.91s1.48-8.72,5.46-9.58S266,113.92,267,118.35Z" fill="#0077c9"/>
                <path id="Trazado_154843" data-name="Trazado 154843" d="M264.94,118.8c1,4.43-1.48,8.72-5.46,9.58s-8-2-8.93-6.46,1.48-8.72,5.45-9.59S264,114.36,264.94,118.8Z" fill="#0086ff"/>
              </g>
              <path id="Trazado_154844" data-name="Trazado 154844" d="M256.5,113.28a31.509,31.509,0,0,1,.4-10.32A16.86,16.86,0,0,1,270.7,90c.52-.1,1.08-.18,1.66-.26a10.4,10.4,0,0,1,5.95.68,7.44,7.44,0,0,1,1.28.79s-9,.38-13.39,5.21c-4.9,5.45-6.19,12.77-5.88,17.64Z" fill="#0086ff"/>
            </g>
            <path id="Trazado_154845" data-name="Trazado 154845" d="M261.94,147.5l10.2-1.64,13.57,2s.83,7.92-10.64,8.25S261.94,147.5,261.94,147.5Z" fill="#ffb0a0"/>
          </g>
        </g>
      </g>
      <g id="Grupo_85894" data-name="Grupo 85894">
        <g id="Grupo_85893" data-name="Grupo 85893">
          <g id="Grupo_85891" data-name="Grupo 85891">
            <path id="Trazado_154846" data-name="Trazado 154846" d="M323.58,186.76l4.82,3.46,34.16-28.84,83.19-45.92-4.49-3.26-57.07,17.53Z" fill="#cb9da8"/>
            <path id="Trazado_154847" data-name="Trazado 154847" d="M335.38,114.86l-13.54,67.29a4.64,4.64,0,0,0,4.56,5.56h97.49a4.66,4.66,0,0,0,4.55-3.67l14.4-67.29a4.65,4.65,0,0,0-4.55-5.62H339.94a4.66,4.66,0,0,0-4.56,3.73Z" fill="#cb9da8"/>
            <path id="Trazado_154848" data-name="Trazado 154848" d="M339.78,118l-13.54,67.29a4.65,4.65,0,0,0,4.56,5.57h97.48a4.65,4.65,0,0,0,4.55-3.68l14.4-67.29a4.64,4.64,0,0,0-4.54-5.62H344.34a4.65,4.65,0,0,0-4.56,3.73Z" fill="#eac8ce"/>
            <path id="Trazado_154849" data-name="Trazado 154849" d="M375.27,173.1l-1.82,17.79h7.91Z" fill="#cb9da8"/>
            <path id="Trazado_154850" data-name="Trazado 154850" d="M375.27,172.73l8.07,39.84h29.43l-13.8-39.84Z" fill="#f6dae0"/>
            <circle id="Elipse_6961" data-name="Elipse 6961" cx="6.53" cy="6.53" r="6.53" transform="translate(384.19 135.56)" fill="#fff"/>
            <path id="Trazado_154851" data-name="Trazado 154851" d="M430.18,208.86H360.81a1.92,1.92,0,0,0-1.93,1.93h0a1.92,1.92,0,0,0,1.93,1.92h69.37a1.92,1.92,0,0,0,1.92-1.92h0a1.92,1.92,0,0,0-1.92-1.93Z" fill="#eac8ce"/>
            <path id="Trazado_154852" data-name="Trazado 154852" d="M343.69,208.86H307a1.92,1.92,0,0,0-1.92,1.93h0a1.92,1.92,0,0,0,1.92,1.92h36.74a1.92,1.92,0,0,0,1.93-1.92h0a1.92,1.92,0,0,0-1.98-1.93Z" fill="#eac8ce"/>
          </g>
          <g id="Grupo_85892" data-name="Grupo 85892">
            <line id="Línea_468" data-name="Línea 468" y2="113.61" transform="translate(298.29 218.84)" fill="none" stroke="#55382e" stroke-miterlimit="10" stroke-width="1.16"/>
            <line id="Línea_469" data-name="Línea 469" y2="113.61" transform="translate(226.28 218.84)" fill="none" stroke="#55382e" stroke-miterlimit="10" stroke-width="1.16"/>
            <line id="Línea_470" data-name="Línea 470" y2="113.61" transform="translate(473.04 218.84)" fill="none" stroke="#55382e" stroke-miterlimit="10" stroke-width="1.16"/>
            <line id="Línea_471" data-name="Línea 471" y2="113.61" transform="translate(401.03 218.84)" fill="none" stroke="#55382e" stroke-miterlimit="10" stroke-width="1.16"/>
            <rect id="Rectángulo_36836" data-name="Rectángulo 36836" width="68.13" height="9.14" transform="translate(209.53 212.57)" fill="#eac8ce"/>
            <rect id="Rectángulo_36837" data-name="Rectángulo 36837" width="214.03" height="9.14" transform="translate(277.53 212.57)" fill="#fff"/>
          </g>
        </g>
        <line id="Línea_472" data-name="Línea 472" x1="348.88" transform="translate(147.37 332.45)" fill="none" stroke="#55382e" stroke-miterlimit="10" stroke-width="1.16"/>
      </g>
    </g>
    <g id="Grupo_85897" data-name="Grupo 85897">
      <path id="Trazado_154853" data-name="Trazado 154853" d="M124.87,88.7a17.92,17.92,0,0,1,3.73,15.14c-1.1,5.9-4.37,11.12-8.22,15.61a76.3,76.3,0,0,1-10.31,9.78c-4.3,3.46-8.53,7.19-11.23,12.06a15.79,15.79,0,0,0-1.26,13.14c2.55,7.38,8.49,12.86,11.73,19.82-3.58-3.15-7.08-6.43-10.36-9.89a47.53,47.53,0,0,1-8.79-12.1,14.55,14.55,0,0,1-1-10.32c1.11-3.46,3.58-6.24,6-8.83,6.89-6.89,15.38-12,22.12-19,3.73-3.85,6.81-8.45,7.88-13.74a27.75,27.75,0,0,0-.35-11.72Z" fill="#e12022" stroke="#e12022" stroke-miterlimit="10" stroke-width="0.09"/>
      <path id="Trazado_154854" data-name="Trazado 154854" d="M119.24,132.05c7.38-5.45,16-8.91,24.78-11.42-6.93,4.41-14.16,8.45-20.14,14.12a18.68,18.68,0,0,0-5.17,7.42,9.45,9.45,0,0,0,.45,6.62c1.6,3.66,4.31,6.62,6.36,10a10.55,10.55,0,0,1,.72,9.6c-2,4.52-6,7.84-10.08,10.46-.54.31-1,.88-1.64,1,2.74-2.47,4.87-6,4.8-9.74-.08-2.82-1.64-5.29-3.47-7.31-3.76-4.49-6.92-10.2-6.28-16.25s5-10.92,9.67-14.42Z" fill="#e12022" stroke="#e12022" stroke-miterlimit="10" stroke-width="0.09"/>
      <path id="Trazado_154855" data-name="Trazado 154855" d="M145.43,176c1.59-1.94,4.14-2.43,6.47-2.74a14.19,14.19,0,0,1,11.38,3.28,10.3,10.3,0,0,1,3.38,9.13c-.57,3.92-3.19,7.19-6.16,9.67-5.37,4.3-12,6.81-18.61,8.49a6.251,6.251,0,0,1,1.29-1.11c5-2.7,10-5.86,13.7-10.27,2.25-2.75,4-6.32,3.27-9.94-.76-4.19-4.83-7.23-9-7.46-2-.19-3.84.57-5.74.95Z" fill="#0b6fb6" stroke="#0b6fb6" stroke-miterlimit="10" stroke-width="0.09"/>
      <path id="Trazado_154856" data-name="Trazado 154856" d="M68.93,179.51a54.88,54.88,0,0,1,22.26-4.84c-4.45,1.3-9,2.4-13.21,4.38a6,6,0,0,0-2.7,2.06c-.3.79.53,1.33,1.14,1.59,2.59,1.07,5.45,1.22,8.22,1.49a229.849,229.849,0,0,0,29.23-.34c9.6-.61,19.11-1.91,28.59-3.43a51.709,51.709,0,0,0-6.17,3.24A9.73,9.73,0,0,1,133,184.8c-11.65,2.59-23.6,3.38-35.47,3.57-4.61,0-9.17,0-13.74-.34A79.24,79.24,0,0,1,68.54,186a10.26,10.26,0,0,1-4.11-1.91,1.32,1.32,0,0,1-.07-1.9c1.25-1.29,3-1.9,4.57-2.66Z" fill="#0b6fb6" stroke="#0b6fb6" stroke-miterlimit="10" stroke-width="0.09"/>
      <path id="Trazado_154857" data-name="Trazado 154857" d="M77.91,195.76a22.67,22.67,0,0,1,6.7-3.27c-.77.91-1.83,1.78-1.91,3a2.15,2.15,0,0,0,1.3,1.83,12.3,12.3,0,0,0,4,1.06,129.138,129.138,0,0,0,22.08.69,162.685,162.685,0,0,0,20.09-2.63,22.11,22.11,0,0,0,6.28,3.92,120.469,120.469,0,0,1-24.59,4.38A104.05,104.05,0,0,1,88.3,204a32.9,32.9,0,0,1-9.06-2.66c-1.14-.61-2.44-1.41-2.78-2.75a3.06,3.06,0,0,1,1.45-2.81Z" fill="#0b6fb6" stroke="#0b6fb6" stroke-miterlimit="10" stroke-width="0.09"/>
      <path id="Trazado_154858" data-name="Trazado 154858" d="M82.32,212.35a16.77,16.77,0,0,1,6.05-2.74c-.68.65-1.9,1.45-1.37,2.55,1,1.33,2.93,1.49,4.46,1.83a97.459,97.459,0,0,0,19.37.84,130.609,130.609,0,0,0,14.42-2,70.939,70.939,0,0,0,8.53,4.19,63.421,63.421,0,0,1-14.16,4.22,74.711,74.711,0,0,1-24.74.34,34.31,34.31,0,0,1-10.58-3.27,6.4,6.4,0,0,1-3.12-3,2.75,2.75,0,0,1,1.14-3Z" fill="#0b6fb6" stroke="#0b6fb6" stroke-miterlimit="10" stroke-width="0.09"/>
      <path id="Trazado_154859" data-name="Trazado 154859" d="M61.2,223.12A37.6,37.6,0,0,1,72,220.88a7.94,7.94,0,0,1,4.3.8,32.58,32.58,0,0,0-12.79,3.38,4.31,4.31,0,0,0-2.21,2.1c0,1.18,1.34,1.56,2.21,1.94,5.52,2.05,11.42,2.7,17.2,3.31a298.2,298.2,0,0,0,51.84-.49c6.51-.73,13.06-1.45,19.37-3.24,2-.69,4.3-1.37,5.64-3.16.8-1.06.26-2.4-.54-3.31,1.3.72,3.12,1.64,2.86,3.39-.5,1.82-2.36,2.78-3.88,3.65-4.87,2.47-10.24,3.73-15.57,4.83-15.49,3-31.36,3.73-47.12,3.28a263.929,263.929,0,0,1-35.47-3.58c-2.09-.49-4.45-.91-6-2.55-1-1.14-.11-2.74.84-3.58,2.4-2.21,5.48-3.42,8.49-4.53Z" fill="#0b6fb6" stroke="#0b6fb6" stroke-miterlimit="10" stroke-width="0.09"/>
      <path id="Trazado_154860" data-name="Trazado 154860" d="M156,236.14c3.85-1.33,8-2.74,10.81-5.79-.49,3.32-3.35,5.6-6.16,7.08-5.41,2.82-11.46,4.11-17.47,5.18a220.3,220.3,0,0,1-38.52,2.28c-8.79-.26-17.66-.61-26.3-2.43-2.05-.57-4.26-1-6.05-2.17a183.264,183.264,0,0,0,23.29,2.13,249.42,249.42,0,0,0,38.44-1.71,132,132,0,0,0,22-4.57Z" fill="#0b6fb6" stroke="#0b6fb6" stroke-miterlimit="10" stroke-width="0.09"/>
      <path id="Trazado_154861" data-name="Trazado 154861" d="M55.76,292.58V255.09c2.59.08,5.18,0,7.77.08v42c-.08,3.92-.15,8-2.05,11.53a18.77,18.77,0,0,1-9.79,7.88c-1.25-1.37-2.39-2.82-3.65-4.19h0c3.2-1.86,6.39-4.53,7.16-8.37s.49-7.61.57-11.42Z" fill="#e12022" stroke="#e12022" stroke-miterlimit="10" stroke-width="0.09"/>
      <path id="Trazado_154862" data-name="Trazado 154862" d="M70.75,270.13a33,33,0,0,1,16.44-2.74c2.9.34,5.9,1.41,7.77,3.73a10.94,10.94,0,0,1,2.09,7v25.54H91.3c-.19-1.26-.38-2.55-.53-3.85a19.8,19.8,0,0,1-7.19,4,15.53,15.53,0,0,1-9.48-.46,8.28,8.28,0,0,1-4.79-5.48,11.53,11.53,0,0,1,2-10.54c2.25-2.63,5.63-3.92,9-4.53a48.4,48.4,0,0,1,9.4-.61c-.07-2.4.38-5-1-7.15a6.28,6.28,0,0,0-5-2.4c-4.07-.35-8.11.68-12,2-.38-1.52-.73-3-1.07-4.56m9.44,17.66a5.34,5.34,0,0,0-3.69,3.5,6.82,6.82,0,0,0,.87,5.86c1.22,1.6,3.43,2,5.33,1.75a13.927,13.927,0,0,0,7-3.46v-8.53c-3.19,0-6.47-.19-9.55.88Z" fill="#e12022" stroke="#e12022" stroke-miterlimit="10" stroke-width="0.09"/>
      <path id="Trazado_154863" data-name="Trazado 154863" d="M137.66,270.13a32.83,32.83,0,0,1,16.52-2.74,11.55,11.55,0,0,1,7.57,3.57A11.36,11.36,0,0,1,164,278.5c0,8.41,0,16.78-.08,25.2-1.9-.08-3.8,0-5.71-.08-.19-1.29-.34-2.55-.57-3.81a17,17,0,0,1-9.47,4.46c-3.31.3-7-.12-9.63-2.48-2.71-2.51-3.16-6.58-2.48-10.05a10.74,10.74,0,0,1,5.94-7.23c4.53-2.2,9.71-2.32,14.65-2.28-.07-2.32.35-4.8-.83-6.89a5.9,5.9,0,0,0-4.68-2.63c-4.23-.45-8.45.61-12.41,2-.34-1.52-.73-3-1.07-4.56m9.33,17.7a5.43,5.43,0,0,0-3.58,3.42,7,7,0,0,0,.84,5.9c1.25,1.64,3.5,2,5.44,1.75a13.92,13.92,0,0,0,7-3.58c-.07-2.78,0-5.59,0-8.41-3.23,0-6.54-.19-9.66.92Z" fill="#e12022" stroke="#e12022" stroke-miterlimit="10" stroke-width="0.09"/>
      <path id="Trazado_154864" data-name="Trazado 154864" d="M101.39,267.84h8c1.56,5,3.09,10,4.65,15,.91,3.08,2,6.12,2.7,9.28.34,1.41.65,2.86,1.06,4.23a141,141,0,0,0,7.08-28.55h7.77a145.42,145.42,0,0,1-11.12,35.82H112.4c-3.65-12-7.35-23.87-11-35.82Z" fill="#e12022" stroke="#e12022" stroke-miterlimit="10" stroke-width="0.09"/>
      <g id="Grupo_85896" data-name="Grupo 85896">
        <path id="Trazado_154865" data-name="Trazado 154865" d="M165.52,267.15h-.94v-.34h2.28v.34h-.94v2.74h-.4Z" fill="#e12022" stroke="#e12022" stroke-miterlimit="10" stroke-width="0.09"/>
        <path id="Trazado_154866" data-name="Trazado 154866" d="M169.8,268.54c0-.43-.05-1-.05-1.33h0q-.17.54-.39,1.17l-.54,1.49h-.31l-.5-1.46c-.14-.44-.26-.83-.35-1.2h0a10.858,10.858,0,0,1-.06,1.36l-.08,1.32h-.38l.22-3.08h.5l.53,1.49c.13.38.23.72.31,1h0a8.313,8.313,0,0,1,.33-1l.54-1.49h.51l.19,3.08h-.39Z" fill="#e12022" stroke="#e12022" stroke-miterlimit="10" stroke-width="0.09"/>
      </g>
    </g>
  </g>
</svg>
