<svg xmlns="http://www.w3.org/2000/svg" xmlns:xlink="http://www.w3.org/1999/xlink" width="490.217" height="302.33" viewBox="0 0 490.217 302.33">
  <defs>
    <clipPath id="clip-path">
      <path id="Trazado_160123" data-name="Trazado 160123" d="M167.09,233,93.16,190.28c-2-1.17-3.21-4.29-2.63-7L102.25,130c.59-2.67,2.71-3.88,4.75-2.7l73.93,42.66c2,1.18,3.21,4.3,2.63,7L171.84,230.3C171.25,232.91,169.13,234.12,167.09,233Z" fill="none"/>
    </clipPath>
  </defs>
  <g id="img3" transform="translate(-11.983 -50.82)">
    <g id="Capa_1" data-name="Capa 1">
      <g id="Grupo_87822" data-name="Grupo 87822">
        <path id="Trazado_160422" data-name="Trazado 160422" d="M12,0h88.43a12,12,0,0,1,12,12V57.62a12,12,0,0,1-12,12H12a12,12,0,0,1-12-12V12A12,12,0,0,1,12,0Z" transform="translate(217.14 71.72)" fill="#ffecb1"/>
        <rect id="Rectángulo_37400" data-name="Rectángulo 37400" width="112.43" height="69.62" rx="12" transform="translate(219.47 283.53)" fill="#ffecb1"/>
        <path id="Trazado_160423" data-name="Trazado 160423" d="M7.778-3.357A1.353,1.353,0,0,0,7.251-4.5a6.917,6.917,0,0,0-1.9-.844,13.458,13.458,0,0,1-2.171-.875A3.547,3.547,0,0,1,1-9.4a3.09,3.09,0,0,1,.584-1.85,3.812,3.812,0,0,1,1.679-1.27,6.318,6.318,0,0,1,2.457-.457,5.751,5.751,0,0,1,2.443.5,3.891,3.891,0,0,1,1.666,1.4,3.668,3.668,0,0,1,.593,2.057H7.787a1.726,1.726,0,0,0-.554-1.367,2.276,2.276,0,0,0-1.556-.488,2.432,2.432,0,0,0-1.5.409,1.289,1.289,0,0,0-.536,1.077,1.235,1.235,0,0,0,.628,1.046,7.1,7.1,0,0,0,1.85.791A7.994,7.994,0,0,1,9.4-5.871a3.343,3.343,0,0,1,1.028,2.5A3.08,3.08,0,0,1,9.167-.769,5.5,5.5,0,0,1,5.783.176,6.534,6.534,0,0,1,3.094-.365a4.256,4.256,0,0,1-1.85-1.481,3.793,3.793,0,0,1-.637-2.18H3.252q0,2.118,2.531,2.118A2.462,2.462,0,0,0,7.251-2.29,1.244,1.244,0,0,0,7.778-3.357ZM16.418.176a4.668,4.668,0,0,1-3.406-1.283A4.561,4.561,0,0,1,11.7-4.526v-.246a5.745,5.745,0,0,1,.554-2.562,4.064,4.064,0,0,1,1.569-1.74,4.4,4.4,0,0,1,2.316-.611,3.947,3.947,0,0,1,3.072,1.23,5,5,0,0,1,1.121,3.489v1.037H14.273a2.36,2.36,0,0,0,.743,1.494,2.245,2.245,0,0,0,1.569.563,2.742,2.742,0,0,0,2.294-1.063l1.248,1.4A3.813,3.813,0,0,1,18.58-.277,5.075,5.075,0,0,1,16.418.176Zm-.29-7.813a1.587,1.587,0,0,0-1.226.512,2.651,2.651,0,0,0-.6,1.466h3.533v-.2a1.891,1.891,0,0,0-.457-1.311A1.638,1.638,0,0,0,16.128-7.638Zm10.986.51A6.9,6.9,0,0,0,26.2-7.2a1.86,1.86,0,0,0-1.89.976V0h-2.54V-9.51h2.4l.07,1.134a2.354,2.354,0,0,1,2.118-1.31,2.662,2.662,0,0,1,.791.114ZM32.234-3.1,34-9.51h2.654L33.447,0H31.021L27.813-9.51h2.654ZM40.451,0H37.9V-13.5h2.549ZM46.92.176a4.668,4.668,0,0,1-3.406-1.283A4.561,4.561,0,0,1,42.2-4.526v-.246a5.745,5.745,0,0,1,.554-2.562,4.064,4.064,0,0,1,1.569-1.74,4.4,4.4,0,0,1,2.316-.611,3.947,3.947,0,0,1,3.072,1.23,5,5,0,0,1,1.121,3.489v1.037H44.776a2.36,2.36,0,0,0,.743,1.494,2.245,2.245,0,0,0,1.569.563,2.742,2.742,0,0,0,2.294-1.063l1.248,1.4A3.813,3.813,0,0,1,49.082-.277,5.075,5.075,0,0,1,46.92.176Zm-.29-7.813a1.587,1.587,0,0,0-1.226.512,2.651,2.651,0,0,0-.6,1.466h3.533v-.2a1.891,1.891,0,0,0-.457-1.311A1.638,1.638,0,0,0,46.63-7.638Zm8.684-4.21V-9.51H56.94v1.863H55.314V-2.9a1.133,1.133,0,0,0,.2.756,1.015,1.015,0,0,0,.773.229,4.051,4.051,0,0,0,.747-.062V-.053A5.229,5.229,0,0,1,55.5.176a2.425,2.425,0,0,1-2.725-2.7V-7.646H51.385V-9.51h1.389v-2.338Z" transform="translate(241.58 105.86)" fill="#12263f"/>
        <path id="Trazado_160428" data-name="Trazado 160428" d="M6.3-12.8H8.938v8.859A4.237,4.237,0,0,1,8.4-1.78,3.668,3.668,0,0,1,6.873-.334a4.764,4.764,0,0,1-2.224.51A4.528,4.528,0,0,1,1.485-.857,3.752,3.752,0,0,1,.352-3.779H3.006a2.057,2.057,0,0,0,.4,1.389,1.582,1.582,0,0,0,1.248.448,1.511,1.511,0,0,0,1.2-.519A2.191,2.191,0,0,0,6.3-3.937ZM17.833-3.357A1.353,1.353,0,0,0,17.306-4.5a6.917,6.917,0,0,0-1.9-.844,13.458,13.458,0,0,1-2.171-.875A3.547,3.547,0,0,1,11.057-9.4a3.09,3.09,0,0,1,.584-1.85,3.812,3.812,0,0,1,1.679-1.27,6.318,6.318,0,0,1,2.457-.457,5.751,5.751,0,0,1,2.443.5,3.891,3.891,0,0,1,1.666,1.4,3.668,3.668,0,0,1,.593,2.057H17.842a1.726,1.726,0,0,0-.554-1.367,2.276,2.276,0,0,0-1.556-.488,2.432,2.432,0,0,0-1.5.409,1.289,1.289,0,0,0-.536,1.077,1.235,1.235,0,0,0,.628,1.046,7.1,7.1,0,0,0,1.85.791A7.994,7.994,0,0,1,19.45-5.871a3.343,3.343,0,0,1,1.028,2.5A3.08,3.08,0,0,1,19.222-.769a5.5,5.5,0,0,1-3.384.945,6.534,6.534,0,0,1-2.689-.541A4.256,4.256,0,0,1,11.3-1.846a3.793,3.793,0,0,1-.637-2.18h2.646q0,2.118,2.531,2.118a2.462,2.462,0,0,0,1.468-.382A1.244,1.244,0,0,0,17.833-3.357ZM24.9-4.509V0H22.263V-12.8h4.992a5.776,5.776,0,0,1,2.536.527,3.886,3.886,0,0,1,1.683,1.5,4.178,4.178,0,0,1,.589,2.21,3.674,3.674,0,0,1-1.288,2.966,5.363,5.363,0,0,1-3.564,1.085Zm0-2.136h2.355a2.316,2.316,0,0,0,1.6-.492A1.79,1.79,0,0,0,29.4-8.543a2.111,2.111,0,0,0-.554-1.521,2.068,2.068,0,0,0-1.529-.6H24.9Z" transform="translate(253.76 322.57)" fill="#12263f"/>
        <g id="Grupo">
          <path id="Trazado_160427" data-name="Trazado 160427" d="M5.492-4.6H2.82V0H1.313V-11.375H5.078a4.457,4.457,0,0,1,2.957.875A3.148,3.148,0,0,1,9.07-7.953,3.062,3.062,0,0,1,8.5-6.1a3.428,3.428,0,0,1-1.6,1.18L9.57-.094V0H7.961ZM2.82-5.828h2.3A2.6,2.6,0,0,0,6.9-6.407a1.959,1.959,0,0,0,.66-1.55,2.062,2.062,0,0,0-.629-1.62,2.663,2.663,0,0,0-1.816-.571H2.82ZM14.453.156a3.693,3.693,0,0,1-2.8-1.129,4.19,4.19,0,0,1-1.078-3.02v-.266a5.073,5.073,0,0,1,.48-2.246A3.748,3.748,0,0,1,12.4-8.051a3.378,3.378,0,0,1,1.871-.559,3.166,3.166,0,0,1,2.563,1.086,4.7,4.7,0,0,1,.914,3.109v.6H12.023a3,3,0,0,0,.73,2.02,2.3,2.3,0,0,0,1.777.77,2.517,2.517,0,0,0,1.3-.312,3.259,3.259,0,0,0,.93-.828l.883.688A3.55,3.55,0,0,1,14.453.156Zm-.18-7.578a1.928,1.928,0,0,0-1.469.637A3.1,3.1,0,0,0,12.07-5H16.3v-.109a2.753,2.753,0,0,0-.594-1.707A1.815,1.815,0,0,0,14.273-7.422Zm10.07,5.18a1.064,1.064,0,0,0-.441-.91,4.249,4.249,0,0,0-1.539-.559,7.277,7.277,0,0,1-1.742-.562,2.479,2.479,0,0,1-.953-.781,1.869,1.869,0,0,1-.309-1.078,2.193,2.193,0,0,1,.879-1.758,3.432,3.432,0,0,1,2.246-.719,3.532,3.532,0,0,1,2.332.742,2.357,2.357,0,0,1,.895,1.9H24.258a1.3,1.3,0,0,0-.5-1.023,1.888,1.888,0,0,0-1.27-.43,1.976,1.976,0,0,0-1.234.344,1.082,1.082,0,0,0-.445.9.877.877,0,0,0,.414.789,5.1,5.1,0,0,0,1.5.508,7.8,7.8,0,0,1,1.754.578,2.558,2.558,0,0,1,1,.809,1.988,1.988,0,0,1,.324,1.152,2.163,2.163,0,0,1-.906,1.816,3.8,3.8,0,0,1-2.352.684,4.257,4.257,0,0,1-1.8-.359,2.922,2.922,0,0,1-1.223-1A2.42,2.42,0,0,1,19.07-2.6h1.445A1.5,1.5,0,0,0,21.1-1.449a2.258,2.258,0,0,0,1.434.426,2.331,2.331,0,0,0,1.316-.332A1.02,1.02,0,0,0,24.344-2.242ZM32.891-.836a3.07,3.07,0,0,1-2.477.992,2.628,2.628,0,0,1-2.059-.785,3.4,3.4,0,0,1-.715-2.324v-5.5h1.445v5.461q0,1.922,1.563,1.922a2.163,2.163,0,0,0,2.2-1.234V-8.453H34.3V0H32.922ZM38.063,0H36.617V-12h1.445Zm4.273-10.5v2.047h1.578v1.117H42.336v5.249a1.173,1.173,0,0,0,.211.763.888.888,0,0,0,.719.254,3.5,3.5,0,0,0,.688-.094V0a4.215,4.215,0,0,1-1.109.155A1.8,1.8,0,0,1,41.383-.43a2.517,2.517,0,0,1-.492-1.664V-7.336H39.352V-8.453h1.539V-10.5Z" transform="translate(323.26 199.03)" fill="#12263f"/>
          <path id="Trazado_160426" data-name="Trazado 160426" d="M1.32,0V-11.375H5.039a4.317,4.317,0,0,1,2.785.766,2.759,2.759,0,0,1,.934,2.266A2.31,2.31,0,0,1,8.3-6.934a2.938,2.938,0,0,1-1.234.949A2.638,2.638,0,0,1,8.527-5a2.814,2.814,0,0,1,.535,1.723A3.042,3.042,0,0,1,8.07-.875,4.1,4.1,0,0,1,5.266,0Zm1.5-5.32v4.094H5.3A2.385,2.385,0,0,0,6.949-1.77a1.907,1.907,0,0,0,.605-1.5q0-2.055-2.234-2.055Zm0-1.2H5.086A2.375,2.375,0,0,0,6.66-7.017a1.654,1.654,0,0,0,.59-1.339A1.626,1.626,0,0,0,6.7-9.722a2.686,2.686,0,0,0-1.664-.427H2.82ZM14.563.156a3.693,3.693,0,0,1-2.8-1.129,4.19,4.19,0,0,1-1.078-3.02v-.266a5.073,5.073,0,0,1,.48-2.246,3.748,3.748,0,0,1,1.344-1.547,3.378,3.378,0,0,1,1.871-.559,3.166,3.166,0,0,1,2.563,1.086,4.7,4.7,0,0,1,.914,3.109v.6H12.133a3,3,0,0,0,.73,2.02,2.3,2.3,0,0,0,1.777.77,2.517,2.517,0,0,0,1.3-.312,3.259,3.259,0,0,0,.93-.828l.883.688A3.55,3.55,0,0,1,14.563.156Zm-.18-7.578a1.928,1.928,0,0,0-1.469.637A3.1,3.1,0,0,0,12.18-5h4.234v-.109a2.753,2.753,0,0,0-.594-1.707A1.815,1.815,0,0,0,14.383-7.422ZM24.75,0a3.036,3.036,0,0,1-.2-.891A3.225,3.225,0,0,1,22.141.156,2.984,2.984,0,0,1,20.09-.551a2.287,2.287,0,0,1-.8-1.793,2.39,2.39,0,0,1,1-2.051,4.733,4.733,0,0,1,2.824-.73h1.406v-.664A1.623,1.623,0,0,0,24.07-7a1.821,1.821,0,0,0-1.336-.449,2.108,2.108,0,0,0-1.3.391,1.151,1.151,0,0,0-.523.945H19.461a2,2,0,0,1,.449-1.223,3.066,3.066,0,0,1,1.219-.934,4.1,4.1,0,0,1,1.691-.344,3.342,3.342,0,0,1,2.289.73,2.635,2.635,0,0,1,.859,2.012v3.891a4.757,4.757,0,0,0,.3,1.852V0Zm-2.4-1.1a2.54,2.54,0,0,0,1.289-.352,2.127,2.127,0,0,0,.883-.914V-4.1H23.391q-2.656,0-2.656,1.555a1.316,1.316,0,0,0,.453,1.063A1.742,1.742,0,0,0,22.352-1.1ZM29.6-8.453l.047,1.063A3.08,3.08,0,0,1,32.18-8.609q2.68,0,2.7,3.023V0H33.438V-5.594a1.946,1.946,0,0,0-.418-1.352,1.675,1.675,0,0,0-1.277-.437,2.086,2.086,0,0,0-1.234.375,2.546,2.546,0,0,0-.828.984V0H28.234V-8.453Z" transform="translate(323.26 218.23)" fill="#12263f"/>
        </g>
        <g id="Grupo_87633" data-name="Grupo 87633">
          <line id="Línea_541" data-name="Línea 541" y2="138.15" transform="translate(247.73 140.07)" fill="none" stroke="#024e73" stroke-miterlimit="10" stroke-width="2"/>
          <path id="Trazado_160004" data-name="Trazado 160004" d="M244.04,277.14l3.69,6.39,3.69-6.39Z" fill="#024e73"/>
        </g>
        <g id="Grupo_87634" data-name="Grupo 87634">
          <line id="Línea_542" data-name="Línea 542" y2="35.41" transform="translate(297.61 140.07)" fill="none" stroke="#024e73" stroke-miterlimit="10" stroke-width="2"/>
          <path id="Trazado_160005" data-name="Trazado 160005" d="M293.92,174.4l3.69,6.39,3.69-6.39Z" fill="#024e73"/>
        </g>
        <g id="Grupo_87635" data-name="Grupo 87635">
          <line id="Línea_543" data-name="Línea 543" y2="30.1" transform="translate(297.61 244.35)" fill="none" stroke="#024e73" stroke-miterlimit="10" stroke-width="2"/>
          <path id="Trazado_160006" data-name="Trazado 160006" d="M293.92,245.43l3.69-6.39,3.69,6.39Z" fill="#024e73"/>
          <path id="Trazado_160007" data-name="Trazado 160007" d="M293.92,273.37l3.69,6.39,3.69-6.39Z" fill="#024e73"/>
        </g>
        <g id="Grupo_87636" data-name="Grupo 87636">
          <line id="Línea_544" data-name="Línea 544" x2="13.15" transform="translate(198.05 101.61)" fill="none" stroke="#024e73" stroke-miterlimit="10" stroke-width="2"/>
          <path id="Trazado_160008" data-name="Trazado 160008" d="M210.12,105.3l6.39-3.69-6.39-3.69Z" fill="#024e73"/>
        </g>
        <g id="Grupo_87637" data-name="Grupo 87637">
          <line id="Línea_545" data-name="Línea 545" x2="16.49" transform="translate(405.2 101.61)" fill="none" stroke="#024e73" stroke-miterlimit="10" stroke-width="2"/>
          <path id="Trazado_160009" data-name="Trazado 160009" d="M420.61,105.3l6.39-3.69-6.39-3.69Z" fill="#024e73"/>
        </g>
        <g id="Grupo_87638" data-name="Grupo 87638">
          <line id="Línea_546" data-name="Línea 546" x2="21.03" transform="translate(334.88 101.61)" fill="none" stroke="#024e73" stroke-miterlimit="10" stroke-width="2"/>
          <path id="Trazado_160010" data-name="Trazado 160010" d="M335.96,105.3l-6.39-3.69,6.39-3.69Z" fill="#024e73"/>
        </g>
        <g id="Grupo_87639" data-name="Grupo 87639">
          <line id="Línea_547" data-name="Línea 547" x2="12.16" transform="translate(199.04 318.12)" fill="none" stroke="#024e73" stroke-miterlimit="10" stroke-width="2"/>
          <path id="Trazado_160011" data-name="Trazado 160011" d="M210.12,321.81l6.39-3.69-6.39-3.69Z" fill="#024e73"/>
        </g>
        <g id="Grupo_87640" data-name="Grupo 87640">
          <path id="Trazado_160012" data-name="Trazado 160012" d="M117.32,101.61H87.28v42.74" fill="none" stroke="#024e73" stroke-miterlimit="10" stroke-width="2"/>
          <path id="Trazado_160013" data-name="Trazado 160013" d="M116.24,97.92l6.39,3.69-6.39,3.69Z" fill="#024e73"/>
        </g>
        <g id="Grupo_87641" data-name="Grupo 87641">
          <path id="Trazado_160014" data-name="Trazado 160014" d="M117.32,316.12H87.28V281.89" fill="none" stroke="#024e73" stroke-miterlimit="10" stroke-width="2"/>
          <path id="Trazado_160015" data-name="Trazado 160015" d="M116.24,312.43l6.39,3.69-6.39,3.69Z" fill="#024e73"/>
        </g>
        <path id="Trazado_160421" data-name="Trazado 160421" d="M5.492-4.6H2.82V0H1.313V-11.375H5.078a4.457,4.457,0,0,1,2.957.875A3.148,3.148,0,0,1,9.07-7.953,3.062,3.062,0,0,1,8.5-6.1a3.428,3.428,0,0,1-1.6,1.18L9.57-.094V0H7.961ZM2.82-5.828h2.3A2.6,2.6,0,0,0,6.9-6.407a1.959,1.959,0,0,0,.66-1.55,2.062,2.062,0,0,0-.629-1.62,2.663,2.663,0,0,0-1.816-.571H2.82ZM14.453.156a3.693,3.693,0,0,1-2.8-1.129,4.19,4.19,0,0,1-1.078-3.02v-.266a5.073,5.073,0,0,1,.48-2.246A3.748,3.748,0,0,1,12.4-8.051a3.378,3.378,0,0,1,1.871-.559,3.166,3.166,0,0,1,2.563,1.086,4.7,4.7,0,0,1,.914,3.109v.6H12.023a3,3,0,0,0,.73,2.02,2.3,2.3,0,0,0,1.777.77,2.517,2.517,0,0,0,1.3-.312,3.259,3.259,0,0,0,.93-.828l.883.688A3.55,3.55,0,0,1,14.453.156Zm-.18-7.578a1.928,1.928,0,0,0-1.469.637A3.1,3.1,0,0,0,12.07-5H16.3v-.109a2.753,2.753,0,0,0-.594-1.707A1.815,1.815,0,0,0,14.273-7.422ZM19.07-4.3a4.961,4.961,0,0,1,.914-3.152,2.962,2.962,0,0,1,2.453-1.16A2.96,2.96,0,0,1,24.8-7.6l.063-.852H26.2V3.25H24.75V-.781a3.033,3.033,0,0,1-2.328.938A2.915,2.915,0,0,1,19.98-1.035a5.072,5.072,0,0,1-.91-3.16Zm1.445.164a3.761,3.761,0,0,0,.613,2.281,1.951,1.951,0,0,0,1.652.828A2.164,2.164,0,0,0,24.75-2.164V-6.3A2.171,2.171,0,0,0,22.8-7.422a1.965,1.965,0,0,0-1.664.832A4.094,4.094,0,0,0,20.516-4.133Zm13.219,3.3a3.07,3.07,0,0,1-2.477.992A2.628,2.628,0,0,1,29.2-.629a3.4,3.4,0,0,1-.715-2.324v-5.5H29.93v5.461q0,1.922,1.563,1.922A2.163,2.163,0,0,0,33.7-2.3V-8.453h1.445V0H33.766Zm7.109.992a3.693,3.693,0,0,1-2.8-1.129,4.19,4.19,0,0,1-1.078-3.02v-.266a5.073,5.073,0,0,1,.48-2.246,3.748,3.748,0,0,1,1.344-1.547,3.378,3.378,0,0,1,1.871-.559,3.166,3.166,0,0,1,2.563,1.086,4.7,4.7,0,0,1,.914,3.109v.6H38.414a3,3,0,0,0,.73,2.02,2.3,2.3,0,0,0,1.777.77,2.517,2.517,0,0,0,1.3-.312,3.259,3.259,0,0,0,.93-.828l.883.688A3.55,3.55,0,0,1,40.844.156Zm-.18-7.578a1.928,1.928,0,0,0-1.469.637A3.1,3.1,0,0,0,38.461-5H42.7v-.109A2.753,2.753,0,0,0,42.1-6.816,1.815,1.815,0,0,0,40.664-7.422Zm10.07,5.18a1.064,1.064,0,0,0-.441-.91,4.249,4.249,0,0,0-1.539-.559,7.277,7.277,0,0,1-1.742-.562,2.479,2.479,0,0,1-.953-.781,1.869,1.869,0,0,1-.309-1.078,2.193,2.193,0,0,1,.879-1.758,3.432,3.432,0,0,1,2.246-.719,3.532,3.532,0,0,1,2.332.742,2.357,2.357,0,0,1,.895,1.9H50.648a1.3,1.3,0,0,0-.5-1.023,1.888,1.888,0,0,0-1.27-.43,1.976,1.976,0,0,0-1.234.344,1.082,1.082,0,0,0-.445.9.877.877,0,0,0,.414.789,5.1,5.1,0,0,0,1.5.508,7.8,7.8,0,0,1,1.754.578,2.558,2.558,0,0,1,1,.809,1.988,1.988,0,0,1,.324,1.152,2.163,2.163,0,0,1-.906,1.816,3.8,3.8,0,0,1-2.352.684,4.257,4.257,0,0,1-1.8-.359,2.922,2.922,0,0,1-1.223-1A2.42,2.42,0,0,1,45.461-2.6h1.445a1.5,1.5,0,0,0,.582,1.152,2.258,2.258,0,0,0,1.434.426,2.331,2.331,0,0,0,1.316-.332A1.02,1.02,0,0,0,50.734-2.242ZM56.023-10.5v2.047H57.6v1.117H56.023v5.249a1.173,1.173,0,0,0,.211.763.888.888,0,0,0,.719.254,3.5,3.5,0,0,0,.688-.094V0a4.215,4.215,0,0,1-1.109.155A1.8,1.8,0,0,1,55.07-.43a2.517,2.517,0,0,1-.492-1.664V-7.336H53.039V-8.453h1.539V-10.5Z" transform="translate(139.89 105.91)" fill="#12263f"/>
        <path id="Trazado_160424" data-name="Trazado 160424" d="M6.086-11.375H7.594V-3.32a3.336,3.336,0,0,1-.98,2.555A3.66,3.66,0,0,1,4,.156,3.762,3.762,0,0,1,1.359-.711a3.132,3.132,0,0,1-.945-2.43h1.5a2.086,2.086,0,0,0,.535,1.523A2.073,2.073,0,0,0,4-1.07a2.012,2.012,0,0,0,1.5-.586A2.27,2.27,0,0,0,6.086-3.3ZM10.148,0V-11.375h3.719a4.317,4.317,0,0,1,2.785.766,2.759,2.759,0,0,1,.934,2.266,2.31,2.31,0,0,1-.453,1.41,2.937,2.937,0,0,1-1.234.949A2.638,2.638,0,0,1,17.355-5a2.814,2.814,0,0,1,.535,1.723A3.042,3.042,0,0,1,16.9-.875a4.1,4.1,0,0,1-2.8.875Zm1.5-5.32v4.094h2.477a2.385,2.385,0,0,0,1.652-.543,1.907,1.907,0,0,0,.605-1.5q0-2.055-2.234-2.055Zm0-1.2h2.266a2.375,2.375,0,0,0,1.574-.493,1.654,1.654,0,0,0,.59-1.339,1.626,1.626,0,0,0-.547-1.366,2.686,2.686,0,0,0-1.664-.427H11.648ZM20.109,0V-11.375H23.32a5.169,5.169,0,0,1,2.625.656,4.438,4.438,0,0,1,1.762,1.867,6.078,6.078,0,0,1,.629,2.781v.727a6.1,6.1,0,0,1-.621,2.82A4.369,4.369,0,0,1,25.941-.664,5.5,5.5,0,0,1,23.258,0Zm1.5-10.148v8.922h1.578a3.434,3.434,0,0,0,2.7-1.079,4.458,4.458,0,0,0,.965-3.073v-.665a4.529,4.529,0,0,0-.91-3.014,3.239,3.239,0,0,0-2.582-1.091ZM38.969-3.609A4.185,4.185,0,0,1,37.637-.824a4.365,4.365,0,0,1-2.98.98,4.008,4.008,0,0,1-3.23-1.445,5.815,5.815,0,0,1-1.215-3.867V-6.25a6.481,6.481,0,0,1,.566-2.789,4.231,4.231,0,0,1,1.605-1.848,4.47,4.47,0,0,1,2.406-.645A4.11,4.11,0,0,1,37.7-10.52a4.235,4.235,0,0,1,1.273,2.8H37.461a3.268,3.268,0,0,0-.848-1.975,2.565,2.565,0,0,0-1.824-.611,2.684,2.684,0,0,0-2.254,1.063,4.882,4.882,0,0,0-.816,3.026v1.1a5.018,5.018,0,0,0,.773,2.948A2.5,2.5,0,0,0,34.656-1.07a2.887,2.887,0,0,0,1.918-.566,3.143,3.143,0,0,0,.887-1.973Z" transform="translate(358.37 108.03)" fill="#12263f"/>
        <path id="Trazado_160425" data-name="Trazado 160425" d="M1.32,0V-11.375H4.531a5.169,5.169,0,0,1,2.625.656A4.438,4.438,0,0,1,8.918-8.852,6.078,6.078,0,0,1,9.547-6.07v.727a6.1,6.1,0,0,1-.621,2.82A4.369,4.369,0,0,1,7.152-.664,5.5,5.5,0,0,1,4.469,0Zm1.5-10.148v8.922H4.4A3.434,3.434,0,0,0,7.1-2.306a4.458,4.458,0,0,0,.965-3.073v-.665a4.529,4.529,0,0,0-.91-3.014A3.239,3.239,0,0,0,4.57-10.148ZM16.8,0a3.036,3.036,0,0,1-.2-.891A3.225,3.225,0,0,1,14.2.156a2.984,2.984,0,0,1-2.051-.707,2.287,2.287,0,0,1-.8-1.793,2.39,2.39,0,0,1,1-2.051,4.733,4.733,0,0,1,2.824-.73h1.406v-.664A1.623,1.623,0,0,0,16.125-7a1.821,1.821,0,0,0-1.336-.449,2.107,2.107,0,0,0-1.3.391,1.151,1.151,0,0,0-.523.945H11.516a2,2,0,0,1,.449-1.223,3.066,3.066,0,0,1,1.219-.934,4.1,4.1,0,0,1,1.691-.344,3.342,3.342,0,0,1,2.289.73,2.635,2.635,0,0,1,.859,2.012v3.891a4.757,4.757,0,0,0,.3,1.852V0Zm-2.4-1.1A2.54,2.54,0,0,0,15.7-1.453a2.127,2.127,0,0,0,.883-.914V-4.1H15.445q-2.656,0-2.656,1.555a1.316,1.316,0,0,0,.453,1.063A1.742,1.742,0,0,0,14.406-1.1Zm7.844-9.4v2.047h1.578v1.117H22.25v5.249a1.173,1.173,0,0,0,.211.763.888.888,0,0,0,.719.254,3.5,3.5,0,0,0,.688-.094V0a4.215,4.215,0,0,1-1.109.155A1.8,1.8,0,0,1,21.3-.43,2.517,2.517,0,0,1,20.8-2.094V-7.336H19.266V-8.453H20.8V-10.5ZM30.734,0a3.036,3.036,0,0,1-.2-.891A3.225,3.225,0,0,1,28.125.156a2.984,2.984,0,0,1-2.051-.707,2.287,2.287,0,0,1-.8-1.793,2.39,2.39,0,0,1,1-2.051,4.733,4.733,0,0,1,2.824-.73h1.406v-.664A1.623,1.623,0,0,0,30.055-7a1.821,1.821,0,0,0-1.336-.449,2.108,2.108,0,0,0-1.3.391,1.151,1.151,0,0,0-.523.945H25.445a2,2,0,0,1,.449-1.223,3.066,3.066,0,0,1,1.219-.934A4.1,4.1,0,0,1,28.8-8.609a3.342,3.342,0,0,1,2.289.73,2.635,2.635,0,0,1,.859,2.012v3.891a4.757,4.757,0,0,0,.3,1.852V0Zm-2.4-1.1a2.54,2.54,0,0,0,1.289-.352,2.127,2.127,0,0,0,.883-.914V-4.1H29.375q-2.656,0-2.656,1.555a1.316,1.316,0,0,0,.453,1.063A1.742,1.742,0,0,0,28.336-1.1ZM41.375-4.133a5.026,5.026,0,0,1-.891,3.113A2.846,2.846,0,0,1,38.094.156,2.947,2.947,0,0,1,35.617-.977L35.547,0H34.219V-12h1.445v4.477a2.93,2.93,0,0,1,2.414-1.086A2.863,2.863,0,0,1,40.5-7.445a5.177,5.177,0,0,1,.879,3.188ZM39.93-4.3a3.906,3.906,0,0,0-.57-2.281,1.888,1.888,0,0,0-1.641-.8,2.122,2.122,0,0,0-2.055,1.328V-2.4a2.181,2.181,0,0,0,2.07,1.328,1.878,1.878,0,0,0,1.617-.8A4.153,4.153,0,0,0,39.93-4.3ZM48.414,0a3.036,3.036,0,0,1-.2-.891A3.225,3.225,0,0,1,45.8.156a2.984,2.984,0,0,1-2.051-.707,2.287,2.287,0,0,1-.8-1.793,2.39,2.39,0,0,1,1-2.051,4.733,4.733,0,0,1,2.824-.73h1.406v-.664A1.623,1.623,0,0,0,47.734-7,1.821,1.821,0,0,0,46.4-7.445a2.107,2.107,0,0,0-1.3.391,1.151,1.151,0,0,0-.523.945H43.125a2,2,0,0,1,.449-1.223,3.066,3.066,0,0,1,1.219-.934,4.1,4.1,0,0,1,1.691-.344,3.342,3.342,0,0,1,2.289.73,2.635,2.635,0,0,1,.859,2.012v3.891a4.757,4.757,0,0,0,.3,1.852V0Zm-2.4-1.1A2.54,2.54,0,0,0,47.3-1.453a2.127,2.127,0,0,0,.883-.914V-4.1H47.055Q44.4-4.1,44.4-2.547a1.316,1.316,0,0,0,.453,1.063A1.742,1.742,0,0,0,46.016-1.1Zm10.8-1.141a1.064,1.064,0,0,0-.441-.91,4.249,4.249,0,0,0-1.539-.559A7.277,7.277,0,0,1,53.1-4.273a2.479,2.479,0,0,1-.953-.781,1.869,1.869,0,0,1-.309-1.078,2.193,2.193,0,0,1,.879-1.758,3.432,3.432,0,0,1,2.246-.719,3.532,3.532,0,0,1,2.332.742,2.357,2.357,0,0,1,.895,1.9H56.734a1.3,1.3,0,0,0-.5-1.023,1.888,1.888,0,0,0-1.27-.43,1.976,1.976,0,0,0-1.234.344,1.082,1.082,0,0,0-.445.9.877.877,0,0,0,.414.789,5.1,5.1,0,0,0,1.5.508,7.8,7.8,0,0,1,1.754.578,2.558,2.558,0,0,1,1,.809,1.988,1.988,0,0,1,.324,1.152,2.163,2.163,0,0,1-.906,1.816,3.8,3.8,0,0,1-2.352.684,4.257,4.257,0,0,1-1.8-.359,2.922,2.922,0,0,1-1.223-1A2.42,2.42,0,0,1,51.547-2.6h1.445a1.5,1.5,0,0,0,.582,1.152,2.258,2.258,0,0,0,1.434.426,2.331,2.331,0,0,0,1.316-.332A1.02,1.02,0,0,0,56.82-2.242Zm6.836,2.4a3.693,3.693,0,0,1-2.8-1.129,4.19,4.19,0,0,1-1.078-3.02v-.266a5.073,5.073,0,0,1,.48-2.246,3.748,3.748,0,0,1,1.344-1.547,3.378,3.378,0,0,1,1.871-.559,3.166,3.166,0,0,1,2.563,1.086,4.7,4.7,0,0,1,.914,3.109v.6H61.227a3,3,0,0,0,.73,2.02,2.3,2.3,0,0,0,1.777.77,2.517,2.517,0,0,0,1.3-.312,3.259,3.259,0,0,0,.93-.828l.883.688A3.55,3.55,0,0,1,63.656.156Zm-.18-7.578a1.928,1.928,0,0,0-1.469.637A3.1,3.1,0,0,0,61.273-5h4.234v-.109a2.753,2.753,0,0,0-.594-1.707A1.815,1.815,0,0,0,63.477-7.422Z" transform="translate(434.14 184.6)" fill="#12263f"/>
        <path id="Trazado_160429" data-name="Trazado 160429" d="M5.492-4.6H2.82V0H1.313V-11.375H5.078a4.457,4.457,0,0,1,2.957.875A3.148,3.148,0,0,1,9.07-7.953,3.062,3.062,0,0,1,8.5-6.1a3.428,3.428,0,0,1-1.6,1.18L9.57-.094V0H7.961ZM2.82-5.828h2.3A2.6,2.6,0,0,0,6.9-6.407a1.959,1.959,0,0,0,.66-1.55,2.062,2.062,0,0,0-.629-1.62,2.663,2.663,0,0,0-1.816-.571H2.82ZM14.453.156a3.693,3.693,0,0,1-2.8-1.129,4.19,4.19,0,0,1-1.078-3.02v-.266a5.073,5.073,0,0,1,.48-2.246A3.748,3.748,0,0,1,12.4-8.051a3.378,3.378,0,0,1,1.871-.559,3.166,3.166,0,0,1,2.563,1.086,4.7,4.7,0,0,1,.914,3.109v.6H12.023a3,3,0,0,0,.73,2.02,2.3,2.3,0,0,0,1.777.77,2.517,2.517,0,0,0,1.3-.312,3.259,3.259,0,0,0,.93-.828l.883.688A3.55,3.55,0,0,1,14.453.156Zm-.18-7.578a1.928,1.928,0,0,0-1.469.637A3.1,3.1,0,0,0,12.07-5H16.3v-.109a2.753,2.753,0,0,0-.594-1.707A1.815,1.815,0,0,0,14.273-7.422Zm10.07,5.18a1.064,1.064,0,0,0-.441-.91,4.249,4.249,0,0,0-1.539-.559,7.277,7.277,0,0,1-1.742-.562,2.479,2.479,0,0,1-.953-.781,1.869,1.869,0,0,1-.309-1.078,2.193,2.193,0,0,1,.879-1.758,3.432,3.432,0,0,1,2.246-.719,3.532,3.532,0,0,1,2.332.742,2.357,2.357,0,0,1,.895,1.9H24.258a1.3,1.3,0,0,0-.5-1.023,1.888,1.888,0,0,0-1.27-.43,1.976,1.976,0,0,0-1.234.344,1.082,1.082,0,0,0-.445.9.877.877,0,0,0,.414.789,5.1,5.1,0,0,0,1.5.508,7.8,7.8,0,0,1,1.754.578,2.558,2.558,0,0,1,1,.809,1.988,1.988,0,0,1,.324,1.152,2.163,2.163,0,0,1-.906,1.816,3.8,3.8,0,0,1-2.352.684,4.257,4.257,0,0,1-1.8-.359,2.922,2.922,0,0,1-1.223-1A2.42,2.42,0,0,1,19.07-2.6h1.445A1.5,1.5,0,0,0,21.1-1.449a2.258,2.258,0,0,0,1.434.426,2.331,2.331,0,0,0,1.316-.332A1.02,1.02,0,0,0,24.344-2.242ZM34.813-4.133a5.062,5.062,0,0,1-.883,3.109A2.829,2.829,0,0,1,31.539.156,3.1,3.1,0,0,1,29.117-.82V3.25H27.672v-11.7h1.32l.07.938a2.977,2.977,0,0,1,2.453-1.094,2.882,2.882,0,0,1,2.41,1.148,5.117,5.117,0,0,1,.887,3.2ZM33.367-4.3a3.735,3.735,0,0,0-.609-2.258,1.963,1.963,0,0,0-1.672-.828,2.125,2.125,0,0,0-1.969,1.164V-2.18A2.129,2.129,0,0,0,31.1-1.023a1.954,1.954,0,0,0,1.652-.824A4.077,4.077,0,0,0,33.367-4.3Zm2.9-.008a4.993,4.993,0,0,1,.488-2.234A3.643,3.643,0,0,1,38.113-8.07,3.7,3.7,0,0,1,40.1-8.609a3.565,3.565,0,0,1,2.793,1.2,4.6,4.6,0,0,1,1.066,3.18v.1a5.036,5.036,0,0,1-.473,2.215A3.589,3.589,0,0,1,42.137-.391a3.743,3.743,0,0,1-2.02.547,3.556,3.556,0,0,1-2.785-1.2A4.575,4.575,0,0,1,36.266-4.2Zm1.453.172a3.616,3.616,0,0,0,.652,2.258,2.088,2.088,0,0,0,1.746.852,2.075,2.075,0,0,0,1.75-.863A3.955,3.955,0,0,0,42.516-4.3a3.61,3.61,0,0,0-.66-2.254A2.1,2.1,0,0,0,40.1-7.422a2.075,2.075,0,0,0-1.727.852A3.925,3.925,0,0,0,37.719-4.133Zm9.422-4.32.047,1.063a3.08,3.08,0,0,1,2.531-1.219q2.68,0,2.7,3.023V0H50.977V-5.594a1.946,1.946,0,0,0-.418-1.352,1.675,1.675,0,0,0-1.277-.437,2.086,2.086,0,0,0-1.234.375,2.546,2.546,0,0,0-.828.984V0H45.773V-8.453ZM59.523-2.242a1.064,1.064,0,0,0-.441-.91,4.249,4.249,0,0,0-1.539-.559A7.277,7.277,0,0,1,55.8-4.273a2.479,2.479,0,0,1-.953-.781,1.869,1.869,0,0,1-.309-1.078,2.193,2.193,0,0,1,.879-1.758,3.432,3.432,0,0,1,2.246-.719A3.532,3.532,0,0,1,60-7.867a2.357,2.357,0,0,1,.895,1.9H59.438a1.3,1.3,0,0,0-.5-1.023,1.888,1.888,0,0,0-1.27-.43,1.976,1.976,0,0,0-1.234.344,1.082,1.082,0,0,0-.445.9.877.877,0,0,0,.414.789,5.1,5.1,0,0,0,1.5.508,7.8,7.8,0,0,1,1.754.578,2.558,2.558,0,0,1,1,.809,1.988,1.988,0,0,1,.324,1.152,2.163,2.163,0,0,1-.906,1.816,3.8,3.8,0,0,1-2.352.684,4.257,4.257,0,0,1-1.8-.359,2.922,2.922,0,0,1-1.223-1A2.42,2.42,0,0,1,54.25-2.6H55.7a1.5,1.5,0,0,0,.582,1.152,2.258,2.258,0,0,0,1.434.426,2.331,2.331,0,0,0,1.316-.332A1.02,1.02,0,0,0,59.523-2.242Zm6.836,2.4a3.693,3.693,0,0,1-2.8-1.129,4.19,4.19,0,0,1-1.078-3.02v-.266a5.073,5.073,0,0,1,.48-2.246,3.748,3.748,0,0,1,1.344-1.547,3.378,3.378,0,0,1,1.871-.559,3.166,3.166,0,0,1,2.563,1.086,4.7,4.7,0,0,1,.914,3.109v.6H63.93a3,3,0,0,0,.73,2.02,2.3,2.3,0,0,0,1.777.77,2.517,2.517,0,0,0,1.3-.312,3.259,3.259,0,0,0,.93-.828l.883.688A3.55,3.55,0,0,1,66.359.156Zm-.18-7.578a1.928,1.928,0,0,0-1.469.637A3.1,3.1,0,0,0,63.977-5h4.234v-.109a2.753,2.753,0,0,0-.594-1.707A1.815,1.815,0,0,0,66.18-7.422Z" transform="translate(125.6 321.29)" fill="#12263f"/>
        <g id="Grupo_87642" data-name="Grupo 87642">
          <path id="Trazado_160016" data-name="Trazado 160016" d="M288.7,200.64c9.6-9.6,21.37-13.4,26.29-8.48s1.13,16.7-8.47,26.3Z" fill="#4480bf"/>
          <path id="Trazado_160017" data-name="Trazado 160017" d="M306.52,218.46c-9.6,9.6-21.37,13.39-26.29,8.47s-1.13-16.69,8.47-26.29Z" fill="#024e73"/>
        </g>
        <g id="Grupo_87652" data-name="Grupo 87652">
          <g id="Grupo_87644" data-name="Grupo 87644">
            <path id="Trazado_160018" data-name="Trazado 160018" d="M105.55,284,26.94,238.61c-2.23-1.28-2-3.52.62-5l53.53-30.89c2.57-1.48,6.45-1.65,8.68-.36l78.61,45.39c2.22,1.28,2,3.52-.62,5l-53.53,30.89C111.66,285.12,107.78,285.28,105.55,284Z" fill="#b2d3ea"/>
            <path id="Trazado_160019" data-name="Trazado 160019" d="M186.79,167.33l-78.61-45.39a3.19,3.19,0,0,0-2.66-.32h-.14l-2.84,1.08,2.55,1.25v.14L92.21,182.44c-.64,2.92.64,6.32,2.87,7.6l76.72,44.3-.27,3.25,3.1-1.2a4.36,4.36,0,0,0,2.22-3.16l12.81-58.29C190.3,172,189,168.62,186.79,167.33Z" fill="#173d7a"/>
            <path id="Trazado_160020" data-name="Trazado 160020" d="M186.79,167.33l-78.61-45.39a3.19,3.19,0,0,0-2.66-.32h-.14l-2.84,1.08,2.55,1.25v.14l-8.44,38.42,38.46,30,54.24-22.06a6.1,6.1,0,0,0-2.56-3.12Z" fill="#1565b2"/>
            <path id="Trazado_160021" data-name="Trazado 160021" d="M183.83,176.29l6-2.55a7.51,7.51,0,0,0-2.42-6l-9.47,4Z" fill="#274f89"/>
            <path id="Trazado_160022" data-name="Trazado 160022" d="M168.8,237.28,90.18,191.9c-2.22-1.29-3.51-4.69-2.87-7.61L100.12,126c.64-2.92,3-4.24,5.19-3l78.61,45.38c2.22,1.29,3.51,4.69,2.87,7.61L174,234.33C173.34,237.24,171,238.57,168.8,237.28Z" fill="#d4ecff"/>
            <path id="Trazado_160023" data-name="Trazado 160023" d="M167.09,233,93.16,190.28c-2-1.17-3.21-4.29-2.63-7L102.25,130c.59-2.67,2.71-3.88,4.75-2.7l73.93,42.66c2,1.18,3.21,4.3,2.63,7L171.84,230.3C171.25,232.91,169.13,234.12,167.09,233Z" fill="#fff"/>
            <path id="Trazado_160024" data-name="Trazado 160024" d="M167.09,233,93.16,190.28c-2-1.17-3.21-4.29-2.63-7L102.25,130c.59-2.67,2.71-3.88,4.75-2.7l73.93,42.66c2,1.18,3.21,4.3,2.63,7L171.84,230.3C171.25,232.91,169.13,234.12,167.09,233Z" fill="#fff"/>
            <path id="Trazado_160025" data-name="Trazado 160025" d="M169.88,239.26l-10.75-1.42L89.77,197.79c-2.23-1.28-6.11-1.12-8.68.36L31.94,226.52l-6.5-.86v3.69h0a2.52,2.52,0,0,0,1.49,2.28L105.55,277c2.23,1.29,6.11,1.13,8.68-.36l53.53-30.89c1.44-.83,2.16-1.91,2.12-2.92h0Z" fill="#173d7a"/>
            <path id="Trazado_160026" data-name="Trazado 160026" d="M117.76,214l-4.93-2.84H58.65L31.94,226.52l-6.5-.86v3.69h0a2.52,2.52,0,0,0,1.49,2.28L105.55,277a8.15,8.15,0,0,0,4.48.84Z" fill="#1565b2"/>
            <path id="Trazado_160027" data-name="Trazado 160027" d="M28.32,226l-2.88-.38v3.69h0a2.52,2.52,0,0,0,1.49,2.28l1.38.8Z" fill="#5793ce"/>
            <path id="Trazado_160028" data-name="Trazado 160028" d="M106.34,277.38a10.06,10.06,0,0,0,7.38-.46V268.7h-7.38Z" fill="#274f89"/>
            <path id="Trazado_160029" data-name="Trazado 160029" d="M105.55,273.33,26.94,227.94c-2.23-1.28-2-3.52.62-5L81.09,192c2.57-1.48,6.45-1.64,8.68-.36l78.61,45.39c2.22,1.28,2,3.52-.62,5L114.23,273C111.66,274.46,107.78,274.62,105.55,273.33Z" fill="#d4ecff"/>
            <path id="Trazado_160030" data-name="Trazado 160030" d="M167.76,240.73l-53.53,30.9c-2.57,1.48-6.45,1.64-8.68.36L26.94,226.6a2.9,2.9,0,0,1-1.38-1.51,2.36,2.36,0,0,0,1.38,2.85l78.61,45.39c2.23,1.29,6.11,1.13,8.68-.36l53.53-30.89c1.72-1,2.41-2.34,2-3.5A4.13,4.13,0,0,1,167.76,240.73Z" fill="#fff"/>
            <g id="Grupo_87643" data-name="Grupo 87643">
              <path id="Trazado_160031" data-name="Trazado 160031" d="M60.37,212.92l-3.55-2.06c-.29-.16-.25-.45.08-.64l4.19-2.42a1.27,1.27,0,0,1,1.12-.05l3.56,2.05c.28.17.25.46-.08.65l-4.2,2.42a1.27,1.27,0,0,1-1.12.05Z" fill="#173d7a"/>
              <path id="Trazado_160032" data-name="Trazado 160032" d="M65.87,216.09,62.31,214c-.29-.17-.25-.46.08-.65l4.2-2.42a1.25,1.25,0,0,1,1.11-.05L71.26,213c.28.16.25.45-.08.64L67,216A1.25,1.25,0,0,1,65.87,216.09Z" fill="#173d7a"/>
              <path id="Trazado_160033" data-name="Trazado 160033" d="M71.36,219.26l-3.56-2c-.28-.17-.25-.46.08-.65l4.2-2.42a1.25,1.25,0,0,1,1.11,0l3.56,2.06c.29.16.25.45-.08.64l-4.2,2.43a1.21,1.21,0,0,1-1.11-.06Z" fill="#173d7a"/>
              <path id="Trazado_160034" data-name="Trazado 160034" d="M79,216.64l-3.56-2c-.29-.17-.25-.45.08-.64l3.52-2a1.27,1.27,0,0,1,1.12,0l3.55,2.06c.29.16.25.45-.08.64l-3.52,2a1.21,1.21,0,0,1-1.11-.06Z" fill="#173d7a"/>
              <path id="Trazado_160035" data-name="Trazado 160035" d="M84.45,219.81l-3.56-2.05c-.28-.16-.25-.45.08-.64l3.53-2a1.21,1.21,0,0,1,1.11,0l3.56,2.05c.28.16.25.45-.08.64l-3.53,2a1.21,1.21,0,0,1-1.11,0Z" fill="#173d7a"/>
              <path id="Trazado_160036" data-name="Trazado 160036" d="M89.94,223l-3.55-2c-.29-.16-.25-.45.08-.64l3.52-2a1.21,1.21,0,0,1,1.11,0l3.56,2c.29.17.25.45-.08.64l-3.52,2a1.23,1.23,0,0,1-1.12,0Z" fill="#173d7a"/>
              <path id="Trazado_160037" data-name="Trazado 160037" d="M95.44,226.16l-3.56-2.06c-.29-.16-.25-.45.08-.64l3.52-2a1.23,1.23,0,0,1,1.12,0l3.55,2.05c.29.17.25.45-.08.65l-3.52,2a1.25,1.25,0,0,1-1.11,0Z" fill="#173d7a"/>
              <path id="Trazado_160038" data-name="Trazado 160038" d="M100.93,229.33l-3.56-2.06c-.28-.16-.25-.45.08-.64l3.53-2a1.22,1.22,0,0,1,1.11,0l3.56,2c.28.17.25.46-.08.65l-3.53,2A1.25,1.25,0,0,1,100.93,229.33Z" fill="#173d7a"/>
              <path id="Trazado_160039" data-name="Trazado 160039" d="M106.42,232.5l-3.56-2.05c-.28-.17-.25-.46.08-.65l3.53-2a1.25,1.25,0,0,1,1.11-.05l3.56,2.05c.29.17.25.46-.08.65l-3.52,2a1.27,1.27,0,0,1-1.12.05Z" fill="#173d7a"/>
              <path id="Trazado_160040" data-name="Trazado 160040" d="M111.91,235.67l-3.55-2c-.29-.17-.25-.46.08-.65l3.52-2a1.27,1.27,0,0,1,1.12-.05l3.55,2.06c.29.16.25.45-.08.64l-3.52,2a1.24,1.24,0,0,1-1.12,0Z" fill="#173d7a"/>
              <path id="Trazado_160041" data-name="Trazado 160041" d="M117.41,238.84l-3.56-2.05c-.29-.17-.25-.45.08-.65l3.52-2a1.27,1.27,0,0,1,1.12-.05l3.56,2.06c.28.16.25.45-.08.64l-3.53,2a1.21,1.21,0,0,1-1.11.05Z" fill="#173d7a"/>
              <path id="Trazado_160042" data-name="Trazado 160042" d="M122.9,242l-3.56-2c-.28-.17-.25-.45.08-.64l3.53-2a1.21,1.21,0,0,1,1.11,0l3.56,2c.28.16.25.45-.08.64L124,242a1.21,1.21,0,0,1-1.1,0Z" fill="#173d7a"/>
              <path id="Trazado_160043" data-name="Trazado 160043" d="M128.39,245.18l-3.55-2.05c-.29-.16-.25-.45.08-.64l3.52-2a1.23,1.23,0,0,1,1.12,0l3.55,2.05c.29.17.25.45-.08.64l-3.52,2A1.23,1.23,0,0,1,128.39,245.18Z" fill="#173d7a"/>
              <path id="Trazado_160044" data-name="Trazado 160044" d="M87.05,215.14l-3.56-2c-.28-.17-.25-.46.08-.65l3.53-2a1.25,1.25,0,0,1,1.11,0l3.56,2.06c.28.16.25.45-.08.64l-3.53,2A1.22,1.22,0,0,1,87.05,215.14Z" fill="#1565b2"/>
              <path id="Trazado_160045" data-name="Trazado 160045" d="M81.47,211.92l-3.55-2c-.29-.17-.25-.45.08-.64l3.52-2a1.27,1.27,0,0,1,1.12-.05l3.55,2.06c.29.16.25.45-.08.64l-3.52,2a1.23,1.23,0,0,1-1.12-.01Z" fill="#1565b2"/>
              <path id="Trazado_160046" data-name="Trazado 160046" d="M75.89,208.7l-7.66-4.42c-.29-.17-.25-.46.08-.65l3.52-2a1.27,1.27,0,0,1,1.12,0L80.61,206c.28.17.25.46-.08.65l-3.52,2a1.27,1.27,0,0,1-1.12.05Z" fill="#173d7a"/>
              <path id="Trazado_160047" data-name="Trazado 160047" d="M79.79,204.78l-6.21-3.59c-.29-.17-.25-.46.08-.65l3.52-2a1.27,1.27,0,0,1,1.12,0l6.21,3.59c.29.17.25.46-.08.65l-3.52,2a1.27,1.27,0,0,1-1.12,0Z" fill="#173d7a"/>
              <path id="Trazado_160048" data-name="Trazado 160048" d="M92.54,218.31,89,216.26c-.29-.17-.25-.45.08-.64l3.52-2a1.25,1.25,0,0,1,1.11-.05l3.56,2.06c.29.16.25.45-.08.64l-3.52,2a1.23,1.23,0,0,1-1.13.04Z" fill="#1565b2"/>
              <path id="Trazado_160049" data-name="Trazado 160049" d="M98,221.48l-3.56-2c-.29-.17-.25-.45.08-.64l3.52-2a1.23,1.23,0,0,1,1.12,0l3.55,2c.29.16.25.45-.08.64l-3.52,2a1.21,1.21,0,0,1-1.11,0Z" fill="#173d7a"/>
              <path id="Trazado_160050" data-name="Trazado 160050" d="M103.53,224.65,100,222.6c-.28-.16-.25-.45.08-.64l3.53-2a1.21,1.21,0,0,1,1.11,0l3.56,2.05c.28.17.25.45-.08.64l-3.53,2A1.21,1.21,0,0,1,103.53,224.65Z" fill="#173d7a"/>
              <path id="Trazado_160051" data-name="Trazado 160051" d="M109,227.83l-3.55-2.06c-.29-.16-.25-.45.08-.64l3.52-2a1.21,1.21,0,0,1,1.11,0l3.56,2c.29.17.25.45-.08.65l-3.52,2a1.27,1.27,0,0,1-1.12.05Z" fill="#173d7a"/>
              <path id="Trazado_160052" data-name="Trazado 160052" d="M114.52,231,111,228.94c-.29-.16-.25-.45.08-.64l3.52-2a1.24,1.24,0,0,1,1.12-.05l3.55,2.05c.29.17.25.46-.08.65l-3.52,2a1.25,1.25,0,0,1-1.15.05Z" fill="#173d7a"/>
              <path id="Trazado_160053" data-name="Trazado 160053" d="M120,234.17l-3.56-2c-.28-.17-.25-.46.08-.65l3.53-2a1.25,1.25,0,0,1,1.11-.05l3.56,2.05c.28.17.25.46-.08.65l-3.53,2A1.25,1.25,0,0,1,120,234.17Z" fill="#173d7a"/>
              <path id="Trazado_160054" data-name="Trazado 160054" d="M125.5,237.34l-3.56-2.05c-.28-.17-.25-.46.08-.65l3.53-2a1.25,1.25,0,0,1,1.11-.05l3.56,2.06c.29.16.25.45-.08.64l-3.52,2a1.24,1.24,0,0,1-1.12.05Z" fill="#173d7a"/>
              <path id="Trazado_160055" data-name="Trazado 160055" d="M131,240.51l-3.55-2c-.29-.17-.25-.45.08-.65l3.52-2a1.27,1.27,0,0,1,1.12-.05l3.55,2.06c.29.16.25.45-.08.64l-3.52,2a1.23,1.23,0,0,1-1.12,0Z" fill="#173d7a"/>
              <path id="Trazado_160056" data-name="Trazado 160056" d="M136.49,243.68l-3.56-2.05c-.29-.17-.25-.45.08-.64l3.52-2a1.23,1.23,0,0,1,1.12,0l3.56,2.05c.28.16.25.45-.08.64l-3.53,2a1.21,1.21,0,0,1-1.11,0Z" fill="#173d7a"/>
              <path id="Trazado_160057" data-name="Trazado 160057" d="M146.25,249.32l-7.76-4.48c-.28-.16-.25-.45.08-.64l3.53-2a1.21,1.21,0,0,1,1.11,0l7.79,4.4c.29.16.25.45-.08.64l-3.52,2A1.23,1.23,0,0,1,146.25,249.32Z" fill="#173d7a"/>
              <path id="Trazado_160058" data-name="Trazado 160058" d="M157,243.15l-6.55-3.79c-.29-.16-.25-.45.08-.64l3.52-2a1.25,1.25,0,0,1,1.11-.05l6.56,3.78c.28.17.25.46-.08.65l-3.53,2a1.25,1.25,0,0,1-1.11.05Z" fill="#173d7a"/>
              <path id="Trazado_160059" data-name="Trazado 160059" d="M102.16,217.69l-3.55-2.05c-.29-.17-.25-.45.08-.65l3.52-2a1.25,1.25,0,0,1,1.11-.05l3.56,2.06c.29.16.25.45-.08.64l-3.52,2a1.23,1.23,0,0,1-1.12.05Z" fill="#173d7a"/>
              <path id="Trazado_160060" data-name="Trazado 160060" d="M96.53,214.44,93,212.39c-.29-.17-.25-.46.08-.65l3.52-2a1.25,1.25,0,0,1,1.11-.05l3.56,2.06c.29.16.25.45-.08.64l-3.52,2A1.23,1.23,0,0,1,96.53,214.44Z" fill="#173d7a"/>
              <path id="Trazado_160061" data-name="Trazado 160061" d="M90.9,211.19l-3.55-2.05c-.29-.17-.25-.46.08-.65l3.52-2a1.25,1.25,0,0,1,1.11-.05l3.56,2.06c.29.16.25.45-.08.64l-3.52,2A1.21,1.21,0,0,1,90.9,211.19Z" fill="#1565b2"/>
              <path id="Trazado_160062" data-name="Trazado 160062" d="M85.27,207.94l-3.55-2.05c-.29-.17-.25-.46.08-.65l3.52-2a1.27,1.27,0,0,1,1.12-.05L90,205.22c.29.16.25.45-.08.64l-3.52,2a1.24,1.24,0,0,1-1.13.08Z" fill="#173d7a"/>
              <path id="Trazado_160063" data-name="Trazado 160063" d="M107.66,220.86l-3.56-2.05c-.29-.17-.25-.45.08-.64l3.52-2a1.23,1.23,0,0,1,1.12,0l3.55,2c.29.16.25.45-.08.64l-3.52,2a1.21,1.21,0,0,1-1.11.05Z" fill="#173d7a"/>
              <path id="Trazado_160064" data-name="Trazado 160064" d="M113.15,224l-3.56-2c-.28-.16-.25-.45.08-.64l3.53-2a1.21,1.21,0,0,1,1.11,0l3.56,2.05c.28.16.25.45-.08.64l-3.53,2A1.21,1.21,0,0,1,113.15,224Z" fill="#173d7a"/>
              <path id="Trazado_160065" data-name="Trazado 160065" d="M118.64,227.21l-3.56-2.06c-.28-.16-.25-.45.08-.64l3.53-2a1.21,1.21,0,0,1,1.11,0l3.56,2c.29.17.25.45-.08.64l-3.52,2a1.27,1.27,0,0,1-1.12.06Z" fill="#173d7a"/>
              <path id="Trazado_160066" data-name="Trazado 160066" d="M124.13,230.38l-3.55-2.06c-.29-.16-.25-.45.08-.64l3.52-2a1.24,1.24,0,0,1,1.12-.05l3.55,2.05c.29.17.25.46-.08.65l-3.52,2a1.27,1.27,0,0,1-1.12.05Z" fill="#173d7a"/>
              <path id="Trazado_160067" data-name="Trazado 160067" d="M129.63,233.55l-3.56-2.06c-.29-.16-.25-.45.08-.64l3.52-2a1.27,1.27,0,0,1,1.12,0l3.56,2c.28.17.25.46-.08.65l-3.53,2a1.25,1.25,0,0,1-1.11.05Z" fill="#173d7a"/>
              <path id="Trazado_160068" data-name="Trazado 160068" d="M135.12,236.72l-3.56-2.05c-.28-.17-.25-.46.08-.65l3.53-2a1.25,1.25,0,0,1,1.11-.05l3.56,2.06c.28.16.25.45-.08.64l-3.53,2a1.25,1.25,0,0,1-1.11.05Z" fill="#173d7a"/>
              <path id="Trazado_160069" data-name="Trazado 160069" d="M140.61,239.89l-3.55-2c-.29-.17-.25-.46.08-.65l3.52-2a1.27,1.27,0,0,1,1.12,0l3.55,2.06c.29.16.25.45-.08.64l-3.52,2a1.23,1.23,0,0,1-1.12-.05Z" fill="#173d7a"/>
              <path id="Trazado_160070" data-name="Trazado 160070" d="M146.11,243.06,142.55,241c-.29-.17-.25-.45.08-.64l3.52-2a1.27,1.27,0,0,1,1.12-.05l3.56,2.06c.28.16.24.45-.08.64l-3.53,2A1.21,1.21,0,0,1,146.11,243.06Z" fill="#173d7a"/>
              <path id="Trazado_160071" data-name="Trazado 160071" d="M151.6,246.23l-3.56-2c-.28-.16-.25-.45.08-.64l3.53-2a1.21,1.21,0,0,1,1.11,0l3.56,2c.28.16.25.45-.08.64l-3.53,2a1.21,1.21,0,0,1-1.11,0Z" fill="#173d7a"/>
              <path id="Trazado_160072" data-name="Trazado 160072" d="M99.27,209.85l-3.56-2.06c-.28-.16-.25-.45.08-.64l3.53-2a1.22,1.22,0,0,1,1.11-.05l3.56,2.05c.28.17.25.46-.08.65l-3.53,2A1.25,1.25,0,0,1,99.27,209.85Z" fill="#173d7a"/>
              <path id="Trazado_160073" data-name="Trazado 160073" d="M93.8,206.69l-3.55-2.05c-.29-.17-.25-.45.08-.65l3.52-2a1.27,1.27,0,0,1,1.12-.05L98.52,204c.29.16.25.45-.08.64l-3.52,2a1.23,1.23,0,0,1-1.12.05Z" fill="#173d7a"/>
              <path id="Trazado_160074" data-name="Trazado 160074" d="M88.34,203.54l-3.56-2.06c-.28-.16-.25-.45.08-.64l3.53-2a1.21,1.21,0,0,1,1.11,0l3.56,2.05c.28.17.25.45-.08.65l-3.53,2a1.25,1.25,0,0,1-1.11,0Z" fill="#173d7a"/>
              <path id="Trazado_160075" data-name="Trazado 160075" d="M82.87,200.38l-3.55-2c-.29-.17-.25-.46.08-.65l3.52-2A1.25,1.25,0,0,1,84,195.6l3.56,2.06c.29.16.25.45-.08.64l-3.52,2a1.24,1.24,0,0,1-1.09.08Z" fill="#173d7a"/>
              <path id="Trazado_160076" data-name="Trazado 160076" d="M88.49,197.14l-3.55-2.06c-.29-.16-.25-.45.08-.64l1.16-.67a1.24,1.24,0,0,1,1.12-.05l3.55,2.05c.29.17.25.46-.08.65l-1.16.67a1.27,1.27,0,0,1-1.12.05Z" fill="#173d7a"/>
              <path id="Trazado_160077" data-name="Trazado 160077" d="M95.63,201.25l-3.56-2.05c-.29-.16-.25-.45.08-.64l1.16-.68a1.23,1.23,0,0,1,1.12,0l3.56,2c.28.17.25.45-.08.64l-1.17.68a1.21,1.21,0,0,1-1.11.05Z" fill="#173d7a"/>
              <path id="Trazado_160078" data-name="Trazado 160078" d="M101.07,204.4l-3.56-2.06c-.28-.16-.25-.45.08-.64l1.17-.67a1.25,1.25,0,0,1,1.11-.05l3.56,2.05c.28.17.25.46-.08.65l-1.17.67a1.25,1.25,0,0,1-1.11.05Z" fill="#173d7a"/>
              <path id="Trazado_160079" data-name="Trazado 160079" d="M106.51,207.54,103,205.48c-.28-.16-.24-.45.08-.64l1.17-.67a1.25,1.25,0,0,1,1.11,0l3.56,2.06c.29.16.25.45-.08.64l-1.16.67a1.27,1.27,0,0,1-1.17,0Z" fill="#173d7a"/>
              <path id="Trazado_160080" data-name="Trazado 160080" d="M112,210.68l-3.55-2.05c-.29-.17-.25-.46.08-.65l1.16-.67a1.23,1.23,0,0,1,1.12,0l3.55,2c.29.16.25.45-.08.64l-1.16.67A1.21,1.21,0,0,1,112,210.68Z" fill="#173d7a"/>
              <path id="Trazado_160081" data-name="Trazado 160081" d="M142.34,228.22l-3.56-2.05c-.28-.16-.25-.45.08-.64l1.17-.67a1.19,1.19,0,0,1,1.11-.05l3.56,2.05c.29.17.25.46-.08.65l-1.16.67a1.23,1.23,0,0,1-1.12.04Z" fill="#173d7a"/>
              <path id="Trazado_160082" data-name="Trazado 160082" d="M147.78,231.37l-3.55-2.06c-.29-.16-.25-.45.08-.64l1.16-.67a1.27,1.27,0,0,1,1.12-.05l3.55,2.06c.29.16.25.45-.08.64l-1.16.67a1.27,1.27,0,0,1-1.12.05Z" fill="#173d7a"/>
              <path id="Trazado_160083" data-name="Trazado 160083" d="M153.23,234.51l-3.56-2c-.28-.17-.25-.46.08-.65l1.17-.67a1.25,1.25,0,0,1,1.11,0l3.56,2.06c.28.16.25.45-.08.64l-1.17.67a1.25,1.25,0,0,1-1.11-.05Z" fill="#173d7a"/>
              <path id="Trazado_160084" data-name="Trazado 160084" d="M158.67,237.65l-3.56-2.05c-.28-.17-.25-.45.08-.64l1.17-.68a1.21,1.21,0,0,1,1.11,0l3.56,2c.29.17.25.45-.08.64l-1.17.68a1.21,1.21,0,0,1-1.11.05Z" fill="#173d7a"/>
              <path id="Trazado_160085" data-name="Trazado 160085" d="M104.76,213l-3.55-2c-.29-.17-.25-.46.08-.65l3.52-2a1.25,1.25,0,0,1,1.11,0l3.56,2c.29.17.25.46-.08.65l-3.52,2a1.27,1.27,0,0,1-1.12,0Z" fill="#173d7a"/>
              <path id="Trazado_160086" data-name="Trazado 160086" d="M110.26,216.19l-3.56-2.05c-.29-.17-.25-.46.08-.65l3.52-2a1.27,1.27,0,0,1,1.12-.05l3.55,2.06c.29.16.25.45-.08.64l-3.52,2A1.25,1.25,0,0,1,110.26,216.19Z" fill="#173d7a"/>
              <path id="Trazado_160087" data-name="Trazado 160087" d="M115.75,219.36l-3.56-2.05c-.28-.17-.25-.46.08-.65l3.53-2a1.25,1.25,0,0,1,1.11,0l3.56,2.06c.28.16.25.45-.08.64l-3.53,2a1.21,1.21,0,0,1-1.11,0Z" fill="#173d7a"/>
              <path id="Trazado_160088" data-name="Trazado 160088" d="M121.24,222.53l-3.55-2.05c-.29-.17-.25-.45.08-.64l3.52-2a1.21,1.21,0,0,1,1.11,0l3.56,2.05c.29.16.25.45-.08.64l-3.52,2a1.23,1.23,0,0,1-1.12,0Z" fill="#173d7a"/>
              <path id="Trazado_160089" data-name="Trazado 160089" d="M126.74,225.7l-3.56-2c-.29-.16-.25-.45.08-.64l3.52-2a1.23,1.23,0,0,1,1.12,0l3.55,2c.29.16.25.45-.08.64l-3.52,2a1.21,1.21,0,0,1-1.11,0Z" fill="#173d7a"/>
              <path id="Trazado_160090" data-name="Trazado 160090" d="M132.23,228.88l-3.56-2.06c-.28-.16-.25-.45.08-.64l3.53-2a1.21,1.21,0,0,1,1.11,0l3.56,2.05c.28.17.25.45-.08.64l-3.53,2A1.25,1.25,0,0,1,132.23,228.88Z" fill="#173d7a"/>
              <path id="Trazado_160091" data-name="Trazado 160091" d="M137.72,232.05,134.16,230c-.28-.16-.25-.45.08-.64l3.53-2a1.22,1.22,0,0,1,1.11,0l3.56,2c.29.17.25.46-.08.65l-3.52,2a1.27,1.27,0,0,1-1.12.04Z" fill="#173d7a"/>
              <path id="Trazado_160092" data-name="Trazado 160092" d="M143.21,235.22l-3.55-2.06c-.29-.16-.25-.45.08-.64l3.52-2a1.27,1.27,0,0,1,1.12-.05l3.55,2.05c.29.17.25.46-.08.65l-3.52,2a1.27,1.27,0,0,1-1.12.05Z" fill="#173d7a"/>
              <path id="Trazado_160093" data-name="Trazado 160093" d="M148.71,238.39l-3.56-2c-.29-.17-.25-.46.08-.65l3.52-2a1.27,1.27,0,0,1,1.12,0l3.56,2.06c.28.16.25.45-.08.64l-3.53,2a1.25,1.25,0,0,1-1.11-.05Z" fill="#173d7a"/>
              <path id="Trazado_160094" data-name="Trazado 160094" d="M73.36,213.41l-10.48-6c-.28-.16-.25-.45.08-.64l3.53-2a1.21,1.21,0,0,1,1.11,0l10.48,6.05c.28.16.25.45-.08.64l-3.53,2A1.22,1.22,0,0,1,73.36,213.41Z" fill="#173d7a"/>
              <path id="Trazado_160095" data-name="Trazado 160095" d="M140.84,252.37l-10.47-6.05c-.29-.16-.25-.45.08-.64l3.52-2a1.22,1.22,0,0,1,1.11-.05l10.48,6.05c.29.16.25.45-.08.64l-3.52,2a1.23,1.23,0,0,1-1.12.05Z" fill="#173d7a"/>
              <path id="Trazado_160096" data-name="Trazado 160096" d="M118.87,246.69l-3.55-2.05c-.29-.16-.25-.45.08-.64l4.2-2.43a1.21,1.21,0,0,1,1.11,0l3.56,2.05c.28.17.25.45-.08.64l-4.2,2.43a1.23,1.23,0,0,1-1.12,0Z" fill="#173d7a"/>
              <path id="Trazado_160097" data-name="Trazado 160097" d="M79,223.66l-5.68-3.28c-.29-.17-.25-.45.08-.64l4.19-2.43a1.23,1.23,0,0,1,1.12,0l5.69,3.28c.28.16.25.45-.08.64l-4.2,2.43a1.23,1.23,0,0,1-1.12,0Z" fill="#173d7a"/>
              <path id="Trazado_160098" data-name="Trazado 160098" d="M113.58,243.64l-5.69-3.29c-.28-.16-.25-.45.08-.64l4.2-2.42a1.27,1.27,0,0,1,1.12,0l5.68,3.28c.29.17.25.46-.08.65l-4.19,2.42a1.27,1.27,0,0,1-1.12,0Z" fill="#173d7a"/>
              <path id="Trazado_160099" data-name="Trazado 160099" d="M86.91,228.24,81.22,225c-.29-.16-.25-.45.08-.64l4.2-2.42a1.25,1.25,0,0,1,1.11,0l5.69,3.29c.29.16.25.45-.08.64L88,228.19a1.25,1.25,0,0,1-1.09.05Z" fill="#173d7a"/>
              <path id="Trazado_160100" data-name="Trazado 160100" d="M86.65,221.86l24.73,14.28c.31.18.31.47,0,.64l-4.28,2.48a1.27,1.27,0,0,1-1.11,0L81.26,225Z" fill="#173d7a"/>
              <path id="Trazado_160101" data-name="Trazado 160101" d="M134.23,252.44l4,2.29c.23.14.2.37-.07.53l-1.71,1a1,1,0,0,1-.92,0l-4-2.29c-.23-.13-.2-.37.07-.53l1.71-1a1.07,1.07,0,0,1,.92,0Z" fill="#173d7a"/>
              <path id="Trazado_160102" data-name="Trazado 160102" d="M128.69,249.25l4,2.28c.23.14.2.38-.07.53l-1.71,1a1,1,0,0,1-.92,0l-4-2.29c-.23-.13-.2-.37.07-.52l1.71-1A1,1,0,0,1,128.69,249.25Z" fill="#173d7a"/>
              <path id="Trazado_160103" data-name="Trazado 160103" d="M123.19,246.08l4,2.28c.23.14.2.37-.07.53l-1.72,1a1,1,0,0,1-.91,0l-4-2.29c-.24-.13-.21-.37.06-.53l1.72-1A1,1,0,0,1,123.19,246.08Z" fill="#173d7a"/>
              <path id="Trazado_160104" data-name="Trazado 160104" d="M131.72,247.5l4,2.28c.24.14.21.37-.06.53l-1.72,1a1,1,0,0,1-.91,0l-4-2.29c-.23-.13-.2-.37.07-.53l1.72-1A1,1,0,0,1,131.72,247.5Z" fill="#173d7a"/>
            </g>
          </g>
          <g id="Grupo_87651" data-name="Grupo 87651" clip-path="url(#clip-path)">
            <g id="Grupo_87650" data-name="Grupo 87650">
              <path id="Trazado_160105" data-name="Trazado 160105" d="M90.05,186.94l13.74-62.34,80.07,46.69-14.1,63.33Z" fill="#fff"/>
              <g id="Grupo_87645" data-name="Grupo 87645">
                <path id="Trazado_160106" data-name="Trazado 160106" d="M154.71,203.18,113,178.44a4.423,4.423,0,0,1-1.54-4.66l.33-1.46c.41-1.82,1.77-2.7,3-1.95L156.55,195c1.29.76,2,2.87,1.58,4.71l-.34,1.47C157.38,203.07,156,203.94,154.71,203.18Z" fill="#f1f1f1"/>
                <path id="Trazado_160107" data-name="Trazado 160107" d="M154.71,203.18l-1-.61c-1.28-.77-2-2.88-1.57-4.72l.33-1.46c.42-1.84,1.8-2.72,3.08-2l1,.61c1.29.76,2,2.87,1.58,4.71l-.34,1.47C157.38,203.07,156,203.94,154.71,203.18Z" fill="#e6e6e6"/>
                <path id="Trazado_160108" data-name="Trazado 160108" d="M156.65,201.13l-1.13-2.26a.1.1,0,0,0-.13-.06l-.35-.73a1.8,1.8,0,0,0,.09-1.74c-.3-.63-.88-.82-1.28-.43a1.73,1.73,0,0,0-.2,1.86c.28.58.78.79,1.17.53l.35.72a.23.23,0,0,0,0,.2l1,2.34a.11.11,0,0,0,.2,0l.2-.19a.25.25,0,0,0,.08-.24Zm-2.93-3.42a1.57,1.57,0,0,1,.17-1.7c.38-.36.9-.19,1.18.39a1.61,1.61,0,0,1-.18,1.71C154.52,198.47,154,198.29,153.72,197.71Z" fill="#b3b3b3"/>
              </g>
              <g id="Grupo_87649" data-name="Grupo 87649">
                <path id="Trazado_160109" data-name="Trazado 160109" d="M182.75,176.16l-80.04-46.77,1.08-4.79,80.07,46.69Z" fill="#93b3d8"/>
                <path id="Trazado_160110" data-name="Trazado 160110" d="M122.72,140.19l-.36-2.33a1.76,1.76,0,0,0-.72-1.31l-9.83-5.73a.78.78,0,0,0-1.07.26l-1.2,1.41a.76.76,0,0,1-1.06.27l-5.77-3.37-.84,3.76,80,46.83.86-3.82L123.44,141.5a1.7,1.7,0,0,1-.72-1.31Z" fill="#e6e6e6"/>
                <path id="Trazado_160111" data-name="Trazado 160111" d="M134,146.82l-10.35-6a.55.55,0,0,1-.23-.41l-.28-2.11c-.05-.39.2-.69.45-.54l10.35,6a.55.55,0,0,1,.23.41l.28,2.12C134.54,146.67,134.3,147,134,146.82Z" fill="#d3d3d3"/>
                <path id="Trazado_160112" data-name="Trazado 160112" d="M138.28,149.29l-2.66-1.55a.55.55,0,0,1-.23-.41l-.28-2.12c-.05-.39.2-.69.45-.54l2.65,1.55a.59.59,0,0,1,.24.41l.28,2.12C138.78,149.14,138.53,149.44,138.28,149.29Z" fill="#d3d3d3"/>
                <g id="Grupo_87646" data-name="Grupo 87646">
                  <path id="Trazado_160113" data-name="Trazado 160113" d="M107.06,129.62c-.11.47-.46.7-.78.51a1.16,1.16,0,0,1-.4-1.2c.11-.46.46-.69.78-.5a1.16,1.16,0,0,1,.4,1.19Z" fill="#e2e2e2"/>
                  <path id="Trazado_160114" data-name="Trazado 160114" d="M108.77,130.62c-.11.47-.46.7-.78.51a1.16,1.16,0,0,1-.4-1.2c.11-.47.46-.69.78-.5a1.16,1.16,0,0,1,.4,1.19Z" fill="#c4c4c4"/>
                  <path id="Trazado_160115" data-name="Trazado 160115" d="M105.35,128.62c-.11.47-.46.7-.78.51a1.15,1.15,0,0,1-.4-1.19c.11-.47.46-.7.78-.51a1.16,1.16,0,0,1,.4,1.19Z" fill="#fff"/>
                </g>
                <path id="Trazado_160116" data-name="Trazado 160116" d="M178.42,177.11l-69.48-40.65a1.25,1.25,0,0,1-.43-1.3l.09-.4c.11-.51.49-.76.84-.55l69.5,40.62a1.26,1.26,0,0,1,.44,1.32l-.09.41C179.17,177.07,178.78,177.32,178.42,177.11Z" fill="#fff"/>
                <g id="Grupo_87647" data-name="Grupo 87647">
                  <path id="Trazado_160117" data-name="Trazado 160117" d="M104.81,133.85l.43-1.91-1.53.19Z" fill="#b3b3b3"/>
                  <path id="Trazado_160118" data-name="Trazado 160118" d="M105.93,134.5l.43-1.9,1.1,1.72Z" fill="#b3b3b3"/>
                </g>
                <g id="Grupo_87648" data-name="Grupo 87648">
                  <path id="Trazado_160119" data-name="Trazado 160119" d="M181.73,177.45l-1.69-1a.21.21,0,0,1-.07-.22h0a.1.1,0,0,1,.14-.09l1.69,1a.19.19,0,0,1,.07.21h0C181.85,177.45,181.79,177.49,181.73,177.45Z" fill="#b3b3b3"/>
                  <path id="Trazado_160120" data-name="Trazado 160120" d="M181.59,178.17l-1.72-1a.17.17,0,0,1-.06-.18v-.06a.08.08,0,0,1,.12-.07l1.72,1a.18.18,0,0,1,.06.18v.05C181.69,178.16,181.64,178.19,181.59,178.17Z" fill="#b3b3b3"/>
                  <path id="Trazado_160121" data-name="Trazado 160121" d="M181.89,176.75l-1.69-1a.21.21,0,0,1-.07-.22h0a.1.1,0,0,1,.14-.09l1.69,1a.19.19,0,0,1,.07.21h0C182,176.75,182,176.79,181.89,176.75Z" fill="#b3b3b3"/>
                  <path id="Trazado_160122" data-name="Trazado 160122" d="M181.43,178.86l-1.72-1a.17.17,0,0,1-.06-.18v-.06a.082.082,0,0,1,.12-.07l1.72,1a.17.17,0,0,1,.06.18h0C181.53,178.86,181.48,178.89,181.43,178.86Z" fill="#b3b3b3"/>
                </g>
              </g>
            </g>
          </g>
        </g>
        <path id="Trazado_160420" data-name="Trazado 160420" d="M1.143,0V-12.8H5.625a5.886,5.886,0,0,1,3.533.892,3.05,3.05,0,0,1,1.2,2.615,2.891,2.891,0,0,1-.483,1.657,2.792,2.792,0,0,1-1.345,1.05,2.7,2.7,0,0,1,1.551.993,2.936,2.936,0,0,1,.567,1.828A3.377,3.377,0,0,1,9.475-.967,5.3,5.3,0,0,1,6.117,0ZM3.779-5.572v3.454H6.038a2.18,2.18,0,0,0,1.455-.444,1.522,1.522,0,0,0,.523-1.226A1.607,1.607,0,0,0,6.2-5.572Zm0-1.863H5.73q2-.035,2-1.591a1.47,1.47,0,0,0-.505-1.252,2.658,2.658,0,0,0-1.6-.382H3.779Zm14.027.308a6.9,6.9,0,0,0-.914-.07A1.86,1.86,0,0,0,15-6.223V0h-2.54V-9.51h2.4l.07,1.134a2.354,2.354,0,0,1,2.118-1.31,2.662,2.662,0,0,1,.791.114Zm.15,2.285A5.64,5.64,0,0,1,18.5-7.365,3.989,3.989,0,0,1,20.07-9.079a4.577,4.577,0,0,1,2.377-.606A4.33,4.33,0,0,1,25.59-8.508a4.727,4.727,0,0,1,1.358,3.2l.018.65a4.97,4.97,0,0,1-1.222,3.511A4.247,4.247,0,0,1,22.465.176a4.268,4.268,0,0,1-3.283-1.318,5.058,5.058,0,0,1-1.226-3.586Zm2.54.18a3.555,3.555,0,0,0,.51,2.073,1.682,1.682,0,0,0,1.459.717,1.686,1.686,0,0,0,1.441-.709,3.89,3.89,0,0,0,.519-2.267,3.519,3.519,0,0,0-.519-2.06,1.686,1.686,0,0,0-1.459-.731,1.658,1.658,0,0,0-1.441.726A3.955,3.955,0,0,0,20.5-4.662ZM36.8-3.454,38.048-9.51H40.5L38.075,0H35.948l-1.8-5.985L32.344,0H30.226L27.8-9.51h2.452l1.239,6.047,1.74-6.047h1.837Zm10.107.826a.818.818,0,0,0-.461-.734,5.241,5.241,0,0,0-1.481-.479q-3.393-.712-3.393-2.883a2.613,2.613,0,0,1,1.05-2.114,4.237,4.237,0,0,1,2.747-.848,4.56,4.56,0,0,1,2.9.853,2.687,2.687,0,0,1,1.085,2.215h-2.54a1.229,1.229,0,0,0-.352-.9,1.488,1.488,0,0,0-1.1-.356,1.52,1.52,0,0,0-.993.29.916.916,0,0,0-.352.738.783.783,0,0,0,.4.681,4.114,4.114,0,0,0,1.349.448,11.019,11.019,0,0,1,1.6.426,2.628,2.628,0,0,1,2.013,2.558,2.481,2.481,0,0,1-1.116,2.1,4.815,4.815,0,0,1-2.883.8A5.029,5.029,0,0,1,43.256-.25,3.561,3.561,0,0,1,41.8-1.419a2.716,2.716,0,0,1-.527-1.6h2.408a1.326,1.326,0,0,0,.5,1.037,1.987,1.987,0,0,0,1.248.36,1.839,1.839,0,0,0,1.1-.277A.861.861,0,0,0,46.908-2.628Zm8.481,2.8a4.668,4.668,0,0,1-3.406-1.283,4.561,4.561,0,0,1-1.314-3.419v-.246a5.745,5.745,0,0,1,.554-2.562,4.064,4.064,0,0,1,1.569-1.74,4.4,4.4,0,0,1,2.316-.611,3.947,3.947,0,0,1,3.072,1.23A5,5,0,0,1,59.3-4.966v1.037H53.244a2.36,2.36,0,0,0,.743,1.494,2.245,2.245,0,0,0,1.569.563A2.742,2.742,0,0,0,57.85-2.936l1.248,1.4A3.813,3.813,0,0,1,57.551-.277,5.075,5.075,0,0,1,55.389.176ZM55.1-7.638a1.587,1.587,0,0,0-1.226.512,2.651,2.651,0,0,0-.6,1.466H56.8v-.2a1.891,1.891,0,0,0-.457-1.311A1.638,1.638,0,0,0,55.1-7.638Zm10.986.51a6.9,6.9,0,0,0-.914-.07,1.86,1.86,0,0,0-1.89.976V0h-2.54V-9.51h2.4l.07,1.134a2.354,2.354,0,0,1,2.118-1.31,2.662,2.662,0,0,1,.791.114Z" transform="translate(10.84 189.41)" fill="#12263f"/>
        <g id="Grupo_87658" data-name="Grupo 87658">
          <g id="Grupo_87657" data-name="Grupo 87657">
            <g id="Grupo_87656" data-name="Grupo 87656">
              <g id="Grupo_87653" data-name="Grupo 87653">
                <path id="Trazado_160124" data-name="Trazado 160124" d="M436.15,137.6c0,3.64,14.8,6.59,33.05,6.59s33-2.95,33-6.59V114.39H436.15Z" fill="#35afea"/>
                <path id="Trazado_160125" data-name="Trazado 160125" d="M469.2,107.79c-18.25,0-33.05,2.95-33.05,6.6S451,121,469.2,121s33-3,33-6.59S487.45,107.79,469.2,107.79Z" fill="#02749e"/>
              </g>
              <g id="Grupo_87654" data-name="Grupo 87654">
                <path id="Trazado_160126" data-name="Trazado 160126" d="M436.15,109.11c0,3.64,14.8,6.59,33.05,6.59s33-3,33-6.59V85.9H436.15Z" fill="#35afea"/>
                <path id="Trazado_160127" data-name="Trazado 160127" d="M469.2,79.3c-18.25,0-33.05,3-33.05,6.6s14.8,6.59,33.05,6.59,33-2.95,33-6.59S487.45,79.3,469.2,79.3Z" fill="#02749e"/>
              </g>
              <g id="Grupo_87655" data-name="Grupo 87655">
                <path id="Trazado_160128" data-name="Trazado 160128" d="M436.15,80.62c0,3.64,14.8,6.6,33.05,6.6s33-3,33-6.6V57.41H436.15Z" fill="#35afea"/>
                <path id="Trazado_160129" data-name="Trazado 160129" d="M469.2,50.82c-18.25,0-33.05,3-33.05,6.59S451,64,469.2,64s33-3,33-6.59S487.45,50.82,469.2,50.82Z" fill="#68c3ef"/>
              </g>
            </g>
            <path id="Trazado_160130" data-name="Trazado 160130" d="M436.15,57.41V80.62c0,.94,1,1.83,2.77,2.64-1.77.81-2.77,1.7-2.77,2.64v23.21c0,.94,1,1.83,2.77,2.64-1.77.81-2.77,1.69-2.77,2.64V137.6c0,3.64,14.8,6.59,33.05,6.59V50.82C451,50.82,436.15,53.77,436.15,57.41Z" fill="#12263f" opacity="0.27"/>
          </g>
          <path id="Trazado_160131" data-name="Trazado 160131" d="M495.16,62.6a2.71,2.71,0,0,0-2.63,2.79V80.58a2.63,2.63,0,1,0,5.26,0V65.39a2.72,2.72,0,0,0-2.63-2.79Z" fill="#a2bac3"/>
          <path id="Trazado_160132" data-name="Trazado 160132" d="M495.16,91.43a2.71,2.71,0,0,0-2.63,2.78v15.2a2.63,2.63,0,1,0,5.26,0V94.21a2.71,2.71,0,0,0-2.63-2.78Z" fill="#a2bac3"/>
          <path id="Trazado_160133" data-name="Trazado 160133" d="M495.16,119.92a2.7,2.7,0,0,0-2.63,2.78v15.2a2.63,2.63,0,1,0,5.26,0V122.7a2.71,2.71,0,0,0-2.63-2.78Z" fill="#a2bac3"/>
        </g>
      </g>
    </g>
  </g>
</svg>
